<?xml version="1.0" encoding="UTF-8" standalone="no"?>
<svg xmlns:rdf="http://www.w3.org/1999/02/22-rdf-syntax-ns#" xmlns="http://www.w3.org/2000/svg" viewBox="0 0 302 334.0698" height="334.07" width="302" version="1.1" xmlns:cc="http://creativecommons.org/ns#" xmlns:dc="http://purl.org/dc/elements/1.1/">
 <g style="">
  <g style="" transform="matrix(6.58 0 0 -6.58 151 .99535)">
   <path d="m0 0c-12.57 0 -22.797 -10.226 -22.797 -22.796 0 -8.739 4.865 -16.56 12.696 -20.437 -0.033 -0.065 -0.108 -0.211 -0.108 -0.211 -0.364 -0.71 -1.121 -2.188 -1.352 -2.295l -0.428 -0.134
   c -0.211 -0.051 -0.429 -0.103 -0.621 -0.252 -0.207 -0.158 -0.524 -0.761 -0.524 -1.071l -0.016 -0.106c -0.017 -0.093 -0.042 -0.223 -0.042 -0.382 0 -0.504 0.25 -1.303 1.767 -2.142 0.003 -0.002 
   0.308 -0.162 0.308 -0.162 2.066 -0.974 2.788 -0.209 3.059 0.077l0.077 0.075c0.251 0.182 0.554 0.791 0.562 1.052 0.001 0.01 0.001 0.02 0.001 0.029 0 0.231 -0.082 0.429 -0.161 
   0.621l-0.142 0.426c-0.001 0.006 -0.001 0.013 -0.001 0.02 0 0.29 0.793 1.816 1.181 2.56 0 0 0.169 0.327 0.221 0.428 2.046 -0.589 4.17 -0.893 6.32 -0.893 12.57 0 22.796 10.227 
   22.796 22.797s-10.226 22.796 -22.796 22.796" fill="#fff"/>
  </g>
 </g>
</svg>
