<?xml version="1.0" encoding="UTF-8" standalone="no"?>
<svg xmlns:rdf="http://www.w3.org/1999/02/22-rdf-syntax-ns#" xmlns="http://www.w3.org/2000/svg" viewBox="0 0 302 334.0698" height="334.07" width="302" version="1.1" xmlns:cc="http://creativecommons.org/ns#" xmlns:dc="http://purl.org/dc/elements/1.1/">
 <g style="">
  <g style="" transform="matrix(6.58 0 0 -6.58 151 .99535)">
   <path d="m0 0c-12.57 0-22.797-10.226-22.797-22.796 0-8.739 4.865-16.56 12.696-20.437-0.033-0.065-0.108-0.211-0.108-0.211-0.364-0.71-1.121-2.188-1.352-2.295l-0.428-0.134c-0.211-0.051-0.429-0.103-0.621-0.252-0.207-0.158-0.524-0.761-0.524-1.071l-0.016-0.106c-0.017-0.093-0.042-0.223-0.042-0.382 0-0.504 0.25-1.303 1.767-2.142 0.003-0.002 0.308-0.162 0.308-0.162 2.066-0.974 2.788-0.209 3.059 0.077l0.077 0.075c0.251 0.182 0.554 0.791 0.562 1.052 0.001 0.01 0.001 0.02 0.001 0.029 0 0.231-0.082 0.429-0.161 0.621l-0.142 0.426c-0.001 0.006-0.001 0.013-0.001 0.02 0 0.29 0.793 1.816 1.181 2.56 0 0 0.169 0.327 0.221 0.428 2.046-0.589 4.17-0.893 6.32-0.893 12.57 0 22.796 10.227 22.796 22.797s-10.226 22.796-22.796 22.796" fill="#fff"/>
  </g>
  <g style="" transform="matrix(6.58 0 0 -6.58 152.52 163.65)">
   <path d="m0 0c0.052 0.135 0.104 0.27 0.154 0.404-0.877 0.46-2.418 0.987-3.212 1.296-0.115 0.045-0.241 0.104-0.373 0.173-0.211 0.112-0.437 0.254-0.663 0.424-0.911 0.684-1.812 1.813-1.637 3.209 0.156 1.238 1.139 1.848 2.521 2.018 0.221 0.027 0.45 0.043 0.689 0.048 2.195 0.05 5.099-0.783 7.365-1.922 1.759-0.88 4.112-2.591 5.269-3.707 0.285-0.275 0.511-0.506 0.705-0.72 0.163-0.181 0.301-0.352 0.412-0.512 0.366-0.533 0.476-1.014 0.528-1.83 0.004-0.827-0.225-1.571-0.507-2.161-0.004-0.009-0.005-0.016-0.009-0.024 0.248 0.149 0.508 0.281 0.767 0.391 0.002 0.01 0.005 0.017 0.005 0.018 0.017 0.075 0.027 0.223 0.027 0.223 0.368 1.723 0.031 3.243-0.501 4.349-0.131 0.273-0.273 0.518-0.42 0.736-0.202 0.302-0.412 0.554-0.611 0.74-0.907 0.85-0.475 0.215-0.174-0.175 0.214-0.276 0.316-0.439 0.407-0.61 0.159-0.304 0.234-0.483 0.245-0.575-0.005-0.022-0.011-0.045-0.016-0.066-0.066-0.023-0.28 0.161-0.607 0.496-1.234 1.262-3.385 2.861-5.36 3.85-2.429 1.215-5.345 1.852-7.238 1.926-0.21 0.008-0.41 0.011-0.591 0.006 0.315 0.145 0.57 0.234 0.817 0.297 0.346 0.088 0.677 0.121 1.129 0.167 0.687 0.07 0.417 0.206 0 0.174-0.251-0.019-0.557-0.037-0.891-0.065-0.254-0.022-0.524-0.05-0.803-0.091-1.498-0.216-3.206-0.779-3.565-2.574-0.36-1.809 0.799-3.395 2.184-4.265 0.226-0.143 0.459-0.264 0.693-0.367 0.058-0.024 0.116-0.052 0.175-0.075 1.472-0.574 3.025-1.255 3.062-1.272h0.003l0.021 0.066z" fill="#142448"/>
  </g>
  <g style="" transform="matrix(6.58 0 0 -6.58 159.51 98.155)">
   <path d="m0 0 0.149 0.462 0.296-0.408 0.494-0.02-0.312-0.377 0.143-0.486-0.48 0.181-0.403-0.3 0.017 0.508-0.389 0.289 0.485 0.151zm2.825 0.047 0.377 0.634 0.3-0.701 0.723-0.197-0.588-0.452 0.048-0.765-0.646 0.428-0.696-0.309 0.193 0.746-0.478 0.554 0.767 0.062zm2.988-0.844 0.783-0.453 0.787 0.359-0.179-0.878 0.566-0.672-0.868-0.045-0.466-0.77-0.337 0.846l-0.878 0.167 0.684 0.59-0.092 0.856zm2.812-3.601 0.168 0.49 0.311-0.446 0.521-0.004-0.32-0.434 0.138-0.511-0.486 0.197-0.451-0.303 0.032 0.548-0.436 0.314 0.523 0.149zm-3.793 1.542c1.047-0.522 2.412-1.539 3.922-3.252l1.345 0.769 0.253 0.145c-0.435 2.731-1.96 4.601-4.067 5.737-2.86 1.543-6.057 0.757-7.379-0.16l0.023-0.302 0.094-1.251c2.324-0.117 4.764-1.163 5.809-1.686" fill="#142448"/>
  </g>
  <g style="" transform="matrix(6.58 0 0 -6.58 246.92 220.25)">
   <path d="m0 0v0.939h0.345v0.204h-0.924v-0.204h0.345v-0.939h0.234z" fill="#142448"/>
  </g>
  <g style="" transform="matrix(6.58 0 0 -6.58 259.48 220.25)">
   <path d="m0 0v1.143h-0.401l-0.277-0.747h-0.007l-0.265 0.747h-0.406v-1.143h0.235v0.909h0.005l0.32-0.909h0.226l0.331 0.909h0.007v-0.909h0.232z" fill="#142448"/>
  </g>
 </g>
</svg>
