<?xml version="1.0" encoding="UTF-8" standalone="no"?>
<svg xmlns:rdf="http://www.w3.org/1999/02/22-rdf-syntax-ns#" xmlns="http://www.w3.org/2000/svg" viewBox="0 0 302 334.0698" height="334.07" width="302" version="1.1" xmlns:cc="http://creativecommons.org/ns#" xmlns:dc="http://purl.org/dc/elements/1.1/">
 <g style="">
  <g style="" transform="matrix(6.58 0 0 -6.58 152.52 163.65)">
   <path d="m0 0c0.052 0.135 0.104 0.27 0.154 0.404-0.877 0.46-2.418 0.987-3.212 1.296-0.115 0.045-0.241 0.104-0.373 0.173-0.211 0.112-0.437 0.254-0.663 0.424-0.911 0.684-1.812 1.813-1.637 3.209 0.156 1.238 1.139 1.848 2.521 2.018 0.221 0.027 0.45 0.043 0.689 0.048 2.195 0.05 5.099-0.783 7.365-1.922 1.759-0.88 4.112-2.591 5.269-3.707 0.285-0.275 0.511-0.506 0.705-0.72 0.163-0.181 0.301-0.352 0.412-0.512 0.366-0.533 0.476-1.014 0.528-1.83 0.004-0.827-0.225-1.571-0.507-2.161-0.004-0.009-0.005-0.016-0.009-0.024 0.248 0.149 0.508 0.281 0.767 0.391 0.002 0.01 0.005 0.017 0.005 0.018 0.017 0.075 0.027 0.223 0.027 0.223 0.368 1.723 0.031 3.243-0.501 4.349-0.131 0.273-0.273 0.518-0.42 0.736-0.202 0.302-0.412 0.554-0.611 0.74-0.907 0.85-0.475 0.215-0.174-0.175 0.214-0.276 0.316-0.439 0.407-0.61 0.159-0.304 0.234-0.483 0.245-0.575-0.005-0.022-0.011-0.045-0.016-0.066-0.066-0.023-0.28 0.161-0.607 0.496-1.234 1.262-3.385 2.861-5.36 3.85-2.429 1.215-5.345 1.852-7.238 1.926-0.21 0.008-0.41 0.011-0.591 0.006 0.315 0.145 0.57 0.234 0.817 0.297 0.346 0.088 0.677 0.121 1.129 0.167 0.687 0.07 0.417 0.206 0 0.174-0.251-0.019-0.557-0.037-0.891-0.065-0.254-0.022-0.524-0.05-0.803-0.091-1.498-0.216-3.206-0.779-3.565-2.574-0.36-1.809 0.799-3.395 2.184-4.265 0.226-0.143 0.459-0.264 0.693-0.367 0.058-0.024 0.116-0.052 0.175-0.075 1.472-0.574 3.025-1.255 3.062-1.272h0.003l0.021 0.066z" fill="#142448"/>
  </g>
 </g>
</svg>
