<?xml version="1.0" encoding="UTF-8" standalone="no"?>
<svg xmlns:rdf="http://www.w3.org/1999/02/22-rdf-syntax-ns#" xmlns="http://www.w3.org/2000/svg" viewBox="0 0 302 334.0698" height="334.07" width="302" version="1.1" xmlns:cc="http://creativecommons.org/ns#" xmlns:dc="http://purl.org/dc/elements/1.1/">
 <g style="">
  <g style="" transform="matrix(0 0 0 0 0 0)">
   <path d="m0 0c-12.57 0-22.797-10.226-22.797-22.796 0-8.739 4.865-16.56 12.696-20.437-0.033-0.065-0.108-0.211-0.108-0.211-0.364-0.71-1.121-2.188-1.352-2.295l-0.428-0.134c-0.211-0.051-0.429-0.103-0.621-0.252-0.207-0.158-0.524-0.761-0.524-1.071l-0.016-0.106c-0.017-0.093-0.042-0.223-0.042-0.382 0-0.504 0.25-1.303 1.767-2.142 0.003-0.002 0.308-0.162 0.308-0.162 2.066-0.974 2.788-0.209 3.059 0.077l0.077 0.075c0.251 0.182 0.554 0.791 0.562 1.052 0.001 0.01 0.001 0.02 0.001 0.029 0 0.231-0.082 0.429-0.161 0.621l-0.142 0.426c-0.001 0.006-0.001 0.013-0.001 0.02 0 0.29 0.793 1.816 1.181 2.56 0 0 0.169 0.327 0.221 0.428 2.046-0.589 4.17-0.893 6.32-0.893 12.57 0 22.796 10.227 22.796 22.797s-10.226 22.796-22.796 22.796" fill="#fff"/>
  </g>
  <g style="" transform="matrix(0 0 0 0 0 0)">
   <path d="m0 0 0.149 0.462 0.296-0.408 0.494-0.02-0.312-0.377 0.143-0.486-0.48 0.181-0.403-0.3 0.017 0.508-0.389 0.289 0.485 0.151zm2.825 0.047 0.377 0.634 0.3-0.701 0.723-0.197-0.588-0.452 0.048-0.765-0.646 0.428-0.696-0.309 0.193 0.746-0.478 0.554 0.767 0.062zm2.988-0.844 0.783-0.453 0.787 0.359-0.179-0.878 0.566-0.672-0.868-0.045-0.466-0.77-0.337 0.846l-0.878 0.167 0.684 0.59-0.092 0.856zm2.812-3.601 0.168 0.49 0.311-0.446 0.521-0.004-0.32-0.434 0.138-0.511-0.486 0.197-0.451-0.303 0.032 0.548-0.436 0.314 0.523 0.149zm-3.793 1.542c1.047-0.522 2.412-1.539 3.922-3.252l1.345 0.769 0.253 0.145c-0.435 2.731-1.96 4.601-4.067 5.737-2.86 1.543-6.057 0.757-7.379-0.16l0.023-0.302 0.094-1.251c2.324-0.117 4.764-1.163 5.809-1.686" fill="#142448"/>
  </g>
 </g>
</svg>
