<?xml version="1.0" encoding="UTF-8" standalone="no"?>
<svg
   xmlns:dc="http://purl.org/dc/elements/1.1/"
   xmlns:cc="http://creativecommons.org/ns#"
   xmlns:rdf="http://www.w3.org/1999/02/22-rdf-syntax-ns#"
   xmlns:svg="http://www.w3.org/2000/svg"
   xmlns="http://www.w3.org/2000/svg"
   xmlns:sodipodi="http://sodipodi.sourceforge.net/DTD/sodipodi-0.dtd"
   xmlns:inkscape="http://www.inkscape.org/namespaces/inkscape"
   viewBox="0 0 500 500"
   version="1.1"
   id="svg24"
   sodipodi:docname="tampa-bay-buccaneers-logo.svg"
   inkscape:export-filename="C:\Users\suitedoalex\sites\tampa-bay-buccaneers-logo-0.png"
   inkscape:export-xdpi="786.43201"
   inkscape:export-ydpi="786.43201"
   inkscape:version="0.92.4 (5da689c313, 2019-01-14)">
  <metadata
     id="metadata30">
    <rdf:RDF>
      <cc:Work
         rdf:about="">
        <dc:format>image/svg+xml</dc:format>
        <dc:type
           rdf:resource="http://purl.org/dc/dcmitype/StillImage" />
        <dc:title></dc:title>
      </cc:Work>
    </rdf:RDF>
  </metadata>
  <defs
     id="defs28" />
  <sodipodi:namedview
     pagecolor="#ffffff"
     bordercolor="#666666"
     borderopacity="1"
     objecttolerance="10"
     gridtolerance="10"
     guidetolerance="10"
     inkscape:pageopacity="0"
     inkscape:pageshadow="2"
     inkscape:window-width="1600"
     inkscape:window-height="837"
     id="namedview26"
     showgrid="false"
     inkscape:zoom="0.472"
     inkscape:cx="-35.046393"
     inkscape:cy="381.10422"
     inkscape:window-x="-8"
     inkscape:window-y="-8"
     inkscape:window-maximized="1"
     inkscape:current-layer="svg24" />
  <g
     id="g22"
     transform="translate(-57.20339,-67.79661)"
     style="fill:none;fill-rule:evenodd"
     inkscape:export-filename="C:\Users\suitedoalex\sites\tampa-bay-buccaneers-logo-4.png"
     inkscape:export-xdpi="114.09315"
     inkscape:export-ydpi="114.09315" />
  <g
     style="fill:none;fill-rule:evenodd"
     transform="matrix(0.78310128,0,0,0.78310128,81.716469,100.33987)"
     id="g20"
     inkscape:export-filename="C:\Users\suitedoalex\sites\tampa-bay-buccaneers-logo-4.png"
     inkscape:export-xdpi="114.09315"
     inkscape:export-ydpi="114.09315">
  <path
       d="m 323.18216,186.167 c -20.59841,14.57222 -52.84841,19.02263 -52.84841,19.02263 -0.36276,1.39794 -2.49507,2.86667 -2.49507,2.86667 0,0 3.30021,1.22098 11.40474,7.31707 8.09567,6.0961 5.90144,5.79527 8.48497,7.53828 2.58354,1.73415 4.05227,1.24753 4.05227,1.24753 0.7786,1.56605 0.87681,3.893 0.87681,3.893 1.07854,1.01749 6.36064,6.0607 1.45014,11.28086 -4.91934,5.22017 -10.59959,0.37161 -10.59959,0.37161 -2.00843,0.42469 -3.96378,-0.23889 -3.96378,-0.23889 0,0 -10.51111,6.61811 -20.95056,-0.5928 -8.49471,-5.8572 -7.98154,-12.80267 -7.48518,-15.20041 -2.86755,1.64568 -5.94657,2.9286 -9.10432,3.91955 -8.52126,2.67201 -19.39513,3.77798 -30.19821,0.1858 -7.09589,-2.38889 -12.97079,-6.52963 -17.607,-11.1216 -4.64506,-4.60083 -8.07798,-9.67943 -10.31646,-14.25371 -0.33621,-0.69897 -0.65473,-1.38909 -0.93786,-2.06152 -0.74321,1.76955 -4.3,8.48586 -15.31543,8.0072 -12.67881,-0.54856 -17.07613,-12.16564 -17.07613,-12.16564 0,0 -1.95535,-0.65473 -3.30021,-2.19424 0,0 -7.44979,0.44239 -8.22839,-6.68888 -0.76976,-7.13128 6.49423,-7.96297 7.97181,-8.12223 0,0 1.46872,-1.80493 3.03477,-2.58353 0,0 0.88477,1.28292 3.99033,1.45102 3.10555,0.16811 1.17675,-0.92016 11.31625,-0.89362 10.13951,0.0177 13.50165,1.04403 13.50165,1.04403 0,0 -0.81399,-2.45967 -0.25658,-3.79567 0,0 -23.03066,-23.00412 -30.66626,-47.05227 -7.6356,-24.04815 -5.29979,-32.966664 3.97263,-58.324277 0,0 6.8747,43.203497 27.97655,70.348357 12.04177,15.49238 25.58765,27.56954 35.01049,35.09012 0.21235,0 0.43354,0.009 0.64589,0.009 -2.00844,-2.23848 -3.5391,-4.86626 -4.3,-7.87449 -1.88457,-7.4321 -4.97243,-14.34218 -6.38807,-19.84547 -1.41564,-5.51214 1.73416,-16.52757 1.73416,-16.52757 -4.22922,-6.77737 -2.1677,-17.93437 -2.1677,-17.93437 0,0 2.29157,-1.08827 4.03457,-3.20288 1.73416,-2.12345 1.13251,-8.38765 2.54815,-17.606991 1.41563,-9.219342 7.4144,-18.757202 20.7037,-24.180865 13.21852,-5.397119 33.07284,1.68107 33.2498,1.743004 0.17695,0.05309 20.28786,6.379218 27.57839,18.659877 7.32593,12.342595 6.35268,23.579215 1.91996,31.781075 -4.43183,8.2107 -8.69733,12.83806 -8.58231,15.58086 0.10618,2.73395 1.28293,4.98127 1.28293,4.98127 0,0 -5.0786,10.14836 -12.55494,13.01502 0,0 -4.1319,10.67922 -8.59115,14.21832 -4.44157,3.53909 -11.07737,7.18436 -17.06729,11.97983 -2.36234,1.89342 -5.0786,3.06132 -7.97181,3.65412 0.19465,0.14156 0.38045,0.28313 0.5751,0.42469 12.04177,-0.31852 30.05577,-1.7784 48.91029,-6.84815 33.20556,-8.93621 64.74774,-39.24856 64.74774,-39.24856 -7.8913,25.8177 -11.41358,34.34692 -32.00138,48.92799 z M 354.76769,83.179342 C 312.28086,82.922757 266.26379,59.016173 225.44033,49.903004 139.38724,30.703416 97.68786,75.632222 97.670165,75.649918 c 0.0088,-0.0088 13.944035,-5.078601 20.969135,-0.513169 7.6356,4.96358 0.90247,17.766255 -1.5572,20.323251 -7.0605,7.35247 -17.208849,12.78498 -28.418931,12.78498 0,0 11.864811,2.84897 15.704731,6.37922 0,0 -11.006583,1.44218 -17.005349,3.5214 -5.989917,2.08806 -17.722016,5.47675 -20.323251,5.47675 0,0 30.905144,14.12983 11.723251,44.30946 0,0 13.413169,-2.05267 24.587859,3.30905 0,0 -61.226336,-9.88292 -81.938887,57.69609 7.803703,-6.4323 32.320781,-23.72963 70.489917,-23.91543 46.07901,-0.2035 65.84486,10.39609 84.15082,21.48231 27.90576,16.91687 49.00762,21.92469 65.03971,24.91522 46.07105,8.6 92.33499,-6.89238 112.38396,-16.23559 58.19156,-89.15865 64.8893,-139.519962 65.88024,-175.477164 -18.80144,18.925309 -50.30823,23.561523 -64.58848,23.473046 z"
       id="path8"
       inkscape:connector-curvature="0"
       style="fill:#a71930" />
  </g>
</svg>
