<?xml version="1.0" encoding="UTF-8" standalone="no"?>
<svg
   xmlns:dc="http://purl.org/dc/elements/1.1/"
   xmlns:cc="http://creativecommons.org/ns#"
   xmlns:rdf="http://www.w3.org/1999/02/22-rdf-syntax-ns#"
   xmlns:svg="http://www.w3.org/2000/svg"
   xmlns="http://www.w3.org/2000/svg"
   xmlns:sodipodi="http://sodipodi.sourceforge.net/DTD/sodipodi-0.dtd"
   xmlns:inkscape="http://www.inkscape.org/namespaces/inkscape"
   viewBox="0 0 500 500"
   version="1.1"
   id="svg24"
   sodipodi:docname="tampa-bay-buccaneers-logo.svg"
   inkscape:export-filename="C:\Users\suitedoalex\sites\tampa-bay-buccaneers-logo-0.png"
   inkscape:export-xdpi="786.43201"
   inkscape:export-ydpi="786.43201"
   inkscape:version="0.92.4 (5da689c313, 2019-01-14)">
  <metadata
     id="metadata30">
    <rdf:RDF>
      <cc:Work
         rdf:about="">
        <dc:format>image/svg+xml</dc:format>
        <dc:type
           rdf:resource="http://purl.org/dc/dcmitype/StillImage" />
        <dc:title></dc:title>
      </cc:Work>
    </rdf:RDF>
  </metadata>
  <defs
     id="defs28" />
  <sodipodi:namedview
     pagecolor="#ffffff"
     bordercolor="#666666"
     borderopacity="1"
     objecttolerance="10"
     gridtolerance="10"
     guidetolerance="10"
     inkscape:pageopacity="0"
     inkscape:pageshadow="2"
     inkscape:window-width="1600"
     inkscape:window-height="837"
     id="namedview26"
     showgrid="false"
     inkscape:zoom="0.472"
     inkscape:cx="-35.046393"
     inkscape:cy="381.10422"
     inkscape:window-x="-8"
     inkscape:window-y="-8"
     inkscape:window-maximized="1"
     inkscape:current-layer="svg24" />
  <g
     id="g22"
     transform="translate(-57.20339,-67.79661)"
     style="fill:none;fill-rule:evenodd"
     inkscape:export-filename="C:\Users\suitedoalex\sites\tampa-bay-buccaneers-logo-4.png"
     inkscape:export-xdpi="114.09315"
     inkscape:export-ydpi="114.09315" />
  <g
     style="fill:none;fill-rule:evenodd"
     transform="matrix(0.78310128,0,0,0.78310128,81.716469,100.33987)"
     id="g20"
     inkscape:export-filename="C:\Users\suitedoalex\sites\tampa-bay-buccaneers-logo-4.png"
     inkscape:export-xdpi="114.09315"
     inkscape:export-ydpi="114.09315">
    <path
       d="m 231.68683,67.297654 c 13.21852,-5.397119 33.07284,1.68107 33.2498,1.743004 0.17695,0.05309 20.28786,6.379218 27.57839,18.659877 7.32593,12.342595 6.35268,23.579215 1.91996,31.781075 -4.43183,8.2107 -8.69733,12.83806 -8.58231,15.58086 0.10618,2.73395 1.28293,4.98127 1.28293,4.98127 0,0 -5.0786,10.14836 -12.55494,13.01502 0,0 -4.1319,10.67922 -8.59115,14.21832 -4.44157,3.53909 -11.07737,7.18436 -17.06729,11.97983 -2.36234,1.89342 -5.0786,3.06132 -7.97181,3.65412 0.19465,0.14156 0.38045,0.28313 0.5751,0.42469 12.04177,-0.31852 30.05577,-1.7784 48.91029,-6.84815 33.20556,-8.93621 64.74774,-39.24856 64.74774,-39.24856 -7.8913,25.8177 -11.41358,34.34692 -32.00138,48.92799 -20.59841,14.57222 -52.84841,19.02263 -52.84841,19.02263 -0.36276,1.39794 -2.49507,2.86667 -2.49507,2.86667 0,0 3.30021,1.22098 11.40474,7.31707 8.09567,6.0961 5.90144,5.79527 8.48497,7.53828 2.42697,1.62905 3.87015,1.29835 4.03616,1.25229 l 0.0161,-0.005 c 0.7786,1.56605 0.87681,3.893 0.87681,3.893 1.07854,1.01749 6.36064,6.0607 1.45014,11.28086 -4.91934,5.22017 -10.59959,0.37161 -10.59959,0.37161 -2.00843,0.42469 -3.96378,-0.23889 -3.96378,-0.23889 0,0 -10.51111,6.61811 -20.95056,-0.5928 -8.49471,-5.8572 -7.98154,-12.80267 -7.48518,-15.20041 -2.86755,1.64568 -5.94657,2.9286 -9.10432,3.91955 -8.52126,2.67201 -19.39513,3.77798 -30.19821,0.1858 -7.09589,-2.38889 -12.97079,-6.52963 -17.607,-11.1216 -4.64506,-4.60083 -8.07798,-9.67943 -10.31646,-14.25371 -0.33621,-0.69897 -0.65473,-1.38909 -0.93786,-2.06152 -0.74321,1.76955 -4.3,8.48586 -15.31543,8.0072 -12.67881,-0.54856 -17.07613,-12.16564 -17.07613,-12.16564 0,0 -1.95535,-0.65473 -3.30021,-2.19424 0,0 -7.44979,0.44239 -8.22839,-6.68888 -0.76976,-7.13128 6.49423,-7.96297 7.97181,-8.12223 0,0 1.46872,-1.80493 3.03477,-2.58353 0,0 0.88477,1.28292 3.99033,1.45102 3.10555,0.16811 1.17675,-0.92016 11.31625,-0.89362 10.13951,0.0177 13.50165,1.04403 13.50165,1.04403 0,0 -0.81399,-2.45967 -0.25658,-3.79567 0,0 -23.03066,-23.00412 -30.66626,-47.05227 -7.6356,-24.04815 -5.29979,-32.966664 3.97263,-58.324277 0,0 6.8747,43.203497 27.97655,70.348357 12.04177,15.49238 25.58765,27.56954 35.01049,35.09012 0.21235,0 0.43354,0.009 0.64589,0.009 -2.00844,-2.23848 -3.5391,-4.86626 -4.3,-7.87449 -1.88457,-7.4321 -4.97243,-14.34218 -6.38807,-19.84547 -1.41564,-5.51214 1.73416,-16.52757 1.73416,-16.52757 -4.22922,-6.77737 -2.1677,-17.93437 -2.1677,-17.93437 0,0 2.29157,-1.08827 4.03457,-3.20288 1.73416,-2.12345 1.13251,-8.38765 2.54815,-17.606991 1.41563,-9.219342 7.4144,-18.757202 20.7037,-24.180865 z m 34.28498,134.821806 c -0.30967,-0.3893 -0.82284,-0.009 -0.82284,-0.009 -3.00823,2.45967 -3.6895,7.09588 -3.71605,8.36996 -0.0177,1.27407 -3.72401,9.47592 -4.45041,11.74979 -0.0354,0.0894 -0.66358,2.04383 -0.81399,3.22058 -0.2212,1.81378 -0.15041,7.36131 8.83004,10.5465 8.22928,2.91179 15.10309,-2.54815 16.20905,-3.49486 2.30926,0.16811 3.99033,-1.03518 4.80432,-1.84033 0.33622,-0.32736 0.53972,-0.58395 0.58395,-0.64588 -0.87592,2.9109 -2.73395,3.62757 -3.86646,3.78683 -0.36275,0.0531 -0.66358,0.0531 -0.82284,0.0354 0.0265,0.0796 0.0354,0.13272 0.0531,0.20438 0.13272,0.48574 0.10617,0.77772 0.10617,0.77772 0,0 0.26544,0.13272 0.72552,0.15926 0.65473,0.0354 1.69876,-0.12387 3.0445,-1.15021 0.2212,-0.17695 0.39727,-0.36275 0.57422,-0.54856 -0.52201,1.10597 -0.11502,2.43313 0.97414,3.02593 1.13162,0.61138 2.54726,0.19465 3.15775,-0.93698 0.61935,-1.12454 0.19466,-2.54903 -0.93786,-3.15952 -0.83168,-0.45124 -1.8129,-0.33622 -2.51275,0.19465 0.68127,-1.12366 0.7609,-2.28272 0.71666,-3.00735 0,-0.12475 -0.0796,-0.68216 -0.0885,-0.68216 0.009,-0.009 0.009,-0.009 0.009,-0.009 -0.45123,-0.11502 -0.87592,-0.27428 -1.28292,-0.46893 -0.45123,-0.22119 -0.87592,-0.50432 -1.30061,-0.82284 -0.56626,-0.41584 -2.2199,-1.98189 -2.6269,-2.38889 -0.54059,-0.54856 -1.098,-1.08827 -1.64656,-1.63683 -0.66358,-0.65473 -2.12346,-1.99959 -2.79589,-2.51275 -0.13271,-0.10529 -1.62798,-1.29177 -1.88456,-1.49527 0.38045,0.3893 3.01708,3.22942 3.61872,4.83086 0.3893,0.95556 0.61049,2.15 0.54856,3.18519 -0.0177,0.29197 -0.0619,0.54856 -0.11502,0.78745 0,0 0.009,0.0177 0.0177,0.0177 -0.009,0 -0.0177,-0.009 -0.0265,-0.009 -0.0885,0.4247 -0.22119,0.7963 -0.39815,1.02634 -0.32736,0.39903 -0.84053,0.62023 -1.22983,0.73436 0.009,0 0.0177,0.009 0.0265,0.0177 0.5928,0.46893 1.20329,0.89362 1.70761,1.46872 -5.08744,4.84856 -11.89135,4.85741 -15.81975,2.9286 -3.83107,-1.87483 -4.96358,-4.19382 -4.47695,-7.38786 -1.03519,-0.22119 -2.03498,-0.86707 -2.41544,-2.45967 0.0354,0.0266 0.0805,0.0442 0.11591,0.0796 0.88477,0.71667 2.32607,0.97325 3.21969,0.12387 0.80515,-0.7609 1.43334,-2.01728 1.99959,-3.37099 0.51317,-1.23868 0.95556,-2.51275 1.53066,-3.72489 0.23004,-0.49548 0.3893,-1.03519 0.47778,-1.56605 0.25747,-1.51297 -0.0619,-3.12325 -0.80515,-4.45926 -0.80514,-1.44218 -1.22983,-3.42408 -0.53971,-5.47675 0.69897,-2.04383 1.86687,-2.82243 2.20309,-3.14095 0.34506,-0.30967 0.32736,-0.62819 0.14156,-0.86708 z m -0.53086,10.5642 c 0.7786,1.13251 1.71646,3.00027 1.53065,5.26441 0,0 -0.17695,1.1679 -0.41495,1.85802 -0.38134,1.07058 -0.70871,1.93765 -0.98299,2.63663 4.52208,2.03497 8.8035,4.57428 11.62593,6.50308 0.39815,-0.13271 0.85911,-0.35391 1.17675,-0.75206 0.20349,-0.26543 0.34594,-0.70781 0.44238,-1.22098 0.2035,-1.02634 0.16015,-2.42428 -0.3893,-3.9284 -0.46008,-1.30946 -1.46872,-2.7251 -2.45967,-3.82134 -0.12298,-0.0982 -0.25658,-0.18668 -0.38045,-0.28401 -1.00864,-0.72551 -2.04383,-1.41564 -3.09671,-2.08806 -1.45987,-0.93786 -2.94629,-1.84033 -4.45926,-2.70741 -0.71666,-0.41585 -1.43333,-0.81399 -2.15884,-1.22099 -0.15042,-0.0885 -0.29198,-0.15926 -0.43354,-0.23889 z m -38.08951,-31.37407 c -17.53621,-5.88375 -36.55885,2.81358 -40.73498,8.09568 -0.17695,0.21234 -0.33621,0.43354 -0.46893,0.67242 -0.0177,0.0266 -0.0265,0.0796 -0.0531,0.0973 0,0 -0.10617,0.15926 -0.22119,0.48663 -1.66337,4.97242 8.4142,26.10082 27.43683,32.48888 19.04033,6.38807 39.62017,-3.82222 41.47819,-9.3609 0.13272,-0.39815 0.15926,-0.72552 0.15926,-0.72552 0.1858,-1.30946 -0.10617,-3.17633 -0.83169,-5.36172 -2.83127,-8.40535 -12.24526,-21.5177 -26.7644,-26.3928 z m 11.10568,17.54329 c 6.68181,3.91689 11.65424,8.13372 14.18911,11.15346 -3.71516,-2.74015 -8.54514,-5.78288 -14.21831,-8.67255 0.0372,-0.83169 0.0478,-1.65896 0.0292,-2.48091 z m -54.32603,-24.24819 -0.10702,0.016 c -0.28312,0.0796 -0.48662,0.31852 -0.40699,0.7786 0.0796,0.45123 0.54856,1.78724 -0.14157,3.83107 -0.68127,2.06152 -2.21193,3.37984 -3.72489,4.04342 -1.51297,0.66358 -3.37099,2.15884 -3.89301,4.60967 -0.51317,2.44197 -1.84033,5.66255 -1.46872,7.786 0.13271,0.814 0.93786,1.92881 2.78704,1.85803 -1.26523,1.04403 -2.45083,0.9644 -3.42408,0.52202 -1.53066,2.82242 -3.83107,3.98148 -8.0249,3.16749 -4.2823,-0.82284 -9.71481,-4.93704 -10.83847,-11.88251 0,-0.11797 1.43775,-0.13149 2.02453,-0.13272 h 0.25818 c -0.24773,-0.32737 -0.52201,-0.81399 -0.53971,-1.32716 -0.009,-0.29198 0.11502,-0.66358 0.30083,-1.06173 0.0442,-0.0619 0.23004,-0.407 0.26543,-0.46893 0.51316,-0.9644 1.50411,-1.87572 2.44197,-2.42428 0.009,-0.009 0.0177,-0.0177 0.0265,-0.0177 1.63684,-0.98209 4.20268,-1.57489 5.83066,-1.66337 0.0442,-0.009 -0.5751,-0.0265 -0.88477,-0.0177 -2.01728,0.009 -4.02572,0.2035 -6.02531,0.48663 -1.76955,0.24774 -3.46831,0.54856 -5.0963,0.53971 -0.52201,-0.009 -1.02633,-0.0442 -1.51296,-0.13271 -0.45123,-0.0885 -0.90247,-0.2212 -1.34485,-0.407 0,0 -1.68992,1.3537 -1.7607,3.67181 -0.17696,-0.95555 -0.94671,-1.73416 -1.95535,-1.88457 -1.28293,-0.19465 -2.48622,0.68128 -2.68087,1.97305 -0.19465,1.28292 0.69897,2.48621 1.98189,2.68086 1.27408,0.19465 2.47737,-0.69012 2.67202,-1.97304 0.009,-0.0354 0.009,-0.0619 0.009,-0.0973 0.0354,0.27428 0.0885,0.56626 0.16811,0.85823 0.22119,0.82284 0.52201,1.39795 0.84053,1.84033 0.74321,1.06173 1.56605,1.22099 1.56605,1.22099 0.009,0 0.11502,-0.15041 0.12387,-0.16811 0.0531,-0.0619 0.49547,-0.52201 0.58395,-0.52201 -0.54856,-0.36276 -2.81358,-2.10577 -1.43333,-5.88375 0,0 -0.0796,3.43292 2.76049,5.25556 0.30967,1.41563 2.5393,9.90946 10.86502,12.54609 9.08663,2.89321 12.58148,-1.44218 13.40432,-3.07901 0.36276,-0.74321 1.29177,-3.06132 1.29177,-3.06132 0.78745,-2.25617 2.78704,-11.03313 3.5391,-12.05947 0.74321,-1.02633 2.99938,-5.13168 2.08806,-8.90967 0,0 -0.1858,-0.61934 -0.67243,-0.49547 z m 160.84216,-21.84675 c -0.0354,0.0708 -1.12366,0.97325 -2.88436,2.39774 -0.75206,0.61934 -1.58375,1.29177 -2.52161,2.03498 -10.24568,8.09568 -31.63065,22.6502 -66.4465,28.9144 -8.44074,1.51296 -17.04074,2.34465 -25.41955,2.71626 1.38114,1.42448 2.64548,2.87551 3.79568,4.35308 0,0 3.66297,-0.27339 4.16729,-0.31852 6.31728,-0.53086 12.63456,-1.29177 18.88107,-2.42428 15.44815,-2.78703 27.12716,-6.73312 32.66584,-8.82119 1.30062,-0.51317 2.5393,-1.03518 3.75144,-1.56605 v 0 l -0.16722,0.14157 c 0,0 -22.68648,13.50164 -57.13072,15.97016 1.09712,1.63683 2.07037,3.25597 2.89321,4.84856 10.71461,-0.60165 21.56193,-2.09691 31.81646,-4.93704 6.55617,-1.82263 13.00617,-4.12304 19.1642,-7.03395 6.19341,-2.91975 12.27181,-6.42345 17.61584,-10.7323 3.47716,-2.81358 6.74198,-5.83951 9.74136,-9.17511 4.12304,-4.57428 7.88333,-10.02448 9.91831,-15.88168 v 0 l 0.15041,-0.46008 z M 165.7358,182.22975 c -1.44218,0.28313 -3.10555,0.7963 -4.26461,1.56605 -1.3537,0.87593 -2.22078,1.9642 -2.68086,2.89321 -0.23004,0.47778 -0.3893,0.92017 -0.38045,1.24753 0.0177,0.51317 0.25658,0.96441 0.48662,1.30947 0,0 8.09568,0.43354 13.19198,1.83148 0.19465,-0.72552 0.46008,-1.61914 0.80514,-2.69856 0.22119,-0.69012 0.52202,-1.26523 0.84938,-1.78724 1.22099,-1.92881 3.02593,-2.78704 4.34424,-3.22058 -2.19424,-0.35391 -4.76008,-0.64588 -6.96317,-0.84053 -1.09712,-0.0973 -2.19424,-0.17696 -3.3002,-0.23005 -0.69013,-0.0354 -1.3891,-0.0531 -2.08807,-0.0708 z m 23.54206,6.63227 c 3.92928,-0.87239 10.64825,-1.28293 18.56344,-0.34064 -0.5176,0.64854 -1.01484,1.32008 -1.4935,2.01286 -6.46062,-1.15286 -12.32755,-1.63064 -17.06994,-1.67222 z m -38.48589,-101.267658 -0.17695,0.504321 c -1.14136,3.370988 -1.5749,7.051646 -1.7607,10.590741 -0.31852,5.989916 0.24774,12.015226 1.51296,17.863576 1.34486,6.22881 3.49486,12.21873 6.14033,18.00515 2.69856,5.92798 6.03416,11.54629 9.75906,16.88148 4.57428,6.57387 9.80329,12.6965 15.46584,18.35905 2.42428,2.43313 4.93704,4.78663 7.51173,7.06934 0.31852,0.27428 2.89321,2.84013 3.14979,2.72511 1.61029,-0.76976 3.36214,-1.47757 5.22901,-2.13231 -25.72037,-22.42901 -35.74485,-46.60103 -36.05452,-47.35308 v 0 l 0.0708,0.12386 c 0.31852,0.58396 0.63704,1.16791 0.9821,1.7607 0.63704,1.04404 1.43333,2.43313 2.46852,4.12305 4.95473,7.92757 11.5286,16.45679 20.34979,25.33107 0.0265,0.0265 10.98004,10.82963 15.65165,14.94383 1.81378,-0.49548 3.7072,-0.90247 5.6714,-1.22099 -6.50309,-5.37943 -12.9177,-11.27202 -18.78375,-17.61584 -29.62222,-32.09959 -35.28477,-61.943009 -37.18704,-69.959058 z m 61.49177,43.424688 c 0,0 -0.009,0.0266 -0.0177,0.0708 -0.1858,0.75206 -1.64568,6.81276 -1.98189,9.75906 -0.0442,0.3893 -0.0708,0.75206 -0.0885,1.09712 -0.14157,2.41543 0.28313,3.78683 0.80514,5.38827 0.58395,1.82263 3.3356,9.62634 4.00803,11.74979 0.0885,0.26544 0.1858,0.60165 0.29197,0.9821 0.72552,2.69856 1.99959,7.93642 4.55659,10.69692 2.90294,3.12325 5.70679,4.53004 9.16625,5.69794 0,0 0.0177,0 0.0265,0.009 0.0177,0 0.0265,0.009 0.0354,0.009 1.7253,0.58396 3.36214,1.00865 5.09629,1.2033 1.72531,0.19465 3.54794,0.15041 5.64574,-0.2212 4.23718,-0.75206 9.08574,-5.09629 10.90838,-6.38806 1.82263,-1.29177 8.73271,-5.84836 10.2908,-6.95432 1.56516,-1.10597 2.87552,-2.02614 4.48492,-4.74239 1.61029,-2.7251 4.32654,-9.05124 4.32654,-9.05124 0,0 -2.61008,-0.51316 -3.47716,-0.61934 0,0 -0.009,0.0266 -0.0354,0.0708 -0.3893,0.68128 -3.5037,6.17572 -4.63533,7.32593 0,0 -0.0363,0 -0.0894,0.0177 -0.407,0.0708 -2.02613,0.3893 -2.83128,0.99094 -0.92901,0.68128 -4.29115,5.68025 -8.68847,7.56482 0.41584,-2.47737 -1.18472,-3.76029 -1.60145,-3.71605 -0.40699,0.0442 -0.72462,1.01749 -0.81399,1.26522 -0.0885,0.24774 -0.93786,1.91996 -1.22098,2.70741 -0.29198,0.78745 -0.20262,0.84939 -0.20262,0.84939 -0.7087,-0.0266 -1.41652,-0.0619 -2.11549,-0.11503 0.67243,-1.27407 1.27407,-2.5393 1.84033,-3.79568 0.36823,-0.9526 -0.50928,-1.23164 -0.67976,-1.27615 l -0.0281,-0.007 -0.009,-0.009 c -0.62819,-0.0973 -1.25549,-0.19465 -1.88368,-0.31852 v 0 h -0.0628 c -0.78745,-0.14157 -1.26434,0.35391 -1.36255,0.65473 -0.0796,0.19465 -0.15838,0.39815 -0.23889,0.5928 -0.29198,0.69012 -0.60165,1.38909 -0.90247,2.07922 -0.009,0.0442 -0.0177,0.0885 -0.0442,0.12386 -0.35391,0.87593 -0.0531,1.61029 -0.0531,1.61029 -0.23888,-0.0177 -0.82283,0 -1.81378,-0.19465 -0.46008,-0.0973 -1.07943,-0.3716 -1.07943,-0.3716 0.34507,-0.28313 0.55741,-0.82284 0.55741,-0.82284 0.62819,-1.53066 1.59259,-3.90185 1.59259,-3.90185 0,0 0.38046,-1.02634 -0.28312,-1.22099 -0.90247,-0.2212 -1.79609,-0.46893 -2.68971,-0.73436 -0.68128,-0.15042 -0.97326,0.40699 -1.04404,0.59279 -0.14156,0.35391 -0.38045,0.91132 -0.46893,1.15906 -0.34506,0.9821 -0.68127,1.95535 -1.01749,2.91975 0,0.0177 0,0.0265 -0.009,0.0442 -0.21234,0.61934 -0.0442,1.21214 -0.0442,1.21214 0,0 -0.86708,-0.17696 -1.31832,-0.30082 -0.46008,-0.11502 -1.1502,-0.60165 -1.1502,-0.60165 0.1159,-0.10617 0.24774,-0.42469 0.34506,-0.64588 0.407,-1.45103 0.80514,-3.26482 1.1502,-4.78663 0.0265,-0.21235 0.0354,-0.84054 -0.61049,-1.10597 -0.7609,-0.28312 -1.52181,-0.5751 -2.26502,-0.88477 -0.66358,-0.2035 -0.95556,0.34506 -1.06173,0.66358 -0.30082,1.3714 -0.64588,3.01708 -0.87592,4.21152 -0.0973,0.83169 0.28312,1.41564 0.28312,1.41564 -0.35302,-0.0796 -1.06172,-0.3893 -1.62798,-0.62819 -0.38045,-0.15926 -1.20329,-0.70782 -1.20329,-0.70782 0.42469,-0.0354 0.66358,-0.93786 0.66358,-0.93786 0.46893,-0.9821 0.78745,-1.83148 1.15905,-2.76049 0.009,-0.0442 0.0354,-0.0796 0.0442,-0.12387 0.009,-0.0265 0.0177,-0.0442 0.0354,-0.0885 0.36276,-0.9821 -0.31852,-1.50411 -0.43354,-1.58374 -0.99094,-0.49548 -2.10576,-1.07943 -2.11461,-1.07943 -0.56625,-0.30082 -0.93786,0.0973 -1.06173,0.48663 -0.3893,1.10597 -0.99979,2.11461 -1.21214,3.3356 -0.0973,0.69012 -0.0442,1.1679 -0.0442,1.1679 -1.34486,-0.63704 -1.84033,-1.65453 -1.84033,-1.65453 0.31852,-0.38045 0.75205,-1.743 0.7609,-3.00823 0.009,-1.27407 0.0885,-2.45967 -0.50432,-2.88436 -0.5928,-0.41585 -1.58374,0.64588 -2.09691,1.40679 -0.50432,0.75206 -0.61934,1.19444 -0.61934,1.19444 v 0 0.0973 c -2.38889,-4.15844 -2.05268,-10.1926 -2.38004,-11.29856 -0.32737,-1.10597 -1.72531,-2.57469 -1.72531,-2.57469 -0.0266,-0.21235 -0.0354,-0.50432 -0.0354,-0.85823 0.0354,-2.30926 0.67242,-7.09589 0.7609,-7.76832 0.009,-0.0531 0.009,-0.0796 0.009,-0.0796 -0.74321,-0.44238 -3.1498,-1.60144 -3.1498,-1.60144 z m 31.91379,-60.023042 c -20.40288,0.08848 -26.207,15.271194 -27.06523,18.748354 -0.91131,3.698354 -0.90247,8.387655 -1.11481,10.511108 0,0 3.91955,-0.557404 7.58251,-2.088063 1.98189,-0.813991 3.893,-1.866872 5.35376,-3.273662 -0.33709,0.3893 -5.84039,6.653495 -11.72413,7.317075 0,0 -1.29177,5.6714 -2.86667,8.53807 -1.5572,2.87551 -4.60967,4.83971 -4.60967,4.83971 0,0 -0.23004,2.25617 -0.23004,4.53004 0,0.91132 0.0265,1.83148 0.12387,2.60124 0.0531,0.3893 0.12387,0.74321 0.2035,1.04403 0.69897,2.40658 0.7786,3.9284 5.98991,6.21996 1.7784,0.7786 3.5391,1.61029 5.22902,2.56584 2.53045,1.43333 5.25555,3.12325 6.30843,5.99877 0.009,0.0265 0.009,0.0531 0.0274,0.0796 0.28224,0.72551 0.30879,1.62798 0.11414,2.37119 0,-0.0973 -0.0442,-0.22119 -0.10618,-0.35391 -0.22915,-0.45123 -0.62818,-0.7786 -0.88477,-1.20329 0,-0.009 -0.008,-0.0177 -0.0265,-0.0354 -0.56626,-0.64589 -1.17675,-1.23869 -1.89342,-1.72531 v 0 0.0265 l -0.0177,-0.0354 c 0,0 -0.54856,1.91996 -1.40679,3.3356 -0.48663,0.81399 -1.00865,1.71646 -1.55721,2.95514 0,0.0177 -0.009,0.0354 -0.0177,0.0531 -1.07058,2.77819 0.17695,5.71564 0.46893,5.73333 0.34506,0.0265 1.07942,-0.30967 2.46852,-4.21152 0.0354,-0.0885 0.10617,-0.27428 0.15041,-0.47778 0.0354,-0.1858 -0.0265,-0.52202 -0.10617,-0.7963 0,0 0.009,-0.0177 0.0177,-0.0442 0.16811,-0.63704 0.9821,-0.58395 1.49527,-0.52202 0.17695,0.0177 0.35391,0.0442 0.52202,0.0885 0.0796,0.0177 0.15129,0.0354 0.21234,0.0531 0.53087,0.18581 0.82373,0.54856 0.81399,0.74321 0,0 -0.28312,0.17696 -0.49547,0.50432 -0.2035,0.32737 -0.55741,1.16791 -0.65473,1.39795 -0.35391,0.87592 -0.60961,1.58374 -0.91132,2.45967 -0.0177,0.0265 -0.0177,0.0531 -0.0177,0.0796 -0.24981,0.74165 0.38208,1.05621 0.53422,1.11997 l 0.032,0.0125 c 0,0.009 0.0885,0.0354 0.0973,0.0354 0.68127,0.12387 1.41563,0.27428 2.17654,0.43354 0,0 1.01837,0.1858 1.36255,-0.72552 0.32737,-0.9644 0.61049,-1.7607 0.97325,-2.7251 0.0177,-0.0531 0.0442,-0.11502 0.0708,-0.16811 v 0 -0.009 l 0.0266,-0.0619 c 0,0 0.22119,-0.66358 0.3194,-1.06173 0.0876,-0.3716 0.47778,-1.00864 0.8308,-1.00864 0.37161,0 0.87593,0.17696 0.82284,0.92901 -0.0531,0.75206 -0.2035,1.24753 -0.23004,1.33601 -0.009,0.0354 -0.0177,0.0796 -0.0177,0.10617 -0.33621,1.1856 -1.01749,3.68066 -1.01749,3.68066 -0.32736,0.95556 0.71756,1.25638 0.71756,1.25638 0.63615,0.17696 1.5917,0.32737 2.26413,0.53087 0.0442,0.009 0.0796,0.0177 0.13272,0.0265 0,0 0.79629,0.25658 1.07942,0.15041 0.29198,-0.10617 0.47778,-0.54856 0.53087,-0.69012 0.0442,-0.14157 1.10596,-3.84877 1.22098,-4.24692 0.0805,-0.30082 0.0442,-0.90247 -0.11502,-1.24753 0.0531,0.009 1.01749,0.17696 1.55809,0.35391 0.45035,0.15926 1.052,0.39815 1.35282,0.62819 -0.46008,0.23004 -0.76091,0.99095 -0.78745,1.09712 -0.009,0.0177 -0.0177,0.0265 -0.0177,0.0354 -0.0708,0.24774 -0.15925,0.48663 -0.23004,0.72552 -0.33621,1.01749 -0.7786,2.3181 -1.12366,3.34444 -0.0531,0.27428 -0.10617,0.95556 0.69012,1.25638 v 0 l 0.12387,0.0442 c 0.66358,0.24773 1.505,0.54856 2.12346,0.79629 0,0 0.2035,0.0796 0.46008,0.0796 0.30967,0 0.69101,-0.11502 0.86708,-0.64588 0.15926,-0.48663 0.5229,-1.56605 0.84053,-2.54815 0.31056,-0.97325 0.5928,-1.85802 0.60165,-1.9642 0.009,-0.1858 0.23004,-0.53086 0.36276,-0.64588 0.36276,-0.0266 0.62819,0.0265 0.87592,0.15041 0.29198,0.14156 0.62819,0.50432 0.76091,0.63704 -0.19465,0.33621 -0.50432,1.19444 -0.58395,1.66337 -0.0619,0.39815 -0.53087,2.10576 -0.75206,2.90206 -0.0265,0.0619 -0.0442,0.15041 -0.0699,0.22119 -0.0186,0.0266 -0.01,0.0531 -0.0186,0.0885 -0.009,0.0265 -0.0177,0.0442 -0.009,0.0619 -0.12387,0.82284 0.67242,1.23869 0.67242,1.23869 0.70782,0.33621 1.3891,0.66358 2.00933,0.97325 0,0 0.0876,0.0354 0.0964,0.0354 0,0 0.84938,0.27428 1.13251,-0.56626 0.009,-0.0265 0.0265,-0.0531 0.0354,-0.0619 0.28401,-0.88477 0.5052,-1.61914 0.75205,-2.52161 0.0619,-0.24773 0.13272,-0.49547 0.19554,-0.74321 0.0168,-0.0265 0.0257,-0.0973 0.0354,-0.19465 0.0168,-0.0619 0.14068,-0.50432 0.17607,-0.7786 0.0265,-0.14156 0.0265,-0.27428 0.0177,-0.3716 0,0 0.46981,0.1858 1.01749,0.42469 0,0.009 1.07942,0.48663 1.29176,0.60165 0.18581,0.10617 0.48663,0.22119 0.60165,0.41584 0.26543,0.3716 0.33621,0.52202 0.33621,0.52202 v 0 l -0.76975,0.12386 c -0.14156,-0.009 -0.7786,0.2212 -0.7786,0.41585 -1.23868,3.96378 -0.85823,4.66276 -0.56537,4.84856 0.24685,0.15926 3.00735,-1.41564 3.83019,-4.28231 0,-0.0265 0.46008,-2.41543 0.55829,-3.36214 0.16722,-1.53065 0.80426,-3.27366 0.88477,-3.486 v 0 l -0.0186,0.009 c 0,-0.009 0.0186,-0.0265 0.0186,-0.0265 -2.80562,-0.13272 -4.37167,0.97325 -4.37167,0.97325 0.17696,-0.42469 0.43354,-0.78745 0.70782,-1.11481 0.0177,-0.0177 0.0266,-0.0177 0.0354,-0.0354 2.07038,-2.38889 5.83066,-2.29157 8.67079,-1.92881 2.22078,0.27428 4.42387,0.74321 6.60041,1.26522 5.55638,1.30947 6.53051,0.15042 8.52922,-1.3537 1.72619,-1.29177 3.1321,-3.28251 4.17613,-5.14053 0.0186,-0.0354 0.0442,-0.0619 0.0619,-0.0973 0.46008,-0.70782 0.7786,-1.22099 0.7786,-1.22099 0,0 -1.25638,-3.40638 -0.76975,-6.64465 0.49547,-3.22942 2.87551,-8.54691 2.87551,-8.54691 -4.42386,-4.19383 -4.93703,-12.91769 -4.93703,-12.91769 0.27428,1.76954 0.99094,3.53909 1.91996,5.20246 1.41652,2.557 3.3002,4.83972 4.69903,6.37037 1.19356,-1.93765 3.91866,-5.33518 5.29006,-8.77695 1.51296,-3.83107 7.32593,-23.871194 -19.04918,-36.558848 v 0 l -1.02545,-0.433539 c -0.56714,-0.27428 -1.1157,-0.522017 -1.63771,-0.760906 -0.53087,-0.238889 -1.03519,-0.451234 -1.51297,-0.637037 -0.36275,-0.150411 -0.70782,-0.283127 -1.03518,-0.406996 -0.25659,-0.09732 -0.49459,-0.185802 -0.71578,-0.27428 -0.78834,-0.291975 -1.44307,-0.50432 -1.92085,-0.654732 -0.0973,-0.03539 -0.1858,-0.06193 -0.28313,-0.09732 -0.97325,-0.309671 -4.69814,-1.433334 -9.3432,-2.397737 v 0 l -0.12387,-0.02654 c -0.82284,-0.168107 -1.67223,-0.336214 -2.54815,-0.486625 -2.43313,-0.345062 -4.69815,-0.495474 -6.81276,-0.495474 z m -1.59879,56.787432 c 0.3893,-1.16791 1.70762,-1.81467 3.00912,-1.48642 0.0796,0.0177 0.15837,0.0345 0.23004,0.0619 0.0858,0.0283 0.16722,0.0628 0.25039,0.0964 1.2201,0.53706 1.87307,1.83148 1.48288,3.00027 -0.48574,1.44129 -0.39815,2.65432 -0.30967,3.90185 0.0619,2.41543 1.1679,3.08874 0.67243,4.58401 v 0 l -0.49636,1.45988 c -0.28136,0.84938 -1.06084,1.37936 -1.95446,1.51296 -0.41673,0.0531 -0.85912,0.0531 -1.30151,-0.0885 -1.36963,-0.46008 -2.14026,-1.85891 -1.71557,-3.10555 0.0708,-0.21235 -0.054,-0.44239 -0.27517,-0.5229 -0.22119,-0.0699 -0.45035,0.0442 -0.52113,0.24862 -0.41496,1.25638 -1.87572,1.90226 -3.25597,1.44218 -0.44238,-0.15041 -0.79629,-0.41584 -1.09711,-0.72551 -0.62023,-0.64589 -0.92105,-1.53066 -0.63704,-2.37208 v 0 l 0.49547,-1.45899 c 0.49459,-1.49616 1.78724,-1.36344 3.30021,-3.25686 0.81399,-0.93786 1.63683,-1.84033 2.12345,-3.29135 z m 11.18443,-7.54801 c 0,0 0.0345,0.0442 0.0531,0.0708 0.13272,0.19465 0.75118,1.05377 1.69877,1.9642 v 0 c 0.16811,0.16811 0.34418,0.32737 0.53086,0.48751 0.009,0.008 0.0257,0.0168 0.0345,0.0345 0.69101,0.5751 1.505,1.10596 2.44375,1.41652 2.85605,0.9644 7.02421,0.28224 11.49232,-0.53175 0.39019,-0.061 0.76975,-0.11413 1.15109,-0.15926 4.00803,-0.45919 7.53031,0.42558 7.53031,0.42558 v 0 l 0.008,0.0257 -0.0787,-0.008 c -0.11591,0.0168 -0.23004,0.0354 -0.3548,0.0531 -1.13162,0.39726 -1.71557,3.07901 -1.71557,3.07901 -0.2212,0.80515 -0.49636,1.59171 -0.82461,2.36235 -0.75206,1.73327 -1.79521,3.42407 -3.11352,4.79636 -0.99095,1.03518 -2.07922,1.54835 -3.29136,2.22963 -0.01,-0.009 -0.01,-0.009 -0.01,-0.009 -0.0168,0 -0.69897,0.21234 -1.06084,0.2557 -2.74457,0.3371 -8.51241,-0.54768 -11.28087,-2.44198 -0.0274,-0.009 -0.0451,-0.0177 -0.0619,-0.0257 v 0 c -2.77908,-1.65541 -3.33737,-7.98154 -3.34622,-9.61925 -0.008,-1.62799 0.18581,-4.36194 0.19554,-4.40618 z m -32.76494,-15.64368 c 0.20261,0.0796 3.41434,1.48642 6.24562,4.18498 0.28401,0.26632 0.55829,0.54059 0.82461,0.82284 3.07724,3.34533 5.98991,6.40664 8.84773,7.3622 0.92902,0.30967 1.91023,0.38045 2.80474,0.3371 0.009,0 0.0257,0 0.0451,-0.01 0.24685,-0.009 0.48574,-0.0266 0.7149,-0.0531 v 0 c 1.46872,-0.1858 2.63751,-0.5751 2.63751,-0.5751 0,0 -1.52093,2.32784 -2.51276,3.62757 -0.99891,1.30946 -5.24848,6.01734 -8.45047,5.66343 -0.0257,0 -0.0531,-0.0177 -0.0796,-0.0177 -3.35418,-0.16811 -8.49383,-2.93833 -10.47661,-4.85829 -0.26455,-0.26543 -0.67154,-0.84054 -0.68039,-0.84054 -0.0619,0.0531 -0.12475,0.0973 -0.19553,0.14157 0.0708,-0.0442 0.1336,-0.0973 0.19553,-0.15042 0.0354,-0.0354 -0.63792,-1.20329 -0.68216,-1.29176 -1.06173,-2.56585 -0.81399,-5.75988 -0.15041,-8.33457 0.19465,-0.75206 0.42558,-1.49527 0.71755,-2.22079 0,0 1.15021,-2.48709 0.48663,-3.48689 -0.0796,-0.0885 -0.169,-0.17695 -0.24774,-0.25658 v 0 l -0.0177,-0.009 c 0,-0.008 -0.01,-0.0168 -0.0265,-0.0354 z"
       id="path14"
       inkscape:connector-curvature="0"
       style="fill:#0a0b09" />
  </g>
</svg>
