<?xml version="1.0" encoding="UTF-8" standalone="no"?>
<svg
   xmlns:dc="http://purl.org/dc/elements/1.1/"
   xmlns:cc="http://creativecommons.org/ns#"
   xmlns:rdf="http://www.w3.org/1999/02/22-rdf-syntax-ns#"
   xmlns:svg="http://www.w3.org/2000/svg"
   xmlns="http://www.w3.org/2000/svg"
   xmlns:sodipodi="http://sodipodi.sourceforge.net/DTD/sodipodi-0.dtd"
   xmlns:inkscape="http://www.inkscape.org/namespaces/inkscape"
   viewBox="0 0 500 500"
   version="1.1"
   id="svg24"
   sodipodi:docname="tampa-bay-buccaneers-logo.svg"
   inkscape:export-filename="C:\Users\suitedoalex\sites\tampa-bay-buccaneers-logo-0.png"
   inkscape:export-xdpi="786.43201"
   inkscape:export-ydpi="786.43201"
   inkscape:version="0.92.4 (5da689c313, 2019-01-14)">
  <metadata
     id="metadata30">
    <rdf:RDF>
      <cc:Work
         rdf:about="">
        <dc:format>image/svg+xml</dc:format>
        <dc:type
           rdf:resource="http://purl.org/dc/dcmitype/StillImage" />
        <dc:title></dc:title>
      </cc:Work>
    </rdf:RDF>
  </metadata>
  <defs
     id="defs28" />
  <sodipodi:namedview
     pagecolor="#ffffff"
     bordercolor="#666666"
     borderopacity="1"
     objecttolerance="10"
     gridtolerance="10"
     guidetolerance="10"
     inkscape:pageopacity="0"
     inkscape:pageshadow="2"
     inkscape:window-width="1600"
     inkscape:window-height="837"
     id="namedview26"
     showgrid="false"
     inkscape:zoom="0.472"
     inkscape:cx="-35.046393"
     inkscape:cy="381.10422"
     inkscape:window-x="-8"
     inkscape:window-y="-8"
     inkscape:window-maximized="1"
     inkscape:current-layer="svg24" />
  <g
     id="g22"
     transform="translate(-57.20339,-67.79661)"
     style="fill:none;fill-rule:evenodd"
     inkscape:export-filename="C:\Users\suitedoalex\sites\tampa-bay-buccaneers-logo-4.png"
     inkscape:export-xdpi="114.09315"
     inkscape:export-ydpi="114.09315" />
  <g
     style="fill:none;fill-rule:evenodd"
     transform="matrix(0.78310128,0,0,0.78310128,81.716469,100.33987)"
     id="g20"
     inkscape:export-filename="C:\Users\suitedoalex\sites\tampa-bay-buccaneers-logo-4.png"
     inkscape:export-xdpi="114.09315"
     inkscape:export-ydpi="114.09315">
    <path
       d="m 262.23718,331.71138 c 0,0.0177 -0.009,0.0354 -0.0177,0.0531 -1.05377,2.63663 -2.06153,7.16579 -1.64657,10.46776 0.0885,0.71578 0.23093,1.3714 0.39903,2.00755 v 0.01 c -2.48709,11.42242 -7.30026,11.60823 -8.57434,11.44012 -0.2035,-0.0274 -0.31852,-0.0628 -0.31852,-0.0628 4.75035,-4.21064 4.59994,-11.83739 9.44939,-22.43786 0.22119,-0.48663 0.46981,-0.9821 0.7087,-1.47757 z m 10.98004,-18.97043 c -0.0743,0.61137 -0.29374,3.92751 0.82284,7.21975 -0.009,0.008 -6.1421,8.02667 -11.59053,20.02331 0.0867,-0.2265 0.0398,-0.1159 0.007,-0.0319 -0.004,0.008 -0.006,0.015 -0.009,0.023 -0.88212,-3.68862 -0.0779,-8.44074 -0.0602,-8.57345 0.12299,-0.24774 3.42319,-6.61811 5.10515,-9.46885 1.75185,-2.97195 3.59218,-5.89171 5.45993,-8.79377 0.0885,-0.13271 0.17607,-0.26543 0.26455,-0.39814 z m 55.64342,-60.23893 c -4.04342,6.13148 -35.87934,51.67343 -38.0727,54.62858 -0.17784,-0.14157 -5.64574,-4.82202 -5.8395,-4.99013 8.11426,-11.27201 31.05555,-45.51541 31.51563,-46.21438 4.07085,-0.99095 8.09745,-2.07037 12.05151,-3.30905 0.1159,-0.0354 0.23181,-0.0708 0.34506,-0.11502 z m -52.71836,-33.16663 c 0,0 1.78194,1.42891 1.93058,1.54128 0.67774,0.51316 2.13053,1.85714 2.79942,2.51452 0.55122,0.54414 1.10243,1.08827 1.64745,1.6386 0.4008,0.40611 2.05887,1.97039 2.6207,2.38889 0.42558,0.31675 0.85735,0.59634 1.30504,0.81576 0.40965,0.20085 0.83434,0.35922 1.28381,0.46805 v 0 l -0.0416,0.0301 c -0.92282,0.69189 -2.00756,1.14578 -3.17457,1.14578 -0.40081,0 -0.83523,-0.0593 -1.22364,-0.15306 -0.54414,-0.13272 -1.06527,-0.33091 -1.5634,-0.58749 -0.31409,-0.16369 -0.622,-0.33887 -0.91751,-0.53706 -0.18138,-0.12121 -0.36453,-0.25305 -0.55121,-0.39372 -0.004,-0.005 -0.0106,-0.0195 -0.0142,-0.023 0.0522,-0.23977 0.0938,-0.49547 0.1106,-0.78214 0.0628,-1.03872 -0.15218,-2.2314 -0.5406,-3.19315 -0.64854,-1.70053 -3.60634,-4.81936 -3.67093,-4.87333 z m -10.7031,-6.65438 c 0.14687,0.0832 0.28666,0.15572 0.43884,0.24154 0.72021,0.40523 1.44307,0.80603 2.15797,1.21745 1.50765,0.86973 2.99584,1.7722 4.46014,2.71272 1.0458,0.67154 2.08276,1.36078 3.09229,2.08541 0.12917,0.0956 0.25746,0.19022 0.38487,0.28489 0.98652,1.09801 1.99251,2.50922 2.45879,3.81957 0.54944,1.51031 0.58749,2.90648 0.39107,3.92928 -3.20731,-3.08609 -9.95105,-8.04259 -11.84889,-9.02557 0.18492,-2.26679 -0.75206,-4.12836 -1.53508,-5.26529 z m -53.86149,-26.44146 c 1.02369,0.13183 2.02348,0.28224 3.00204,0.44681 -0.55652,0.76267 -1.08827,1.54835 -1.59348,2.35438 1.08474,0.1973 2.18363,0.42204 3.2949,0.67243 0.45301,-0.82903 0.92459,-1.64214 1.41122,-2.43401 0.93343,0.20084 1.85271,0.41672 2.75607,0.64765 -0.41496,0.82019 -0.82107,1.65984 -1.21834,2.51276 1.0343,0.27605 2.0748,0.57687 3.12148,0.90335 0.32914,-0.87681 0.66005,-1.74212 0.99007,-2.5915 0.87769,0.27251 1.74831,0.5636 2.61273,0.87504 -0.25039,0.87681 -0.50786,1.76512 -0.77417,2.66317 1.03164,0.36718 2.04205,0.75294 3.03477,1.15197 0.19642,-0.91574 0.3778,-1.82528 0.5406,-2.7251 0.8653,0.35922 1.72442,0.73967 2.59238,1.14578 -0.0894,0.91663 -0.20261,1.84033 -0.33887,2.76581 1.03519,0.46273 2.0456,0.93963 3.02947,1.42802 0.0787,-0.93167 0.12741,-1.86333 0.14333,-2.79058 0.88301,0.45832 1.76955,0.94317 2.66583,1.45457 0.0416,0.93521 0.0442,1.86953 0.005,2.8012 0.54149,0.29551 1.07147,0.59279 1.59348,0.89273 0.005,0.14599 0.007,0.29198 0.0106,0.43885 0.0186,0.82195 0.008,1.64922 -0.0292,2.48091 -0.0106,0.23888 -0.023,0.47954 -0.0363,0.71932 -0.62642,-0.31764 -1.25992,-0.63439 -1.90492,-0.9476 -0.23801,1.4413 -0.58926,2.86402 -1.06969,4.2593 -0.95202,-0.55298 -1.92527,-1.08384 -2.90472,-1.59347 0.43089,-1.3369 0.76887,-2.68971 1.02634,-4.05138 -1.04845,-0.47601 -2.11992,-0.94317 -3.21261,-1.39971 -0.28844,1.29265 -0.63438,2.58442 -1.03873,3.87088 -1.00333,-0.46362 -2.01728,-0.90866 -3.03654,-1.32627 0.39815,-1.25107 0.75914,-2.50126 1.08739,-3.74525 -1.06969,-0.41231 -2.15708,-0.81311 -3.26216,-1.20064 -0.37692,1.20772 -0.7671,2.42782 -1.17144,3.655 -1.03961,-0.37337 -2.08011,-0.72463 -3.13299,-1.05111 0.41673,-1.22276 0.84054,-2.43047 1.26877,-3.62049 -1.11482,-0.3548 -2.22432,-0.68836 -3.32763,-1.00245 -0.48751,1.18825 -0.95379,2.3995 -1.3891,3.63553 -1.06261,-0.28401 -2.14115,-0.54059 -3.21881,-0.77771 0.44858,-1.26258 0.95114,-2.4933 1.49616,-3.69393 -1.14932,-0.29109 -2.28891,-0.56184 -3.41434,-0.81046 -0.6105,1.23338 -1.1511,2.50745 -1.60941,3.824 -1.08827,-0.18846 -2.18539,-0.34772 -3.28162,-0.48398 0.453,-1.38644 1.02633,-2.71979 1.69611,-3.99917 -0.70782,-0.13537 -1.40945,-0.26278 -2.10222,-0.38311 0.15041,-0.22739 0.30347,-0.453 0.45831,-0.67685 0.47866,-0.69278 0.9759,-1.36432 1.4935,-2.01286 0.0602,-0.0761 0.11856,-0.15395 0.18049,-0.22827 0.60076,0.0708 1.2086,0.15041 1.82263,0.238 0.54325,-0.78745 1.1219,-1.55189 1.73327,-2.29156 z m 133.39556,-33.48072 c -0.16545,0.38576 -6.72516,15.45345 -34.00981,27.28996 -1.21303,0.52644 -2.45083,1.05022 -3.74791,1.56162 -5.54664,2.0863 -17.22565,6.03327 -32.67115,8.82208 -6.24384,1.1272 -12.56113,1.89607 -18.88107,2.42693 -0.50609,0.0416 -4.16994,0.31056 -4.16994,0.31056 -1.14932,-1.47315 -2.40923,-2.92506 -3.78771,-4.35132 8.37438,-0.36983 16.97261,-1.20064 25.41158,-2.71714 34.8185,-6.25712 56.20171,-20.81872 66.45447,-28.91529 0.93697,-0.74144 1.76247,-1.41298 2.51629,-2.03409 1.75893,-1.42537 2.85251,-2.32784 2.88525,-2.39331 z m -180.362,29.45942 c 0.31056,-0.002 0.9299,0.0106 0.88301,0.0159 -1.62268,0.0894 -4.19029,0.68481 -5.82535,1.66691 -0.009,0.004 -0.0177,0.0124 -0.0274,0.0186 -0.9352,0.54502 -1.93323,1.46076 -2.44197,2.42251 -0.0336,0.0628 -0.21943,0.41319 -0.26986,0.46982 -5.3228,0 -6.27482,-4.03015 -6.29428,-4.1027 0.43973,0.18757 0.88654,0.31675 1.34663,0.40346 v 0 l 0.36617,0.0592 c 0.3694,0.0496 0.74864,0.0713 1.13883,0.0727 1.63506,0.015 3.33205,-0.29375 5.09983,-0.53971 1.99517,-0.27871 4.00891,-0.4769 6.02442,-0.48663 z m 1.12632,0.0133 c 0.6972,0.0142 1.39352,0.0354 2.08984,0.0699 1.09889,0.0531 2.19689,0.13183 3.29312,0.23004 2.20663,0.1973 4.77513,0.49017 6.96406,0.837 -1.31389,0.43619 -3.12502,1.29619 -4.34513,3.22588 -0.0168,0.0168 -0.0345,0.0345 -0.0478,0.0504 -2.1155,-0.36541 -10.48369,-0.47512 -14.90048,0.0469 0.4592,-0.93256 1.3307,-2.02348 2.67821,-2.89852 1.16171,-0.76268 2.82155,-1.28204 4.26815,-1.56163 z M 150.78932,87.592593 c 1.90492,8.016049 7.56482,37.861237 37.19412,69.958167 5.86162,6.35002 12.27269,12.23907 18.77932,17.62027 -1.9642,0.31852 -3.86204,0.72817 -5.66963,1.22187 -4.55309,-4.01307 -15.08379,-14.38812 -15.63373,-14.92815 l -0.0223,-0.0219 c -8.815,-8.87428 -15.39595,-17.40084 -20.34714,-25.32842 -1.03165,-1.68814 -1.83325,-3.07901 -2.47295,-4.1195 v 0 l -0.98032,-1.76247 C 147.97043,105.20136 150.78932,87.592593 150.78932,87.592593 Z m 59.40459,54.355187 c 1.38555,-1.15994 4.50527,-0.61934 4.50527,-0.61934 0,0 1.39971,1.47137 1.72973,2.57203 0.32117,1.10774 -0.0106,7.14367 2.37385,11.29679 v 0 -0.0982 c 0,0 0.11767,-0.43884 0.62376,-1.19267 0.51052,-0.75471 1.50235,-1.82352 2.09692,-1.40148 0.59456,0.42115 0.51493,1.60763 0.50078,2.87905 -0.01,1.27054 -0.43885,2.62866 -0.76002,3.01354 0,0 0.49459,1.01307 1.84033,1.65453 0,0 -0.0566,-0.48398 0.0416,-1.1741 0.21235,-1.21833 0.82461,-2.22343 1.21656,-3.33117 0.11945,-0.38753 0.49813,-0.78657 1.06262,-0.48397 0.0106,0 1.12366,0.58041 2.11018,1.07323 0.11414,0.0832 0.79984,0.60607 0.43354,1.58994 -0.0168,0.0363 -0.0204,0.0566 -0.031,0.084 -0.0142,0.0451 -0.0345,0.0832 -0.0487,0.12829 -0.36983,0.92813 -0.68393,1.77663 -1.15728,2.75607 0,0 -0.24243,0.90424 -0.66712,0.94229 0,0 0.82903,0.54413 1.20241,0.70162 0.57068,0.24154 1.28115,0.54768 1.63152,0.63438 0,0 -0.37868,-0.58572 -0.28313,-1.42271 0.22739,-1.19268 0.58041,-2.83393 0.88124,-4.20798 0.10351,-0.32295 0.39372,-0.86885 1.0573,-0.66005 0.74675,0.3079 1.50677,0.59988 2.26768,0.8777 0.6388,0.26808 0.63349,0.89893 0.60783,1.11127 -0.3486,1.51739 -0.73967,3.3356 -1.15462,4.78751 -0.0947,0.2212 -0.22739,0.53175 -0.33799,0.64589 0,0 0.68393,0.48043 1.14401,0.60165 0.45566,0.11944 1.32363,0.29551 1.32363,0.29551 0,0 -0.16634,-0.58749 0.0442,-1.21302 0.004,-0.0124 0.004,-0.023 0.004,-0.038 0.33887,-0.96971 0.67951,-1.94296 1.02369,-2.92152 0.0823,-0.25039 0.32471,-0.80338 0.46273,-1.1626 0.0743,-0.18137 0.36984,-0.7379 1.04669,-0.59456 0.89274,0.26808 1.7899,0.51494 2.69148,0.73967 0.66712,0.1973 0.2849,1.2201 0.2849,1.2201 0,0 -0.96706,2.3765 -1.59259,3.90716 v 0 c -0.007,-0.003 -0.21766,0.53617 -0.5636,0.8193 0,0 0.62111,0.27517 1.08738,0.36807 0.9821,0.19376 1.56605,0.17518 1.81202,0.19199 0,0 -0.30259,-0.73259 0.0531,-1.60852 0.0212,-0.0363 0.031,-0.0814 0.0451,-0.12121 0.29905,-0.69278 0.61049,-1.38556 0.89716,-2.08099 0.084,-0.19642 0.15837,-0.39372 0.23623,-0.5928 0.10087,-0.30082 0.57776,-0.79275 1.36344,-0.65296 0.0265,0.002 0.0434,-0.002 0.0681,0.002 0.62642,0.11768 1.25284,0.22296 1.88014,0.3194 v 0 c 0.006,0.007 1.12809,0.23712 0.71844,1.28823 -0.56714,1.25904 -1.1679,2.52249 -1.8421,3.79303 0.69985,0.0549 1.40679,0.0947 2.11372,0.11414 0,0 -0.0885,-0.0628 0.20173,-0.8485 0.29021,-0.7848 1.14047,-2.4579 1.22541,-2.70652 0.0849,-0.24509 0.40965,-1.21657 0.81753,-1.26523 0.41142,-0.0434 2.01287,1.23957 1.59614,3.71428 4.40174,-1.88015 7.763,-6.88177 8.68759,-7.56305 0.80868,-0.59633 2.42428,-0.91928 2.83039,-0.9936 0.67951,0.39107 2.65255,1.62799 2.98788,3.08521 0,0 -3.31613,3.05158 -7.39936,4.85033 -4.08854,1.79963 -10.27222,5.69794 -12.70889,7.32238 -0.92282,0.61404 -2.17743,1.14402 -3.76294,1.43599 -0.98918,-1.76424 -4.42918,-3.94167 -8.83801,-5.42278 -4.60878,-1.54835 -8.84066,-1.8474 -10.56685,-0.88831 -1.25815,-1.28911 -2.02613,-2.57646 -2.41986,-3.71162 -0.95909,-2.76404 -3.54617,-9.60688 -5.71652,-13.5043 -2.17389,-3.90009 -2.97903,-8.33457 -2.97903,-8.33457 z m 13.353,-50.743541 c 0.0885,-4.591976 4.94589,-23.490741 30.1354,-19.199589 4.64506,0.964403 8.36995,2.088066 9.3432,2.397737 0.0973,0.03539 0.18581,0.06193 0.28313,0.09732 0.47778,0.150412 1.13251,0.362757 1.92085,0.654732 0.22915,0.08848 0.46804,0.176955 0.71578,0.27428 0.32736,0.123869 0.67243,0.256585 1.03518,0.406996 0.47778,0.19465 0.9821,0.406996 1.51297,0.637037 0.52201,0.238889 1.07057,0.486626 1.63771,0.760906 1.22895,0.592798 2.53842,1.291769 3.85673,2.088065 0.13272,0.07078 0.26543,0.150412 0.3893,0.230042 0.0442,0.01769 0.0796,0.04424 0.11502,0.07078 10.25453,6.237655 13.06811,13.855556 13.06811,20.155144 0,5.538681 -2.17655,10.068721 -3.37099,11.740941 -1.68107,2.3358 -3.19403,3.93724 -3.97263,5.11399 -0.92902,-1.66337 -1.64568,-3.43292 -1.91996,-5.20246 l 1.7e-4,0.006 0.002,0.0205 c 0.0349,0.52248 0.6337,8.55783 4.7243,12.6845 l 0.21102,0.20641 c 0,0 -2.38004,5.31749 -2.87551,8.54691 -0.48663,3.23827 0.76975,6.64465 0.76975,6.64465 0,0 -0.31852,0.51317 -0.7786,1.22099 -2.51187,2.96399 -6.91008,5.52984 -9.27243,5.0963 -2.68086,-0.49548 -9.13971,-2.68971 -12.8823,-1.91996 -3.07016,0.63704 -4.91934,2.37119 -5.93683,4.12304 0,0 0.009,-0.009 0.0177,-0.009 -0.27428,0.32736 -0.53086,0.69012 -0.70782,1.11481 0,0 -0.79629,1.3891 -1.01748,3.24712 -0.54768,-0.23889 -1.01749,-0.42469 -1.01749,-0.42469 0.009,0.0973 0.009,0.23004 -0.0177,0.3716 -0.0354,0.27428 -0.15926,0.71667 -0.17607,0.7786 -0.01,0.0973 -0.0186,0.16811 -0.0354,0.19465 -0.0628,0.24774 -0.1336,0.49548 -0.19554,0.74321 -0.24685,0.90247 -0.46804,1.63684 -0.75205,2.52161 -0.009,0.009 -0.0266,0.0354 -0.0354,0.0619 -0.28313,0.84054 -1.13251,0.56626 -1.13251,0.56626 -0.009,0 -0.0964,-0.0354 -0.0964,-0.0354 -0.62023,-0.30967 -1.30151,-0.63704 -2.00933,-0.97325 0,0 -0.79629,-0.41585 -0.67242,-1.23869 -0.009,-0.0177 0,-0.0354 0.009,-0.0619 0.009,-0.0354 0,-0.0619 0.0186,-0.0885 0.0257,-0.0708 0.0434,-0.15926 0.0699,-0.22119 0.22119,-0.7963 0.69012,-2.50391 0.75206,-2.90206 0.0796,-0.46893 0.3893,-1.32716 0.58395,-1.66337 -0.13272,-0.13272 -0.46893,-0.49548 -0.76091,-0.63704 -0.24773,-0.12387 -0.51316,-0.17696 -0.87592,-0.15041 -0.13272,0.11502 -0.35391,0.46008 -0.36276,0.64588 -0.009,0.10618 -0.29109,0.99095 -0.60165,1.9642 -0.31763,0.9821 -0.68127,2.06152 -0.84053,2.54815 -0.17607,0.53086 -0.55741,0.64588 -0.86708,0.64588 -0.19244,0 -0.35501,-0.0448 -0.42427,-0.0672 l -0.0358,-0.0125 c -0.61846,-0.24773 -1.45988,-0.54856 -2.12346,-0.79629 -0.0434,-0.009 -0.0796,-0.0354 -0.12387,-0.0442 -0.79629,-0.30082 -0.74321,-0.9821 -0.69012,-1.25638 0.34506,-1.02634 0.78745,-2.32695 1.12366,-3.34444 0.0708,-0.23889 0.15926,-0.47778 0.23004,-0.72552 0,-0.009 0.009,-0.0177 0.0177,-0.0354 0.0265,-0.10617 0.32737,-0.86708 0.78745,-1.09712 -0.30082,-0.23004 -0.90247,-0.46893 -1.35282,-0.62819 -0.5406,-0.17695 -1.505,-0.34506 -1.55809,-0.35391 0.15926,0.34506 0.19554,0.94671 0.11502,1.24753 -0.11502,0.39815 -1.17675,4.10535 -1.22098,4.24692 -0.0531,0.14156 -0.23889,0.58395 -0.53087,0.69012 -0.28313,0.10617 -1.07942,-0.15041 -1.07942,-0.15041 -0.0531,-0.009 -0.0885,-0.0177 -0.13272,-0.0265 -0.67243,-0.2035 -1.62798,-0.35391 -2.26413,-0.53087 0,0 -1.04492,-0.30082 -0.71756,-1.25638 0,0 0.68128,-2.49506 1.01749,-3.68066 0,-0.0265 0.009,-0.0708 0.0177,-0.10617 0.0265,-0.0885 0.17695,-0.58395 0.23004,-1.33601 0.0531,-0.75205 -0.45123,-0.92901 -0.82284,-0.92901 -0.35302,0 -0.74321,0.63704 -0.8308,1.00864 -0.0982,0.39815 -0.3194,1.06173 -0.3194,1.06173 v 0 l -0.0266,0.0619 c -0.0265,0.0619 -0.0531,0.12386 -0.0708,0.17695 -0.36276,0.9644 -0.64588,1.7607 -0.97325,2.7251 -0.30795,0.81539 -1.15563,0.75248 -1.33067,0.7302 l -0.0319,-0.005 c -0.76091,-0.15926 -1.49527,-0.30967 -2.17654,-0.43354 -0.009,0 -0.0973,-0.0265 -0.0973,-0.0354 0,0 -0.84938,-0.29198 -0.56626,-1.13251 0,-0.0266 0,-0.0531 0.0177,-0.0796 0.30171,-0.87593 0.55741,-1.58375 0.91132,-2.45967 0.0973,-0.23004 0.45123,-1.07058 0.65473,-1.39795 0.21235,-0.32736 0.49547,-0.50432 0.49547,-0.50432 0.01,-0.19465 -0.28312,-0.5574 -0.81399,-0.74321 -0.061,-0.0177 -0.13271,-0.0354 -0.21234,-0.0531 0.30967,-0.76976 0.69897,-1.83148 0.88477,-2.72511 0.58395,-2.16769 0.51317,-5.22016 -1.99959,-8.09567 -2.5216,-2.87552 -9.00699,-5.01667 -11.43128,-6.23766 -2.43312,-1.22099 -4.61851,-7.08704 -4.32654,-11.1393 0,0 3.05247,-1.9642 4.60967,-4.83971 1.5749,-2.86667 2.86667,-8.53807 2.86667,-8.53807 5.88374,-0.66358 11.38704,-6.927771 11.72413,-7.317071 -1.46076,1.40679 -3.37187,2.459671 -5.35376,3.273662 0.10617,-1.344856 -0.11502,-3.609876 -0.0531,-6.963168 z"
       id="path10"
       inkscape:connector-curvature="0"
       style="fill:#ffffff" />
    </g>
</svg>
