<?xml version="1.0" encoding="UTF-8" standalone="no"?>
<svg
   xmlns:dc="http://purl.org/dc/elements/1.1/"
   xmlns:cc="http://creativecommons.org/ns#"
   xmlns:rdf="http://www.w3.org/1999/02/22-rdf-syntax-ns#"
   xmlns:svg="http://www.w3.org/2000/svg"
   xmlns="http://www.w3.org/2000/svg"
   xmlns:sodipodi="http://sodipodi.sourceforge.net/DTD/sodipodi-0.dtd"
   xmlns:inkscape="http://www.inkscape.org/namespaces/inkscape"
   viewBox="0 0 500 500"
   version="1.1"
   id="svg24"
   sodipodi:docname="tampa-bay-buccaneers-logo.svg"
   inkscape:export-filename="C:\Users\suitedoalex\sites\tampa-bay-buccaneers-logo-0.png"
   inkscape:export-xdpi="786.43201"
   inkscape:export-ydpi="786.43201"
   inkscape:version="0.92.4 (5da689c313, 2019-01-14)">
  <metadata
     id="metadata30">
    <rdf:RDF>
      <cc:Work
         rdf:about="">
        <dc:format>image/svg+xml</dc:format>
        <dc:type
           rdf:resource="http://purl.org/dc/dcmitype/StillImage" />
        <dc:title></dc:title>
      </cc:Work>
    </rdf:RDF>
  </metadata>
  <defs
     id="defs28" />
  <sodipodi:namedview
     pagecolor="#ffffff"
     bordercolor="#666666"
     borderopacity="1"
     objecttolerance="10"
     gridtolerance="10"
     guidetolerance="10"
     inkscape:pageopacity="0"
     inkscape:pageshadow="2"
     inkscape:window-width="1600"
     inkscape:window-height="837"
     id="namedview26"
     showgrid="false"
     inkscape:zoom="0.472"
     inkscape:cx="-35.046393"
     inkscape:cy="381.10422"
     inkscape:window-x="-8"
     inkscape:window-y="-8"
     inkscape:window-maximized="1"
     inkscape:current-layer="svg24" />
  <g
     id="g22"
     transform="translate(-57.20339,-67.79661)"
     style="fill:none;fill-rule:evenodd"
     inkscape:export-filename="C:\Users\suitedoalex\sites\tampa-bay-buccaneers-logo-4.png"
     inkscape:export-xdpi="114.09315"
     inkscape:export-ydpi="114.09315" />
  <g
     style="fill:none;fill-rule:evenodd"
     transform="matrix(0.78310128,0,0,0.78310128,81.716469,100.33987)"
     id="g20"
     inkscape:export-filename="C:\Users\suitedoalex\sites\tampa-bay-buccaneers-logo-4.png"
     inkscape:export-xdpi="114.09315"
     inkscape:export-ydpi="114.09315">
    <path
       d="m 331.43621,279.88222 c -9.7502,14.74918 -19.02263,28.34815 -26.56975,39.25741 8.73272,7.21975 8.2107,16.31523 8.2107,18.04053 -0.16811,9.67147 -5.31749,16.89033 -10.03333,21.1107 -5.86605,4.99897 -13.8821,7.42325 -22.34054,7.48519 -0.24773,0 -6.29959,-0.1858 -8.3788,-0.66358 -0.89363,1.30946 -2.61893,2.90206 -5.42367,4.04341 -0.30878,0.88478 -0.73436,1.76955 -1.29177,2.61009 -2.30926,3.46831 -6.14033,5.39712 -10.04218,5.39712 0,0 -3.95494,-0.11502 -6.68889,-1.99871 -3.5037,-2.31014 -5.43251,-6.15006 -5.43251,-10.06076 v -0.10617 c 0.009,-1.86687 0.46009,-3.76029 1.36255,-5.47675 -0.40699,-0.9644 -1.83148,-6.72428 -1.83148,-6.72428 l 3.7249,-3.28251 c 0.30082,-0.17696 1.22099,-1.56605 2.25617,-5.11399 1.09712,-3.45947 2.40659,-8.6 5.14939,-14.58992 3.49485,-7.60905 8.34341,-15.48354 11.88251,-20.93374 -0.34507,-1.74301 -2.17655,-2.54815 -3.49486,-2.86667 -1.47757,-0.39815 -3.30021,-1.25638 -4.75035,-2.9463 -1.5227,-1.76955 -2.68971,-4.26461 -2.03586,-7.48518 0.64588,-3.17634 2.63662,-5.4679 4.96358,-6.53848 v -0.009 c 2.63662,-1.3714 5.89259,-0.71666 5.89259,-0.71666 7.75946,0.71666 13.4928,7.91872 13.4928,7.91872 7.72407,-10.77654 25.69382,-37.50556 26.07428,-38.08951 -23.55268,4.5035 -47.88395,5.11399 -68.09218,1.7607 -36.74465,-6.09609 -65.01317,-25.65843 -83.2749,-34.57695 -18.26173,-8.90967 -53.05103,-18.04054 -88.937449,-8.90967 -35.877573,9.13086 -59.5718112,42.18601 -59.5718112,42.18601 10.7146092,-75.48889 57.4748972,-88.21194 61.9606992,-89.48601 6.812758,-6.37922 15.748972,-25.84424 -5.414814,-38.97428 -7.228601,-4.4858 -13.298149,-10.16605 -13.298149,-10.16605 4.432716,0.52201 14.828807,-0.84938 20.597531,-3.1321 6.927778,-2.73395 13.298148,-3.64527 13.298148,-3.64527 -5.467901,-5.21132 -13.820164,-7.8214 -13.820164,-7.8214 8.343415,-0.52201 21.384979,-3.38868 29.462963,-7.042796 8.077986,-3.645267 12.510696,-10.166049 11.201236,-13.032716 -1.30062,-2.875514 -8.6,-1.300617 -8.6,-1.300617 2.61008,-3.9107 8.86543,-5.476749 8.86543,-5.476749 -17.987448,-1.044033 -31.090946,8.750412 -31.090946,8.750412 1.999588,-4.291153 8.573457,-12.006379 8.573457,-12.006379 -2.495062,0.822839 -9.405144,2.981687 -9.838683,3.114403 C 106.3144,56.636132 137.75041,37.516173 181.79444,37.233045 225.82963,36.94107 268.7323,56.68037 297.31934,65.82893 c 28.60473,9.14856 43.77949,13.767078 74.66605,9.201646 14.78457,-2.194239 27.72969,-8.254938 37.21358,-13.935185 0,0 6.6358,-16.872634 7.14101,-41.097737 0,0 7.95323,14.262552 7.98862,36.470371 0.0796,76.214405 -36.85082,131.875515 -48.6537,152.137715 -11.28087,19.93307 -26.10967,43.80426 -44.23869,71.27648 z M 412.64959,0.00176955 c 0,0 1.00068,18.32366245 -2.45967,35.09897145 -3.34445,16.209053 -5.18478,22.384773 -5.18478,22.384773 -7.07818,4.149589 -18.536,9.254733 -35.28477,12.04177 -31.25905,5.211317 -59.6249,-3.185185 -90.59198,-15.341975 C 248.15247,42.028518 206.70967,28.933868 168.25741,33.348889 130.97305,37.631193 104.29712,52.73428 90.114198,62.581811 75.931276,72.420494 73.321193,75.021728 61.164403,78.498889 c 0,0 9.555556,3.760288 14.474897,3.760288 0,0 -2.318107,9.564403 -1.451028,12.740741 0,0 20.261317,-9.263581 22.579424,-4.919342 2.318106,4.344239 -7.237449,7.246296 -13.890947,8.971605 -6.653498,1.743009 -24.030453,1.442179 -24.030453,1.442179 0,0 8.148766,6.30844 11.02428,10.68807 0,0 -15.359671,6.68889 -32.44465,4.37078 0,0 -0.566255,6.32613 13.475103,16.68683 -2.990535,1.07058 -6.777366,2.80473 -9.122017,5.30864 0,0 14.713786,-3.03477 23.959671,7.264 2.433128,3.05246 3.229424,5.78641 2.955144,9.23703 -0.504321,6.25535 -2.902058,8.64424 -8.79465,12.53724 -3.370988,1.3714 -6.954321,3.08786 -10.413786,5.20247 -16.270988,9.99795 -28.171194,25.21605 -36.523457,42.60186 C 9.3432099,221.9207 6.45,230.67111 4.4061728,238.60753 2.3623457,246.58819 1.6102881,253.67523 1.1325103,258.09909 0.65473251,262.51411 0,276.4316 0,276.4316 c 0,0 7.2993827,-10.22798 10.723457,-15.12962 3.406378,-4.88396 24.994856,-32.02881 56.439712,-39.89445 10.059876,-2.557 20.075514,-3.62757 29.648765,-3.62757 23.012966,-0.0177 43.566256,6.2288 55.731896,12.18333 17.66008,8.54692 46.67181,28.71975 84.70823,35.02819 8.95479,1.47757 18.60679,2.21194 28.61358,2.21194 9.59979,0 19.5358,-0.69898 29.46296,-2.05268 -5.60946,8.36996 -10.98889,16.19136 -16.10288,23.43765 -5.18477,-4.93703 -12.21872,-5.4502 -12.21872,-5.4502 -8.52922,-0.80514 -12.80179,4.38848 -12.80179,4.38848 -1.7262,1.86687 -3.01797,4.29115 -3.52229,7.14897 -0.60164,2.64547 0.11502,5.72537 0.61138,7.29053 1.6271,5.16708 6.04212,7.52058 7.75858,8.27264 -12.46646,16.6072 -16.08519,35.72804 -16.08519,35.736 l -5.68909,5.01667 2.05268,8.31687 c -3.16749,10.20144 1.80493,17.85474 8.25493,21.02223 6.54733,3.22057 12.66111,1.3537 12.66111,1.3537 3.84877,-1.07942 7.33478,-3.5037 9.70597,-7.06049 0.36364,-0.53972 0.68128,-1.08828 0.9644,-1.63683 1.32717,-0.71667 2.46852,-1.52182 3.44177,-2.38889 1.7961,0.20349 6.39692,0.34506 6.39692,0.34506 9.43169,-0.0796 18.65103,-2.75165 25.68498,-8.72387 5.53868,-4.95473 11.63477,-13.40432 11.84712,-24.95062 0,-2.16769 0.39815,-10.90926 -6.82161,-18.52716 45.55788,-66.88889 75.13498,-109.95082 94.01605,-153.76481 50.0251,-116.135394 7.35247,-164.55905683 7.16667,-164.97490045 z"
       id="path4"
       inkscape:connector-curvature="0"
       style="fill:#b1babf" />
    <path
       d="m 262.4858,339.88757 c -0.009,0.0177 -0.0177,0.0442 -0.0265,0.0619 -0.009,0.009 -0.009,0.0177 -0.009,0.0265 0.009,-0.0177 0.0177,-0.0354 0.0265,-0.0531 0,-0.0177 0.009,-0.0265 0.009,-0.0354 z m 90.99013,-104.70411 c -20.04897,9.34321 -66.31291,24.83559 -112.38396,16.23559 -16.03209,-2.99053 -37.13395,-7.99835 -65.03971,-24.91522 C 157.7463,215.41761 137.98045,204.81802 91.90144,205.02152 53.732304,205.20732 29.215226,222.50465 21.411523,228.93695 42.124074,161.35794 103.35041,171.24086 103.35041,171.24086 92.17572,165.87914 78.762551,167.93181 78.762551,167.93181 97.944444,137.75218 67.0393,123.62235 67.0393,123.62235 c 2.601235,0 14.333334,-3.38869 20.323251,-5.47675 5.998766,-2.07922 17.005349,-3.5214 17.005349,-3.5214 -3.83992,-3.53025 -15.704731,-6.37922 -15.704731,-6.37922 11.210082,0 21.358431,-5.43251 28.418931,-12.78498 2.45967,-2.556996 9.1928,-15.359671 1.5572,-20.323251 -7.0251,-4.565432 -20.960288,0.504321 -20.969135,0.513169 0.0177,-0.0177 41.717075,-44.946502 127.770165,-25.746914 40.82346,9.113169 86.84053,33.019753 129.32736,33.276338 14.28025,0.08848 45.78704,-4.547737 64.58848,-23.473046 -0.99094,35.957202 -7.68868,86.318514 -65.88024,175.477164 z m -54.16585,79.11646 c -0.0531,-0.0442 -0.13271,-0.0973 -0.17695,-0.13272 -1.08827,-0.99094 -2.49418,-2.18539 -4.05227,-3.48601 2.5393,-3.61872 31.63066,-46.87531 40.15988,-60.28847 2.98257,-1.05289 5.88375,-2.20309 8.75041,-3.40638 -5.76784,9.12201 -37.24012,56.54588 -44.68107,67.31358 z m -1.52181,37.86831 c -3.94609,3.44177 -10.65267,5.63601 -17.66008,5.50329 -6.2465,-0.12387 -10.63498,-1.13251 -14.60761,-3.29136 -0.0177,0.0442 -0.0265,0.0796 -0.0345,0.13272 -0.31056,0.26543 -0.93875,1.70761 -5.52984,2.38889 -3.07989,0.50432 -4.86625,-0.11502 -5.05294,-0.17696 5.41482,5.47675 10.31646,2.02614 10.31646,2.02614 0.23093,0.95555 0.56626,1.63683 0.56626,1.63683 0,0 -1.6271,2.38977 -6.58272,1.56605 -0.60164,-0.0973 -1.11481,-0.26543 -1.61913,-0.45124 0.0973,0.0531 0.1858,0.0885 0.28312,0.15041 1.90227,1.24753 2.41544,3.80453 1.16879,5.69795 -1.26611,1.90226 -3.81426,2.41543 -5.71564,1.1679 -1.8943,-1.25638 -2.41632,-3.81338 -1.15994,-5.70679 1.02634,-1.5572 2.90206,-2.1677 4.59198,-1.66338 -3.71605,-1.78724 -4.67161,-5.52098 -4.67161,-5.52098 4.75124,-4.21153 4.60083,-11.83828 9.44939,-22.43786 0.22119,-0.48663 0.46893,-0.9821 0.70782,-1.47758 0,0.0177 -0.009,0.0354 -0.0177,0.0531 -1.05288,2.63662 -2.06152,7.16667 -1.64568,10.46687 0.0885,0.71667 0.23093,1.3714 0.39815,2.00844 v 0.009 c 0.0708,0.29197 1.69876,6.88353 6.14918,5.81296 -0.0442,0.0973 -0.69013,1.54835 -0.69898,1.56605 1.94651,1.21214 6.40577,3.32675 13.99712,3.42407 10.66153,0.14157 16.49219,-6.8738 18.09363,-12.09485 1.25726,-4.06111 -0.69013,-8.57346 -4.707,-12.5284 1.17675,-1.36255 1.89342,-3.26393 1.10597,-5.88374 0.36275,1.21214 -1.91111,3.37098 -4.30885,3.15864 -0.22119,-0.0177 -0.43354,-0.0531 -0.65473,-0.11502 -3.61873,-1.00864 -7.74177,-5.41482 -11.23663,-8.0249 -3.47716,-2.61008 -4.49465,-6.6535 -4.42387,-9.52016 0.0531,-2.86667 -0.92016,-6.2642 -3.65411,-8.83889 -2.73395,-2.57381 -5.18389,-2.82243 -5.96338,-3.02593 -0.78745,-0.21146 -1.00864,-0.69897 -0.92901,-1.22099 0.16015,-0.85823 1.26611,-0.69897 1.26611,-0.69897 6.6358,1.32716 11.48348,7.90192 12.55406,9.82984 0.99094,1.76954 11.46666,9.9537 15.51893,13.53704 1.89341,1.38024 10.09526,7.67098 11.56399,14.12098 1.743,7.69753 -2.91887,14.98807 -6.857,18.42099 z m -11.82058,-17.50082 c 1.30062,0.64588 3.16749,1.91111 4.04342,3.74259 0.23004,0.48663 0.33621,0.95556 0.33621,1.47757 0.13361,2.14115 -2.37119,5.27325 -4.59197,6.09609 -1.61029,0.66358 -3.74259,0.99095 -5.80412,0.9821 -0.65473,0 -1.30061,-0.0265 -1.9288,-0.0885 0.58395,-0.98209 1.29177,-2.17654 2.07922,-3.45946 1.76954,-2.89321 3.96467,-6.2642 5.86604,-8.75041 z m -18.47407,-12.7319 c 1.75274,-2.97284 3.59218,-5.89259 5.45905,-8.79465 0.0885,-0.13183 0.17696,-0.26543 0.26544,-0.39814 -0.0796,0.61049 -0.29198,3.92839 0.82284,7.21975 0.64588,1.5749 1.67222,3.16749 3.29136,4.65391 1.45102,1.33601 2.66316,2.40658 3.67181,3.24712 -4.90077,6.33498 -11.84712,18.1821 -11.84712,18.1821 -2.97284,0.17695 -4.45926,-0.80515 -6.13945,-4.38848 -0.23977,-0.51317 -0.42558,-1.07943 -0.56714,-1.67222 v -0.009 c -0.88477,-3.68951 -0.0796,-8.44074 -0.061,-8.57346 0.12299,-0.24773 3.42319,-6.6181 5.10426,-9.46708 z m 48.97222,-66.01296 c 4.06996,-0.99095 8.09568,-2.07037 12.05062,-3.30905 0.11502,-0.0354 0.23093,-0.0708 0.34506,-0.11502 -4.04341,6.13148 -35.87757,51.67963 -38.07181,54.63477 -0.17695,-0.14156 -5.64485,-4.82202 -5.83862,-4.99012 8.11249,-11.27202 31.05467,-45.52161 31.51475,-46.22058 z M 416.33998,19.997654 c -0.50521,24.225103 -7.14101,41.097737 -7.14101,41.097737 -9.48389,5.680247 -22.42901,11.740946 -37.21358,13.935185 C 341.09883,79.596008 325.92407,74.97749 297.31934,65.82893 268.7323,56.68037 225.82963,36.94107 181.79444,37.233045 137.75041,37.516173 106.3144,56.636132 78.152058,78.383868 c 0.433539,-0.132716 7.343621,-2.291564 9.838683,-3.114403 0,0 -6.573869,7.715226 -8.573457,12.006379 0,0 13.103498,-9.794445 31.090946,-8.750412 0,0 -6.25535,1.566049 -8.86543,5.476749 0,0 7.29938,-1.574897 8.6,1.300617 1.30946,2.866667 -3.12325,9.387449 -11.201236,13.032716 -8.077984,3.654116 -21.119548,6.520786 -29.462963,7.042796 0,0 8.352263,2.61008 13.820164,7.8214 0,0 -6.37037,0.91132 -13.298148,3.64527 -5.768724,2.28272 -16.164815,3.65411 -20.597531,3.1321 0,0 6.069548,5.68025 13.298149,10.16605 21.163786,13.13004 12.227572,32.59506 5.414814,38.97428 -4.485802,1.27407 -51.24609,13.99712 -61.9606992,89.48601 0,0 23.6942382,-33.05515 59.5718112,-42.18601 35.886419,-9.13087 70.675719,0 88.937449,8.90967 18.26173,8.91852 46.53025,28.48086 83.2749,34.57695 20.20823,3.35329 44.5395,2.7428 68.09218,-1.7607 -0.38046,0.58395 -18.35021,27.31297 -26.07428,38.08951 0,0 -5.73334,-7.20206 -13.4928,-7.91872 0,0 -3.25597,-0.65474 -5.89259,0.71666 v 0.009 c -2.32696,1.07058 -4.3177,3.36214 -4.96358,6.53848 -0.65385,3.22057 0.51316,5.71563 2.03586,7.48518 1.45014,1.68992 3.27278,2.54815 4.75035,2.9463 1.31831,0.31852 3.14979,1.12366 3.49486,2.86667 -3.5391,5.4502 -8.38766,13.32469 -11.88251,20.93374 -2.7428,5.98992 -4.05227,11.13045 -5.14939,14.58992 -1.03518,3.54794 -1.95535,4.93703 -2.25617,5.11399 l -3.7249,3.28251 c 0,0 1.42449,5.75988 1.83148,6.72428 -0.90246,1.71646 -1.3537,3.60988 -1.36255,5.47675 v 0.10617 c 0,3.9107 1.92881,7.75062 5.43251,10.06076 2.73395,1.88369 6.68889,1.99871 6.68889,1.99871 3.90185,0 7.73292,-1.92881 10.04218,-5.39712 0.55741,-0.84054 0.98299,-1.72531 1.29177,-2.61009 2.80474,-1.14135 4.53004,-2.73395 5.42367,-4.04341 2.07921,0.47778 8.13107,0.66358 8.3788,0.66358 8.45844,-0.0619 16.47449,-2.48622 22.34054,-7.48519 4.71584,-4.22037 9.86522,-11.43923 10.03333,-21.1107 0,-1.7253 0.52202,-10.82078 -8.2107,-18.04053 7.54712,-10.90926 16.81955,-24.50823 26.56975,-39.25741 18.12902,-27.47222 32.95782,-51.34341 44.23869,-71.27648 11.80288,-20.2622 48.73333,-75.92331 48.6537,-152.137715 -0.0354,-22.207819 -7.98862,-36.470371 -7.98862,-36.470371 z M 262.45926,339.94951 c -0.009,0.009 -0.009,0.0177 -0.009,0.0265 0.009,-0.0177 0.0177,-0.0354 0.0265,-0.0531 0,-0.0177 0.009,-0.0265 0.009,-0.0354 -0.009,0.0177 -0.0177,0.0442 -0.0265,0.0619 z"
       id="path6"
       inkscape:connector-curvature="0"
       style="fill:#000000" />
    <path
       d="m 323.18216,186.167 c -20.59841,14.57222 -52.84841,19.02263 -52.84841,19.02263 -0.36276,1.39794 -2.49507,2.86667 -2.49507,2.86667 0,0 3.30021,1.22098 11.40474,7.31707 8.09567,6.0961 5.90144,5.79527 8.48497,7.53828 2.58354,1.73415 4.05227,1.24753 4.05227,1.24753 0.7786,1.56605 0.87681,3.893 0.87681,3.893 1.07854,1.01749 6.36064,6.0607 1.45014,11.28086 -4.91934,5.22017 -10.59959,0.37161 -10.59959,0.37161 -2.00843,0.42469 -3.96378,-0.23889 -3.96378,-0.23889 0,0 -10.51111,6.61811 -20.95056,-0.5928 -8.49471,-5.8572 -7.98154,-12.80267 -7.48518,-15.20041 -2.86755,1.64568 -5.94657,2.9286 -9.10432,3.91955 -8.52126,2.67201 -19.39513,3.77798 -30.19821,0.1858 -7.09589,-2.38889 -12.97079,-6.52963 -17.607,-11.1216 -4.64506,-4.60083 -8.07798,-9.67943 -10.31646,-14.25371 -0.33621,-0.69897 -0.65473,-1.38909 -0.93786,-2.06152 -0.74321,1.76955 -4.3,8.48586 -15.31543,8.0072 -12.67881,-0.54856 -17.07613,-12.16564 -17.07613,-12.16564 0,0 -1.95535,-0.65473 -3.30021,-2.19424 0,0 -7.44979,0.44239 -8.22839,-6.68888 -0.76976,-7.13128 6.49423,-7.96297 7.97181,-8.12223 0,0 1.46872,-1.80493 3.03477,-2.58353 0,0 0.88477,1.28292 3.99033,1.45102 3.10555,0.16811 1.17675,-0.92016 11.31625,-0.89362 10.13951,0.0177 13.50165,1.04403 13.50165,1.04403 0,0 -0.81399,-2.45967 -0.25658,-3.79567 0,0 -23.03066,-23.00412 -30.66626,-47.05227 -7.6356,-24.04815 -5.29979,-32.966664 3.97263,-58.324277 0,0 6.8747,43.203497 27.97655,70.348357 12.04177,15.49238 25.58765,27.56954 35.01049,35.09012 0.21235,0 0.43354,0.009 0.64589,0.009 -2.00844,-2.23848 -3.5391,-4.86626 -4.3,-7.87449 -1.88457,-7.4321 -4.97243,-14.34218 -6.38807,-19.84547 -1.41564,-5.51214 1.73416,-16.52757 1.73416,-16.52757 -4.22922,-6.77737 -2.1677,-17.93437 -2.1677,-17.93437 0,0 2.29157,-1.08827 4.03457,-3.20288 1.73416,-2.12345 1.13251,-8.38765 2.54815,-17.606991 1.41563,-9.219342 7.4144,-18.757202 20.7037,-24.180865 13.21852,-5.397119 33.07284,1.68107 33.2498,1.743004 0.17695,0.05309 20.28786,6.379218 27.57839,18.659877 7.32593,12.342595 6.35268,23.579215 1.91996,31.781075 -4.43183,8.2107 -8.69733,12.83806 -8.58231,15.58086 0.10618,2.73395 1.28293,4.98127 1.28293,4.98127 0,0 -5.0786,10.14836 -12.55494,13.01502 0,0 -4.1319,10.67922 -8.59115,14.21832 -4.44157,3.53909 -11.07737,7.18436 -17.06729,11.97983 -2.36234,1.89342 -5.0786,3.06132 -7.97181,3.65412 0.19465,0.14156 0.38045,0.28313 0.5751,0.42469 12.04177,-0.31852 30.05577,-1.7784 48.91029,-6.84815 33.20556,-8.93621 64.74774,-39.24856 64.74774,-39.24856 -7.8913,25.8177 -11.41358,34.34692 -32.00138,48.92799 z M 354.76769,83.179342 C 312.28086,82.922757 266.26379,59.016173 225.44033,49.903004 139.38724,30.703416 97.68786,75.632222 97.670165,75.649918 c 0.0088,-0.0088 13.944035,-5.078601 20.969135,-0.513169 7.6356,4.96358 0.90247,17.766255 -1.5572,20.323251 -7.0605,7.35247 -17.208849,12.78498 -28.418931,12.78498 0,0 11.864811,2.84897 15.704731,6.37922 0,0 -11.006583,1.44218 -17.005349,3.5214 -5.989917,2.08806 -17.722016,5.47675 -20.323251,5.47675 0,0 30.905144,14.12983 11.723251,44.30946 0,0 13.413169,-2.05267 24.587859,3.30905 0,0 -61.226336,-9.88292 -81.938887,57.69609 7.803703,-6.4323 32.320781,-23.72963 70.489917,-23.91543 46.07901,-0.2035 65.84486,10.39609 84.15082,21.48231 27.90576,16.91687 49.00762,21.92469 65.03971,24.91522 46.07105,8.6 92.33499,-6.89238 112.38396,-16.23559 58.19156,-89.15865 64.8893,-139.519962 65.88024,-175.477164 -18.80144,18.925309 -50.30823,23.561523 -64.58848,23.473046 z"
       id="path8"
       inkscape:connector-curvature="0"
       style="fill:#a71930" />
    <path
       d="m 262.23718,331.71138 c 0,0.0177 -0.009,0.0354 -0.0177,0.0531 -1.05377,2.63663 -2.06153,7.16579 -1.64657,10.46776 0.0885,0.71578 0.23093,1.3714 0.39903,2.00755 v 0.01 c -2.48709,11.42242 -7.30026,11.60823 -8.57434,11.44012 -0.2035,-0.0274 -0.31852,-0.0628 -0.31852,-0.0628 4.75035,-4.21064 4.59994,-11.83739 9.44939,-22.43786 0.22119,-0.48663 0.46981,-0.9821 0.7087,-1.47757 z m 10.98004,-18.97043 c -0.0743,0.61137 -0.29374,3.92751 0.82284,7.21975 -0.009,0.008 -6.1421,8.02667 -11.59053,20.02331 0.0867,-0.2265 0.0398,-0.1159 0.007,-0.0319 -0.004,0.008 -0.006,0.015 -0.009,0.023 -0.88212,-3.68862 -0.0779,-8.44074 -0.0602,-8.57345 0.12299,-0.24774 3.42319,-6.61811 5.10515,-9.46885 1.75185,-2.97195 3.59218,-5.89171 5.45993,-8.79377 0.0885,-0.13271 0.17607,-0.26543 0.26455,-0.39814 z m 55.64342,-60.23893 c -4.04342,6.13148 -35.87934,51.67343 -38.0727,54.62858 -0.17784,-0.14157 -5.64574,-4.82202 -5.8395,-4.99013 8.11426,-11.27201 31.05555,-45.51541 31.51563,-46.21438 4.07085,-0.99095 8.09745,-2.07037 12.05151,-3.30905 0.1159,-0.0354 0.23181,-0.0708 0.34506,-0.11502 z m -52.71836,-33.16663 c 0,0 1.78194,1.42891 1.93058,1.54128 0.67774,0.51316 2.13053,1.85714 2.79942,2.51452 0.55122,0.54414 1.10243,1.08827 1.64745,1.6386 0.4008,0.40611 2.05887,1.97039 2.6207,2.38889 0.42558,0.31675 0.85735,0.59634 1.30504,0.81576 0.40965,0.20085 0.83434,0.35922 1.28381,0.46805 v 0 l -0.0416,0.0301 c -0.92282,0.69189 -2.00756,1.14578 -3.17457,1.14578 -0.40081,0 -0.83523,-0.0593 -1.22364,-0.15306 -0.54414,-0.13272 -1.06527,-0.33091 -1.5634,-0.58749 -0.31409,-0.16369 -0.622,-0.33887 -0.91751,-0.53706 -0.18138,-0.12121 -0.36453,-0.25305 -0.55121,-0.39372 -0.004,-0.005 -0.0106,-0.0195 -0.0142,-0.023 0.0522,-0.23977 0.0938,-0.49547 0.1106,-0.78214 0.0628,-1.03872 -0.15218,-2.2314 -0.5406,-3.19315 -0.64854,-1.70053 -3.60634,-4.81936 -3.67093,-4.87333 z m -10.7031,-6.65438 c 0.14687,0.0832 0.28666,0.15572 0.43884,0.24154 0.72021,0.40523 1.44307,0.80603 2.15797,1.21745 1.50765,0.86973 2.99584,1.7722 4.46014,2.71272 1.0458,0.67154 2.08276,1.36078 3.09229,2.08541 0.12917,0.0956 0.25746,0.19022 0.38487,0.28489 0.98652,1.09801 1.99251,2.50922 2.45879,3.81957 0.54944,1.51031 0.58749,2.90648 0.39107,3.92928 -3.20731,-3.08609 -9.95105,-8.04259 -11.84889,-9.02557 0.18492,-2.26679 -0.75206,-4.12836 -1.53508,-5.26529 z m -53.86149,-26.44146 c 1.02369,0.13183 2.02348,0.28224 3.00204,0.44681 -0.55652,0.76267 -1.08827,1.54835 -1.59348,2.35438 1.08474,0.1973 2.18363,0.42204 3.2949,0.67243 0.45301,-0.82903 0.92459,-1.64214 1.41122,-2.43401 0.93343,0.20084 1.85271,0.41672 2.75607,0.64765 -0.41496,0.82019 -0.82107,1.65984 -1.21834,2.51276 1.0343,0.27605 2.0748,0.57687 3.12148,0.90335 0.32914,-0.87681 0.66005,-1.74212 0.99007,-2.5915 0.87769,0.27251 1.74831,0.5636 2.61273,0.87504 -0.25039,0.87681 -0.50786,1.76512 -0.77417,2.66317 1.03164,0.36718 2.04205,0.75294 3.03477,1.15197 0.19642,-0.91574 0.3778,-1.82528 0.5406,-2.7251 0.8653,0.35922 1.72442,0.73967 2.59238,1.14578 -0.0894,0.91663 -0.20261,1.84033 -0.33887,2.76581 1.03519,0.46273 2.0456,0.93963 3.02947,1.42802 0.0787,-0.93167 0.12741,-1.86333 0.14333,-2.79058 0.88301,0.45832 1.76955,0.94317 2.66583,1.45457 0.0416,0.93521 0.0442,1.86953 0.005,2.8012 0.54149,0.29551 1.07147,0.59279 1.59348,0.89273 0.005,0.14599 0.007,0.29198 0.0106,0.43885 0.0186,0.82195 0.008,1.64922 -0.0292,2.48091 -0.0106,0.23888 -0.023,0.47954 -0.0363,0.71932 -0.62642,-0.31764 -1.25992,-0.63439 -1.90492,-0.9476 -0.23801,1.4413 -0.58926,2.86402 -1.06969,4.2593 -0.95202,-0.55298 -1.92527,-1.08384 -2.90472,-1.59347 0.43089,-1.3369 0.76887,-2.68971 1.02634,-4.05138 -1.04845,-0.47601 -2.11992,-0.94317 -3.21261,-1.39971 -0.28844,1.29265 -0.63438,2.58442 -1.03873,3.87088 -1.00333,-0.46362 -2.01728,-0.90866 -3.03654,-1.32627 0.39815,-1.25107 0.75914,-2.50126 1.08739,-3.74525 -1.06969,-0.41231 -2.15708,-0.81311 -3.26216,-1.20064 -0.37692,1.20772 -0.7671,2.42782 -1.17144,3.655 -1.03961,-0.37337 -2.08011,-0.72463 -3.13299,-1.05111 0.41673,-1.22276 0.84054,-2.43047 1.26877,-3.62049 -1.11482,-0.3548 -2.22432,-0.68836 -3.32763,-1.00245 -0.48751,1.18825 -0.95379,2.3995 -1.3891,3.63553 -1.06261,-0.28401 -2.14115,-0.54059 -3.21881,-0.77771 0.44858,-1.26258 0.95114,-2.4933 1.49616,-3.69393 -1.14932,-0.29109 -2.28891,-0.56184 -3.41434,-0.81046 -0.6105,1.23338 -1.1511,2.50745 -1.60941,3.824 -1.08827,-0.18846 -2.18539,-0.34772 -3.28162,-0.48398 0.453,-1.38644 1.02633,-2.71979 1.69611,-3.99917 -0.70782,-0.13537 -1.40945,-0.26278 -2.10222,-0.38311 0.15041,-0.22739 0.30347,-0.453 0.45831,-0.67685 0.47866,-0.69278 0.9759,-1.36432 1.4935,-2.01286 0.0602,-0.0761 0.11856,-0.15395 0.18049,-0.22827 0.60076,0.0708 1.2086,0.15041 1.82263,0.238 0.54325,-0.78745 1.1219,-1.55189 1.73327,-2.29156 z m 133.39556,-33.48072 c -0.16545,0.38576 -6.72516,15.45345 -34.00981,27.28996 -1.21303,0.52644 -2.45083,1.05022 -3.74791,1.56162 -5.54664,2.0863 -17.22565,6.03327 -32.67115,8.82208 -6.24384,1.1272 -12.56113,1.89607 -18.88107,2.42693 -0.50609,0.0416 -4.16994,0.31056 -4.16994,0.31056 -1.14932,-1.47315 -2.40923,-2.92506 -3.78771,-4.35132 8.37438,-0.36983 16.97261,-1.20064 25.41158,-2.71714 34.8185,-6.25712 56.20171,-20.81872 66.45447,-28.91529 0.93697,-0.74144 1.76247,-1.41298 2.51629,-2.03409 1.75893,-1.42537 2.85251,-2.32784 2.88525,-2.39331 z m -180.362,29.45942 c 0.31056,-0.002 0.9299,0.0106 0.88301,0.0159 -1.62268,0.0894 -4.19029,0.68481 -5.82535,1.66691 -0.009,0.004 -0.0177,0.0124 -0.0274,0.0186 -0.9352,0.54502 -1.93323,1.46076 -2.44197,2.42251 -0.0336,0.0628 -0.21943,0.41319 -0.26986,0.46982 -5.3228,0 -6.27482,-4.03015 -6.29428,-4.1027 0.43973,0.18757 0.88654,0.31675 1.34663,0.40346 v 0 l 0.36617,0.0592 c 0.3694,0.0496 0.74864,0.0713 1.13883,0.0727 1.63506,0.015 3.33205,-0.29375 5.09983,-0.53971 1.99517,-0.27871 4.00891,-0.4769 6.02442,-0.48663 z m 1.12632,0.0133 c 0.6972,0.0142 1.39352,0.0354 2.08984,0.0699 1.09889,0.0531 2.19689,0.13183 3.29312,0.23004 2.20663,0.1973 4.77513,0.49017 6.96406,0.837 -1.31389,0.43619 -3.12502,1.29619 -4.34513,3.22588 -0.0168,0.0168 -0.0345,0.0345 -0.0478,0.0504 -2.1155,-0.36541 -10.48369,-0.47512 -14.90048,0.0469 0.4592,-0.93256 1.3307,-2.02348 2.67821,-2.89852 1.16171,-0.76268 2.82155,-1.28204 4.26815,-1.56163 z M 150.78932,87.592593 c 1.90492,8.016049 7.56482,37.861237 37.19412,69.958167 5.86162,6.35002 12.27269,12.23907 18.77932,17.62027 -1.9642,0.31852 -3.86204,0.72817 -5.66963,1.22187 -4.55309,-4.01307 -15.08379,-14.38812 -15.63373,-14.92815 l -0.0223,-0.0219 c -8.815,-8.87428 -15.39595,-17.40084 -20.34714,-25.32842 -1.03165,-1.68814 -1.83325,-3.07901 -2.47295,-4.1195 v 0 l -0.98032,-1.76247 C 147.97043,105.20136 150.78932,87.592593 150.78932,87.592593 Z m 59.40459,54.355187 c 1.38555,-1.15994 4.50527,-0.61934 4.50527,-0.61934 0,0 1.39971,1.47137 1.72973,2.57203 0.32117,1.10774 -0.0106,7.14367 2.37385,11.29679 v 0 -0.0982 c 0,0 0.11767,-0.43884 0.62376,-1.19267 0.51052,-0.75471 1.50235,-1.82352 2.09692,-1.40148 0.59456,0.42115 0.51493,1.60763 0.50078,2.87905 -0.01,1.27054 -0.43885,2.62866 -0.76002,3.01354 0,0 0.49459,1.01307 1.84033,1.65453 0,0 -0.0566,-0.48398 0.0416,-1.1741 0.21235,-1.21833 0.82461,-2.22343 1.21656,-3.33117 0.11945,-0.38753 0.49813,-0.78657 1.06262,-0.48397 0.0106,0 1.12366,0.58041 2.11018,1.07323 0.11414,0.0832 0.79984,0.60607 0.43354,1.58994 -0.0168,0.0363 -0.0204,0.0566 -0.031,0.084 -0.0142,0.0451 -0.0345,0.0832 -0.0487,0.12829 -0.36983,0.92813 -0.68393,1.77663 -1.15728,2.75607 0,0 -0.24243,0.90424 -0.66712,0.94229 0,0 0.82903,0.54413 1.20241,0.70162 0.57068,0.24154 1.28115,0.54768 1.63152,0.63438 0,0 -0.37868,-0.58572 -0.28313,-1.42271 0.22739,-1.19268 0.58041,-2.83393 0.88124,-4.20798 0.10351,-0.32295 0.39372,-0.86885 1.0573,-0.66005 0.74675,0.3079 1.50677,0.59988 2.26768,0.8777 0.6388,0.26808 0.63349,0.89893 0.60783,1.11127 -0.3486,1.51739 -0.73967,3.3356 -1.15462,4.78751 -0.0947,0.2212 -0.22739,0.53175 -0.33799,0.64589 0,0 0.68393,0.48043 1.14401,0.60165 0.45566,0.11944 1.32363,0.29551 1.32363,0.29551 0,0 -0.16634,-0.58749 0.0442,-1.21302 0.004,-0.0124 0.004,-0.023 0.004,-0.038 0.33887,-0.96971 0.67951,-1.94296 1.02369,-2.92152 0.0823,-0.25039 0.32471,-0.80338 0.46273,-1.1626 0.0743,-0.18137 0.36984,-0.7379 1.04669,-0.59456 0.89274,0.26808 1.7899,0.51494 2.69148,0.73967 0.66712,0.1973 0.2849,1.2201 0.2849,1.2201 0,0 -0.96706,2.3765 -1.59259,3.90716 v 0 c -0.007,-0.003 -0.21766,0.53617 -0.5636,0.8193 0,0 0.62111,0.27517 1.08738,0.36807 0.9821,0.19376 1.56605,0.17518 1.81202,0.19199 0,0 -0.30259,-0.73259 0.0531,-1.60852 0.0212,-0.0363 0.031,-0.0814 0.0451,-0.12121 0.29905,-0.69278 0.61049,-1.38556 0.89716,-2.08099 0.084,-0.19642 0.15837,-0.39372 0.23623,-0.5928 0.10087,-0.30082 0.57776,-0.79275 1.36344,-0.65296 0.0265,0.002 0.0434,-0.002 0.0681,0.002 0.62642,0.11768 1.25284,0.22296 1.88014,0.3194 v 0 c 0.006,0.007 1.12809,0.23712 0.71844,1.28823 -0.56714,1.25904 -1.1679,2.52249 -1.8421,3.79303 0.69985,0.0549 1.40679,0.0947 2.11372,0.11414 0,0 -0.0885,-0.0628 0.20173,-0.8485 0.29021,-0.7848 1.14047,-2.4579 1.22541,-2.70652 0.0849,-0.24509 0.40965,-1.21657 0.81753,-1.26523 0.41142,-0.0434 2.01287,1.23957 1.59614,3.71428 4.40174,-1.88015 7.763,-6.88177 8.68759,-7.56305 0.80868,-0.59633 2.42428,-0.91928 2.83039,-0.9936 0.67951,0.39107 2.65255,1.62799 2.98788,3.08521 0,0 -3.31613,3.05158 -7.39936,4.85033 -4.08854,1.79963 -10.27222,5.69794 -12.70889,7.32238 -0.92282,0.61404 -2.17743,1.14402 -3.76294,1.43599 -0.98918,-1.76424 -4.42918,-3.94167 -8.83801,-5.42278 -4.60878,-1.54835 -8.84066,-1.8474 -10.56685,-0.88831 -1.25815,-1.28911 -2.02613,-2.57646 -2.41986,-3.71162 -0.95909,-2.76404 -3.54617,-9.60688 -5.71652,-13.5043 -2.17389,-3.90009 -2.97903,-8.33457 -2.97903,-8.33457 z m 13.353,-50.743541 c 0.0885,-4.591976 4.94589,-23.490741 30.1354,-19.199589 4.64506,0.964403 8.36995,2.088066 9.3432,2.397737 0.0973,0.03539 0.18581,0.06193 0.28313,0.09732 0.47778,0.150412 1.13251,0.362757 1.92085,0.654732 0.22915,0.08848 0.46804,0.176955 0.71578,0.27428 0.32736,0.123869 0.67243,0.256585 1.03518,0.406996 0.47778,0.19465 0.9821,0.406996 1.51297,0.637037 0.52201,0.238889 1.07057,0.486626 1.63771,0.760906 1.22895,0.592798 2.53842,1.291769 3.85673,2.088065 0.13272,0.07078 0.26543,0.150412 0.3893,0.230042 0.0442,0.01769 0.0796,0.04424 0.11502,0.07078 10.25453,6.237655 13.06811,13.855556 13.06811,20.155144 0,5.538681 -2.17655,10.068721 -3.37099,11.740941 -1.68107,2.3358 -3.19403,3.93724 -3.97263,5.11399 -0.92902,-1.66337 -1.64568,-3.43292 -1.91996,-5.20246 l 1.7e-4,0.006 0.002,0.0205 c 0.0349,0.52248 0.6337,8.55783 4.7243,12.6845 l 0.21102,0.20641 c 0,0 -2.38004,5.31749 -2.87551,8.54691 -0.48663,3.23827 0.76975,6.64465 0.76975,6.64465 0,0 -0.31852,0.51317 -0.7786,1.22099 -2.51187,2.96399 -6.91008,5.52984 -9.27243,5.0963 -2.68086,-0.49548 -9.13971,-2.68971 -12.8823,-1.91996 -3.07016,0.63704 -4.91934,2.37119 -5.93683,4.12304 0,0 0.009,-0.009 0.0177,-0.009 -0.27428,0.32736 -0.53086,0.69012 -0.70782,1.11481 0,0 -0.79629,1.3891 -1.01748,3.24712 -0.54768,-0.23889 -1.01749,-0.42469 -1.01749,-0.42469 0.009,0.0973 0.009,0.23004 -0.0177,0.3716 -0.0354,0.27428 -0.15926,0.71667 -0.17607,0.7786 -0.01,0.0973 -0.0186,0.16811 -0.0354,0.19465 -0.0628,0.24774 -0.1336,0.49548 -0.19554,0.74321 -0.24685,0.90247 -0.46804,1.63684 -0.75205,2.52161 -0.009,0.009 -0.0266,0.0354 -0.0354,0.0619 -0.28313,0.84054 -1.13251,0.56626 -1.13251,0.56626 -0.009,0 -0.0964,-0.0354 -0.0964,-0.0354 -0.62023,-0.30967 -1.30151,-0.63704 -2.00933,-0.97325 0,0 -0.79629,-0.41585 -0.67242,-1.23869 -0.009,-0.0177 0,-0.0354 0.009,-0.0619 0.009,-0.0354 0,-0.0619 0.0186,-0.0885 0.0257,-0.0708 0.0434,-0.15926 0.0699,-0.22119 0.22119,-0.7963 0.69012,-2.50391 0.75206,-2.90206 0.0796,-0.46893 0.3893,-1.32716 0.58395,-1.66337 -0.13272,-0.13272 -0.46893,-0.49548 -0.76091,-0.63704 -0.24773,-0.12387 -0.51316,-0.17696 -0.87592,-0.15041 -0.13272,0.11502 -0.35391,0.46008 -0.36276,0.64588 -0.009,0.10618 -0.29109,0.99095 -0.60165,1.9642 -0.31763,0.9821 -0.68127,2.06152 -0.84053,2.54815 -0.17607,0.53086 -0.55741,0.64588 -0.86708,0.64588 -0.19244,0 -0.35501,-0.0448 -0.42427,-0.0672 l -0.0358,-0.0125 c -0.61846,-0.24773 -1.45988,-0.54856 -2.12346,-0.79629 -0.0434,-0.009 -0.0796,-0.0354 -0.12387,-0.0442 -0.79629,-0.30082 -0.74321,-0.9821 -0.69012,-1.25638 0.34506,-1.02634 0.78745,-2.32695 1.12366,-3.34444 0.0708,-0.23889 0.15926,-0.47778 0.23004,-0.72552 0,-0.009 0.009,-0.0177 0.0177,-0.0354 0.0265,-0.10617 0.32737,-0.86708 0.78745,-1.09712 -0.30082,-0.23004 -0.90247,-0.46893 -1.35282,-0.62819 -0.5406,-0.17695 -1.505,-0.34506 -1.55809,-0.35391 0.15926,0.34506 0.19554,0.94671 0.11502,1.24753 -0.11502,0.39815 -1.17675,4.10535 -1.22098,4.24692 -0.0531,0.14156 -0.23889,0.58395 -0.53087,0.69012 -0.28313,0.10617 -1.07942,-0.15041 -1.07942,-0.15041 -0.0531,-0.009 -0.0885,-0.0177 -0.13272,-0.0265 -0.67243,-0.2035 -1.62798,-0.35391 -2.26413,-0.53087 0,0 -1.04492,-0.30082 -0.71756,-1.25638 0,0 0.68128,-2.49506 1.01749,-3.68066 0,-0.0265 0.009,-0.0708 0.0177,-0.10617 0.0265,-0.0885 0.17695,-0.58395 0.23004,-1.33601 0.0531,-0.75205 -0.45123,-0.92901 -0.82284,-0.92901 -0.35302,0 -0.74321,0.63704 -0.8308,1.00864 -0.0982,0.39815 -0.3194,1.06173 -0.3194,1.06173 v 0 l -0.0266,0.0619 c -0.0265,0.0619 -0.0531,0.12386 -0.0708,0.17695 -0.36276,0.9644 -0.64588,1.7607 -0.97325,2.7251 -0.30795,0.81539 -1.15563,0.75248 -1.33067,0.7302 l -0.0319,-0.005 c -0.76091,-0.15926 -1.49527,-0.30967 -2.17654,-0.43354 -0.009,0 -0.0973,-0.0265 -0.0973,-0.0354 0,0 -0.84938,-0.29198 -0.56626,-1.13251 0,-0.0266 0,-0.0531 0.0177,-0.0796 0.30171,-0.87593 0.55741,-1.58375 0.91132,-2.45967 0.0973,-0.23004 0.45123,-1.07058 0.65473,-1.39795 0.21235,-0.32736 0.49547,-0.50432 0.49547,-0.50432 0.01,-0.19465 -0.28312,-0.5574 -0.81399,-0.74321 -0.061,-0.0177 -0.13271,-0.0354 -0.21234,-0.0531 0.30967,-0.76976 0.69897,-1.83148 0.88477,-2.72511 0.58395,-2.16769 0.51317,-5.22016 -1.99959,-8.09567 -2.5216,-2.87552 -9.00699,-5.01667 -11.43128,-6.23766 -2.43312,-1.22099 -4.61851,-7.08704 -4.32654,-11.1393 0,0 3.05247,-1.9642 4.60967,-4.83971 1.5749,-2.86667 2.86667,-8.53807 2.86667,-8.53807 5.88374,-0.66358 11.38704,-6.927771 11.72413,-7.317071 -1.46076,1.40679 -3.37187,2.459671 -5.35376,3.273662 0.10617,-1.344856 -0.11502,-3.609876 -0.0531,-6.963168 z"
       id="path10"
       inkscape:connector-curvature="0"
       style="fill:#ffffff" />
    <path
       d="m 263.74041,296.9557 c 0.16103,-0.85823 1.267,-0.69897 1.267,-0.69897 6.6358,1.32716 11.48436,7.90103 12.55405,9.82983 0.99183,1.77044 11.46755,9.95459 15.51982,13.53793 1.8943,1.38024 10.09615,7.67187 11.56399,14.12187 1.74389,7.69753 -2.91887,14.98806 -6.857,18.42187 -3.94609,3.44177 -10.65356,5.63512 -17.66097,5.50329 -6.2465,-0.12475 -10.63498,-1.13251 -14.60672,-3.29136 -0.0195,0.0442 -0.0283,0.0796 -0.0363,0.13272 -0.30967,0.26455 -0.93874,1.70673 -5.52983,2.38889 -3.0799,0.50432 -4.86626,-0.11502 -5.05295,-0.17696 5.4157,5.47764 10.31646,2.02614 10.31646,2.02614 0.23181,0.95644 0.56626,1.63683 0.56626,1.63683 0,0 -1.6271,2.38977 -6.58183,1.56693 -0.60253,-0.0982 -1.1157,-0.26543 -1.61914,-0.45123 0.0964,0.0531 0.18492,0.0885 0.28224,0.15041 1.90315,1.24753 2.41544,3.80453 1.16879,5.69706 -1.26611,1.90314 -3.81337,2.41631 -5.71564,1.16878 -1.8943,-1.25638 -2.41631,-3.81337 -1.15994,-5.70679 1.02634,-1.5572 2.90118,-2.16858 4.59198,-1.66337 -3.71605,-1.78725 -4.67161,-5.52276 -4.67161,-5.52276 0,0 0.11502,0.0354 0.31852,0.0628 1.27408,0.16811 6.08725,-0.0177 8.57434,-11.44012 0.0708,0.29197 1.69877,6.88265 6.14918,5.81207 -0.0442,0.0982 -0.69012,1.54836 -0.69897,1.56694 1.94562,1.21214 6.40576,3.32675 13.99712,3.42407 10.66241,0.14157 16.49307,-6.87469 18.09539,-12.09485 1.25638,-4.062 -0.69012,-8.57435 -4.70788,-12.52928 1.17675,-1.36256 1.8943,-3.26482 1.10597,-5.88463 0.36275,1.21302 -1.91111,3.37187 -4.30974,3.15952 -0.22119,-0.0186 -0.43177,-0.054 -0.65296,-0.11502 -3.61961,-1.00952 -7.74354,-5.4157 -11.23751,-8.02578 -3.47716,-2.61008 -4.49465,-6.6535 -4.42387,-9.52016 0.0513,-2.86756 -0.92105,-6.26509 -3.655,-8.83978 -2.73395,-2.57469 -5.18389,-2.82243 -5.96337,-3.02592 -0.78834,-0.21235 -1.00953,-0.69897 -0.9299,-1.22099 z m 22.22463,37.71082 c 1.30062,0.64589 3.16749,1.91111 4.04342,3.74259 0.23004,0.48663 0.3371,0.95556 0.3371,1.47669 0.1336,2.14204 -2.3712,5.27414 -4.59286,6.09786 -1.61029,0.66358 -3.74348,0.99095 -5.80501,0.98122 -0.65473,0 -1.29884,-0.0257 -1.92792,-0.0876 0.58395,-0.98298 1.29266,-2.17654 2.07834,-3.45946 1.76954,-2.8941 3.96555,-6.26508 5.86693,-8.7513 z M 274.04006,319.9607 c 0.64589,1.5749 1.67222,3.16749 3.29136,4.65391 1.45191,1.33601 2.66317,2.40658 3.6727,3.248 -4.90165,6.33498 -11.84801,18.1821 -11.84801,18.1821 -2.97195,0.17784 -4.46014,-0.80426 -6.14033,-4.38848 -0.23977,-0.51405 -0.42469,-1.07942 -0.56625,-1.67222 5.44843,-11.99664 11.58168,-20.01535 11.59053,-20.02331 z m 69.95198,-72.97082 c -5.76873,9.12201 -37.2419,56.53969 -44.68461,67.30827 -0.0513,-0.0442 -0.13272,-0.0973 -0.17607,-0.13272 -1.08916,-0.99094 -2.49506,-2.18627 -4.05227,-3.48601 2.53842,-3.6196 31.63243,-46.87796 40.16165,-60.28317 2.98257,-1.05376 5.88463,-2.20308 8.7513,-3.40637 z M 265.1472,202.1115 c 0,0 0.51671,-0.38222 0.82549,0.008 0.18138,0.24066 0.20262,0.55299 -0.13979,0.86797 -0.33533,0.31763 -1.50854,1.10066 -2.20309,3.14006 -0.69631,2.05267 -0.26454,4.03634 0.53706,5.47498 0.74498,1.33512 1.06173,2.94453 0.80515,4.4566 -0.0876,0.53706 -0.25216,1.075 -0.48132,1.56782 -0.56891,1.21568 -1.01484,2.48622 -1.52977,3.72578 -0.5636,1.35105 -1.18914,2.6092 -1.99428,3.37453 -0.89363,0.8485 -2.33581,0.58661 -3.21969,-0.12741 -0.0363,-0.0301 -0.0805,-0.0487 -0.11503,-0.0796 0.37249,1.59702 1.37317,2.23583 2.41013,2.46587 -0.48574,3.18607 0.645,5.50506 4.48138,7.38697 3.92485,1.92262 10.73319,1.91642 15.81709,-2.93656 -0.50874,-0.57245 -1.11835,-0.99183 -1.71115,-1.46695 -0.009,-0.007 -0.0177,-0.0159 -0.0257,-0.0186 0.3955,-0.11413 0.90513,-0.3309 1.22984,-0.73524 0.18138,-0.22562 0.30967,-0.59722 0.40257,-1.02457 v 0 l 0.0212,0.0159 c 0.18668,0.14067 0.36983,0.27251 0.55121,0.39372 0.29551,0.19819 0.60342,0.37337 0.91751,0.53706 0.49813,0.25658 1.01926,0.45477 1.5634,0.58749 0.38841,0.0938 0.82283,0.15306 1.22364,0.15306 1.16701,0 2.25175,-0.45389 3.17457,-1.14578 0.0106,-0.008 0.023,-0.0133 0.0319,-0.0212 0.01,0.004 0.0876,0.56537 0.0929,0.68924 0.038,0.72639 -0.0416,1.88191 -0.72375,3.00911 0.70251,-0.53617 1.68461,-0.65031 2.51718,-0.19553 1.13075,0.61049 1.5519,2.02701 0.93698,3.15421 -0.61049,1.12986 -2.02525,1.55278 -3.15599,0.93786 -1.09181,-0.59279 -1.49615,-1.92349 -0.97236,-3.02946 -0.18138,0.18669 -0.3548,0.37691 -0.58218,0.55475 -1.33955,1.02811 -2.38536,1.18737 -3.03655,1.14755 -0.46273,-0.0292 -0.73082,-0.15749 -0.73082,-0.15749 0,0 0.0274,-0.29374 -0.10352,-0.78214 -0.0177,-0.0663 -0.0283,-0.12475 -0.0522,-0.19907 0.15926,0.0142 0.45477,0.0186 0.82284,-0.0327 1.13339,-0.16103 2.98611,-0.87946 3.87442,-3.79656 0,0 -0.21765,0.28313 -0.59103,0.64942 -0.81576,0.80515 -2.49594,2.01021 -4.80786,1.83856 -1.1095,0.95113 -7.978,6.41019 -16.20728,3.49751 -8.98665,-3.18253 -9.05566,-8.73006 -8.83093,-10.54207 0.14688,-1.18383 0.77949,-3.13299 0.81046,-3.22766 0.73082,-2.2721 4.43802,-10.47572 4.4566,-11.74625 0.0212,-1.27054 0.70163,-5.90852 3.71074,-8.36908 z m 1.82706,15.8348 c 1.89784,0.98298 8.64158,5.93948 11.84889,9.02557 -0.10087,0.51406 -0.24243,0.95998 -0.44593,1.22099 -0.31852,0.39903 -0.78125,0.61846 -1.17852,0.75206 -2.82066,-1.93146 -7.1065,-4.46457 -11.62504,-6.49867 0.27871,-0.69808 0.59988,-1.56516 0.98122,-2.63839 0.24154,-0.69012 0.41938,-1.86156 0.41938,-1.86156 z m -82.94665,-43.32295 c 0.48397,-0.1274 0.66889,0.49194 0.66889,0.49194 0.9122,3.77621 -1.34132,7.88599 -2.08806,8.91232 -0.75029,1.0228 -2.74723,9.80418 -3.53556,12.06124 0,0 -0.9299,2.31545 -1.29973,3.0622 -0.81576,1.63152 -4.31681,5.96337 -13.40344,3.07636 -8.32306,-2.64105 -10.54915,-11.12869 -10.8606,-12.54875 -2.83746,-1.82617 -2.75783,-5.25732 -2.75783,-5.25732 -1.39618,3.80098 0.89893,5.54133 1.43775,5.88994 -0.0619,-0.0407 -0.53882,0.45742 -0.59456,0.5229 -0.009,0.01 -0.11503,0.16191 -0.12387,0.16014 0,0 -0.81577,-0.15395 -1.56605,-1.21391 -0.31233,-0.44239 -0.61669,-1.02457 -0.83965,-1.84387 -0.0814,-0.29551 -0.1336,-0.58129 -0.16369,-0.85557 -0.004,0.0318 -0.004,0.0619 -0.009,0.0929 -0.19377,1.28469 -1.39618,2.16592 -2.6791,1.97393 -1.28204,-0.19377 -2.17035,-1.39706 -1.97658,-2.68175 0.19288,-1.28646 1.39617,-2.16947 2.67821,-1.97216 1.01218,0.15129 1.77662,0.93167 1.95977,1.88722 0.0717,-2.31545 1.7607,-3.67181 1.7607,-3.67181 0.0195,0.0725 0.97148,4.1027 6.29428,4.1027 -0.18492,0.39903 -0.30613,0.77152 -0.29905,1.06084 0.0177,0.51936 0.2902,0.99802 0.54325,1.32804 v 0 l -0.26143,-1e-4 c -0.58815,9.6e-4 -2.02247,0.0141 -2.02394,0.13724 1.12631,6.94105 6.55529,11.05171 10.8429,11.8834 4.18852,0.81399 6.4907,-0.34949 8.02047,-3.1728 0.96971,0.44239 2.1615,0.52025 3.42408,-0.52555 -1.8483,0.0787 -2.6499,-1.04138 -2.7897,-1.85095 -0.36718,-2.12611 0.95733,-5.34669 1.47227,-7.7922 0.52201,-2.4464 2.38004,-3.94432 3.88858,-4.60525 1.51385,-0.66181 3.04804,-1.98632 3.73286,-4.04076 0.68216,-2.0456 0.21411,-3.37895 0.13802,-3.83638 -0.0796,-0.45831 0.12033,-0.69366 0.40965,-0.77418 z m 160.94564,-21.86452 c 0.004,-0.002 -0.16191,0.4822 -0.16191,0.4822 -2.03233,5.85985 -5.79616,11.31094 -9.91655,15.88876 -2.99496,3.32852 -6.25977,6.35976 -9.74401,9.17157 -5.34315,4.3115 -11.41889,7.80813 -17.61407,10.73319 -6.15449,2.90559 -12.60626,5.21308 -19.16066,7.03129 -10.25276,2.84278 -21.10097,4.33362 -31.82089,4.93527 -0.81753,-1.58817 -1.79255,-3.21084 -2.89497,-4.84767 34.45308,-2.46675 57.13071,-15.96663 57.13071,-15.96663 v 0 l 0.17254,-0.13802 c 27.28465,-11.83651 33.84436,-26.9042 34.00981,-27.28996 z m -186.18204,33.93284 c 4.41679,-0.52202 12.78498,-0.41231 14.90048,-0.0469 0.0133,-0.0159 0.031,-0.0336 0.0478,-0.0495 -0.32825,0.52024 -0.62376,1.098 -0.84142,1.78547 -0.3486,1.08031 -0.61137,1.96862 -0.81399,2.69325 -5.09098,-1.39706 -13.18932,-1.82883 -13.18932,-1.82883 -0.23181,-0.34063 -0.46981,-0.79895 -0.48397,-1.30769 -0.007,-0.33268 0.15041,-0.77418 0.38045,-1.24576 z m -8.00189,-99.099077 c 0,0 -2.81889,17.608767 10.84733,42.639897 l -0.0415,-0.0755 -0.0364,-0.0652 c 0,0 9.74001,24.09249 35.28531,46.68831 l 0.77894,0.68424 c -1.86687,0.65031 -3.62226,1.35813 -5.22901,2.12434 -0.25658,0.1221 -2.83304,-2.44374 -3.14891,-2.72421 -2.57469,-2.27918 -5.08391,-4.63091 -7.51526,-7.06227 -5.66433,-5.6652 -10.88803,-11.7843 -15.46673,-18.35994 -3.71871,-5.33784 -7.05784,-10.95969 -9.75817,-16.88148 -2.63928,-5.78553 -4.79105,-11.78076 -6.13679,-18.00337 -1.267,-5.8572 -1.82883,-11.88074 -1.51208,-17.868891 0.18669,-3.539095 0.61757,-7.218868 1.76247,-10.590741 0,-0.0018 0.17076,-0.505205 0.17076,-0.505205 z m 61.49531,43.423807 c 0,0 2.40216,1.16525 3.15068,1.60232 0,0 -0.005,0.0257 -0.0124,0.0779 -0.0902,0.67243 -0.72374,5.46437 -0.75648,7.77009 -0.004,0.35391 0.003,0.64942 0.0327,0.86177 0,0 -3.11972,-0.5406 -4.50527,0.61934 0,0 0.80514,4.43448 2.97903,8.33457 2.17035,3.89742 4.75743,10.74026 5.71652,13.5043 0.39373,1.13516 1.16171,2.42251 2.41986,3.71162 1.72619,-0.95909 5.95807,-0.66004 10.56685,0.88831 4.40883,1.48111 7.84883,3.65854 8.83801,5.42278 1.58551,-0.29197 2.84012,-0.82195 3.76294,-1.43599 2.43667,-1.62444 8.62035,-5.52275 12.70889,-7.32238 4.08323,-1.79875 7.39936,-4.85033 7.39936,-4.85033 -0.33533,-1.45722 -2.30837,-2.69414 -2.98788,-3.08521 0.0602,-0.0106 0.0947,-0.015 0.0947,-0.015 1.13428,-1.14755 4.2478,-6.64023 4.63267,-7.32062 0.0274,-0.0469 0.0398,-0.0708 0.0398,-0.0708 0.86354,0.10529 3.47451,0.62023 3.47451,0.62023 0,0 -2.7198,6.32525 -4.33097,9.04858 -1.60586,2.71271 -2.91356,3.63642 -4.47961,4.74239 -1.56339,1.10242 -8.46728,5.66432 -10.29523,6.95255 -1.82175,1.28911 -6.67031,5.63866 -10.90395,6.38983 -2.09957,0.37161 -3.92131,0.41673 -5.64928,0.22297 -1.72796,-0.19466 -3.36656,-0.62731 -5.09452,-1.20595 -0.0106,-0.002 -0.0212,-0.007 -0.031,-0.0124 -0.0142,-0.004 -0.0274,-0.005 -0.0345,-0.008 -3.45681,-1.16348 -6.25977,-2.57204 -9.16271,-5.69971 -2.55965,-2.75696 -3.8293,-7.99747 -4.56101,-10.69072 -0.10529,-0.38488 -0.19819,-0.71844 -0.2849,-0.98476 -0.67685,-2.12699 -3.4285,-9.92981 -4.01245,-11.75333 -0.58749,-1.82617 -1.07146,-3.34975 -0.71224,-6.48539 0.33533,-2.94541 1.79786,-9.00611 1.98101,-9.75286 0.01,-0.0504 0.0168,-0.0761 0.0168,-0.0761 z m 39.2866,18.1529 c 0,0 1.56605,-1.10597 4.3699,-0.97237 0,0 -0.0168,0.0168 -0.0168,0.0257 v 0 l 0.0168,-0.009 c -0.0787,0.21235 -0.7149,1.95535 -0.88477,3.48601 -0.0964,0.94671 -0.55653,3.33648 -0.55653,3.35418 -0.82283,2.86667 -3.58333,4.44953 -3.83195,4.29115 -0.29198,-0.1858 -0.67154,-0.88477 0.56626,-4.84944 0,-0.19377 0.63792,-0.42381 0.77948,-0.41496 0.2557,-0.0442 0.51228,-0.0796 0.76887,-0.12387 0,0 -0.0708,-0.15041 -0.33621,-0.53086 -0.11503,-0.18669 -0.41496,-0.30171 -0.60077,-0.40788 -0.21323,-0.11503 -1.29177,-0.5928 -1.29177,-0.60165 0.20276,-1.70238 0.88877,-3.01221 1.0017,-3.2187 z m -41.81705,-33.57893 c -0.29198,4.05226 1.89341,9.9192 4.32654,11.14019 2.42428,1.2201 8.90967,3.36125 11.43304,6.23765 2.51276,2.87551 2.58354,5.92887 1.99959,8.09656 -0.18668,0.89274 -0.57598,1.95535 -0.88477,2.72511 -0.16988,-0.0442 -0.34595,-0.0708 -0.52202,-0.0885 -0.51317,-0.0619 -1.32804,-0.11591 -1.49703,0.52202 -0.008,0.0256 -0.0168,0.0442 -0.0168,0.0442 0.0796,0.2734 0.14156,0.6105 0.10617,0.7963 -0.0451,0.2035 -0.11502,0.3893 -0.15041,0.47866 -1.3891,3.90185 -2.12346,4.23718 -2.46852,4.21064 -0.29198,-0.0168 -1.53951,-2.95426 -0.46893,-5.73422 0.008,-0.0168 0.0168,-0.0345 0.0168,-0.0522 0.54856,-1.23957 1.07058,-2.14204 1.55809,-2.95603 0.85823,-1.41564 1.40679,-3.33471 1.40679,-3.33471 v 0 l 0.0168,0.0354 v -0.0274 c 0.71755,0.48751 1.32716,1.08031 1.8943,1.72531 0.0168,0.0186 0.0257,0.0274 0.0257,0.0363 0.25746,0.42469 0.65473,0.75117 0.88477,1.20329 0.0628,0.13183 0.10706,0.25658 0.10706,0.35302 0.19376,-0.74321 0.1681,-1.64479 -0.11591,-2.3703 -0.0168,-0.0266 -0.0168,-0.054 -0.0257,-0.0796 -1.05199,-2.8764 -3.77798,-4.56632 -6.30932,-5.99965 -1.68992,-0.95556 -3.45062,-1.78813 -5.22901,-2.56585 -5.21132,-2.29156 -5.29095,-3.81337 -5.98992,-6.21996 -0.0796,-0.3017 -0.15041,-0.65561 -0.2035,-1.04491 -0.0973,-0.76887 -0.12386,-1.68992 -0.12386,-2.60124 0,-2.27387 0.23004,-4.53004 0.23004,-4.53004 z m 70.59078,25.17358 c -0.0168,0.0354 -0.0363,0.0619 -0.0619,0.0964 -1.04403,1.85891 -2.44993,3.84965 -4.16816,5.14142 -1.99959,1.50412 -2.98081,2.66317 -8.52834,1.35282 -2.17654,-0.52113 -4.38051,-0.99006 -6.60041,-1.26434 -2.84101,-0.36276 -6.6013,-0.46008 -8.67167,1.92792 -0.01,0.0186 -0.0186,0.0186 -0.0354,0.0363 -0.0186,0 -0.0265,0.0177 -0.0354,0.0265 1.02634,-1.7607 2.87552,-3.50371 5.95453,-4.14074 3.74348,-0.77064 10.20144,1.4236 12.88319,1.91996 2.36234,0.43354 6.75171,-2.13319 9.26358,-5.0963 z m -34.25667,-14.30856 c 2.00047,0.80072 3.11175,2.80916 2.50922,4.61056 -0.38045,1.1502 -0.29198,2.07037 -0.20438,3.29135 v 0 l 0.0106,0.0354 v 0.0186 c 0.0434,0.98121 0.26455,1.50323 0.50256,2.17565 0.24065,0.62908 0.53263,1.62887 0.16102,2.65432 v 0 l -0.46981,1.39795 c -0.6273,1.88545 -2.89321,2.81446 -5.05117,2.0978 v 0 c 0,-0.01 1.44926,-0.38046 1.91996,-1.76955 0.008,-0.0177 0.0168,-0.0363 0.0168,-0.0531 0.89362,-0.1336 1.6731,-0.66358 1.95446,-1.51296 v 0 l 0.49636,-1.45988 c 0.49547,-1.49527 -0.61049,-2.16858 -0.67243,-4.58401 -0.0885,-1.24753 -0.17607,-2.46056 0.30967,-3.90185 0.39019,-1.16879 -0.26278,-2.46321 -1.48288,-3.00027 z m -5.29537,1.98278 c 0.61226,-1.78724 2.70829,-2.73395 4.81494,-2.14115 -1.3015,-0.32825 -2.61982,0.31851 -3.00912,1.48642 -0.48662,1.45102 -1.30946,2.35349 -2.12345,3.29135 -1.51297,1.89342 -2.80562,1.7607 -3.30021,3.25686 v 0 l -0.49547,1.45899 c -0.28401,0.84142 0.0168,1.72619 0.63704,2.37208 -0.009,0.0177 -0.0186,0.0434 -0.0186,0.0619 -0.46805,1.39794 0.46893,2.56496 0.46893,2.56496 -2.14912,-0.72463 -3.38869,-2.83039 -2.76138,-4.707 v 0 l 0.4707,-1.39794 c 0.32648,-1.04492 1.14843,-1.67222 1.73415,-2.02613 0.60076,-0.3893 1.08827,-0.67243 1.71646,-1.42449 v 0 l 0.0257,-0.0363 c 0.82461,-0.91928 1.46076,-1.60941 1.84033,-2.75961 z m 37.85416,-4.47696 0.0787,0.008 c 0,0 -1.10596,7.46837 -2.9286,10.39697 -1.82352,2.93834 -3.56475,5.64574 -8.09656,5.39801 0,0 2.62778,-0.76091 1.78813,-2.82332 -0.0619,-0.14952 -0.10618,-0.29994 -0.14157,-0.45919 1.21214,-0.68128 2.30041,-1.19445 3.29136,-2.22963 1.31831,-1.37229 2.36146,-3.06309 3.11352,-4.79636 0.32825,-0.77064 0.60341,-1.5572 0.82461,-2.36235 0,0 0.58395,-2.68175 1.71557,-3.07901 0.12476,-0.0177 0.23889,-0.0363 0.3548,-0.0531 z m -35.50862,-7.30026 c 0.9644,2.09691 8.56461,4.64506 10.64471,3.57448 -0.01,0.0442 -0.2035,2.77819 -0.19554,4.40618 0.009,1.63771 0.56714,7.96384 3.33737,9.61925 v 0 c 0.009,0 -0.68304,0.82196 0.20173,3.39754 -0.21235,-0.0708 -3.68066,-1.35371 -4.92731,-4.15933 -1.29177,-2.88524 -0.0354,-10.63586 -4.6716,-12.255 -4.67338,-1.51207 -8.3443,5.4334 -11.12426,6.95521 -2.76757,1.52093 -6.44912,0.34418 -6.44912,0.34418 2.13545,-1.4228 2.21902,-2.45149 2.22091,-2.5783 l -1.2e-4,-0.0132 c 3.20199,0.35391 7.45156,-4.35397 8.45047,-5.66343 0.99183,-1.29973 2.51276,-3.62757 2.51276,-3.62757 z m -22.14766,-12.0692 0.054,0.0354 0.0177,0.009 c 0.0787,0.0796 0.16811,0.16811 0.24774,0.25658 0.66358,0.9998 -0.48663,3.48689 -0.48663,3.48689 -0.29197,0.72552 -0.5229,1.46873 -0.71755,2.22079 -0.66358,2.57469 -0.91132,5.76872 0.15041,8.33457 0.0442,0.0885 0.71755,1.25637 0.68216,1.29176 -0.0619,0.0531 -0.12475,0.10618 -0.19553,0.15042 -0.0708,0.0531 -0.14068,0.0982 -0.21146,0.14156 -1.84122,1.07942 -0.39815,3.14979 -0.28313,3.30905 -3.75233,-2.5216 -3.52229,-5.73333 -3.19492,-9.1751 0.31852,-3.43381 3.93724,-10.06076 3.93724,-10.06076 z m 49.14033,-27.358087 1.02545,0.433539 c 26.37511,12.687654 20.56214,32.727778 19.04918,36.558848 -1.3714,3.44177 -4.0965,6.8393 -5.29006,8.77695 -1.39883,-1.53065 -3.28251,-3.81337 -4.69903,-6.37037 0.7786,-1.17675 2.29156,-2.77819 3.97263,-5.11399 1.19444,-1.67222 3.37099,-6.20226 3.37099,-11.740945 0,-6.299588 -2.81358,-13.917489 -13.06811,-20.155144 -0.0354,-0.02654 -0.0708,-0.05309 -0.11502,-0.07078 -0.12387,-0.07963 -0.25658,-0.15926 -0.3893,-0.230042 -1.31831,-0.796296 -2.62778,-1.495267 -3.85673,-2.088066 z m -40.91105,22.713024 c 4.40706,-1.097119 11.56488,5.574073 15.77552,9.087513 3.58421,3.16749 5.15115,3.46831 5.46967,3.55679 0.32648,0.12387 1.75096,0.8308 6.50308,0.4592 5.48648,-0.2557 15.219,-1.26435 18.07681,2.27475 0,0.0973 -6.91893,-0.68128 -11.58345,0.0708 -4.63622,0.9821 -11.21805,1.61117 -14.13869,0.5928 -2.93744,-0.94759 -7.81255,-5.42366 -10.90926,-8.99815 -3.24711,-3.38957 -9.19368,-6.92866 -9.19368,-7.043683 z m 14.97745,-28.950679 c 2.11461,0 4.37963,0.150412 6.81276,0.495474 0.87592,0.150411 1.72531,0.318518 2.54815,0.486625 l 0.12387,0.02654 v 0 c -25.18951,-4.291152 -30.04692,14.607613 -30.1354,19.199589 -0.0619,3.353292 0.15926,5.618312 0.0531,6.963168 -3.66296,1.530659 -7.58251,2.088066 -7.58251,2.088066 0.21234,-2.123456 0.2035,-6.812757 1.11481,-10.511111 0.85823,-3.47716 6.66235,-18.659876 27.06523,-18.748354 z"
       id="path12"
       inkscape:connector-curvature="0"
       style="fill:#b1babf" />
    <path
       d="m 231.68683,67.297654 c 13.21852,-5.397119 33.07284,1.68107 33.2498,1.743004 0.17695,0.05309 20.28786,6.379218 27.57839,18.659877 7.32593,12.342595 6.35268,23.579215 1.91996,31.781075 -4.43183,8.2107 -8.69733,12.83806 -8.58231,15.58086 0.10618,2.73395 1.28293,4.98127 1.28293,4.98127 0,0 -5.0786,10.14836 -12.55494,13.01502 0,0 -4.1319,10.67922 -8.59115,14.21832 -4.44157,3.53909 -11.07737,7.18436 -17.06729,11.97983 -2.36234,1.89342 -5.0786,3.06132 -7.97181,3.65412 0.19465,0.14156 0.38045,0.28313 0.5751,0.42469 12.04177,-0.31852 30.05577,-1.7784 48.91029,-6.84815 33.20556,-8.93621 64.74774,-39.24856 64.74774,-39.24856 -7.8913,25.8177 -11.41358,34.34692 -32.00138,48.92799 -20.59841,14.57222 -52.84841,19.02263 -52.84841,19.02263 -0.36276,1.39794 -2.49507,2.86667 -2.49507,2.86667 0,0 3.30021,1.22098 11.40474,7.31707 8.09567,6.0961 5.90144,5.79527 8.48497,7.53828 2.42697,1.62905 3.87015,1.29835 4.03616,1.25229 l 0.0161,-0.005 c 0.7786,1.56605 0.87681,3.893 0.87681,3.893 1.07854,1.01749 6.36064,6.0607 1.45014,11.28086 -4.91934,5.22017 -10.59959,0.37161 -10.59959,0.37161 -2.00843,0.42469 -3.96378,-0.23889 -3.96378,-0.23889 0,0 -10.51111,6.61811 -20.95056,-0.5928 -8.49471,-5.8572 -7.98154,-12.80267 -7.48518,-15.20041 -2.86755,1.64568 -5.94657,2.9286 -9.10432,3.91955 -8.52126,2.67201 -19.39513,3.77798 -30.19821,0.1858 -7.09589,-2.38889 -12.97079,-6.52963 -17.607,-11.1216 -4.64506,-4.60083 -8.07798,-9.67943 -10.31646,-14.25371 -0.33621,-0.69897 -0.65473,-1.38909 -0.93786,-2.06152 -0.74321,1.76955 -4.3,8.48586 -15.31543,8.0072 -12.67881,-0.54856 -17.07613,-12.16564 -17.07613,-12.16564 0,0 -1.95535,-0.65473 -3.30021,-2.19424 0,0 -7.44979,0.44239 -8.22839,-6.68888 -0.76976,-7.13128 6.49423,-7.96297 7.97181,-8.12223 0,0 1.46872,-1.80493 3.03477,-2.58353 0,0 0.88477,1.28292 3.99033,1.45102 3.10555,0.16811 1.17675,-0.92016 11.31625,-0.89362 10.13951,0.0177 13.50165,1.04403 13.50165,1.04403 0,0 -0.81399,-2.45967 -0.25658,-3.79567 0,0 -23.03066,-23.00412 -30.66626,-47.05227 -7.6356,-24.04815 -5.29979,-32.966664 3.97263,-58.324277 0,0 6.8747,43.203497 27.97655,70.348357 12.04177,15.49238 25.58765,27.56954 35.01049,35.09012 0.21235,0 0.43354,0.009 0.64589,0.009 -2.00844,-2.23848 -3.5391,-4.86626 -4.3,-7.87449 -1.88457,-7.4321 -4.97243,-14.34218 -6.38807,-19.84547 -1.41564,-5.51214 1.73416,-16.52757 1.73416,-16.52757 -4.22922,-6.77737 -2.1677,-17.93437 -2.1677,-17.93437 0,0 2.29157,-1.08827 4.03457,-3.20288 1.73416,-2.12345 1.13251,-8.38765 2.54815,-17.606991 1.41563,-9.219342 7.4144,-18.757202 20.7037,-24.180865 z m 34.28498,134.821806 c -0.30967,-0.3893 -0.82284,-0.009 -0.82284,-0.009 -3.00823,2.45967 -3.6895,7.09588 -3.71605,8.36996 -0.0177,1.27407 -3.72401,9.47592 -4.45041,11.74979 -0.0354,0.0894 -0.66358,2.04383 -0.81399,3.22058 -0.2212,1.81378 -0.15041,7.36131 8.83004,10.5465 8.22928,2.91179 15.10309,-2.54815 16.20905,-3.49486 2.30926,0.16811 3.99033,-1.03518 4.80432,-1.84033 0.33622,-0.32736 0.53972,-0.58395 0.58395,-0.64588 -0.87592,2.9109 -2.73395,3.62757 -3.86646,3.78683 -0.36275,0.0531 -0.66358,0.0531 -0.82284,0.0354 0.0265,0.0796 0.0354,0.13272 0.0531,0.20438 0.13272,0.48574 0.10617,0.77772 0.10617,0.77772 0,0 0.26544,0.13272 0.72552,0.15926 0.65473,0.0354 1.69876,-0.12387 3.0445,-1.15021 0.2212,-0.17695 0.39727,-0.36275 0.57422,-0.54856 -0.52201,1.10597 -0.11502,2.43313 0.97414,3.02593 1.13162,0.61138 2.54726,0.19465 3.15775,-0.93698 0.61935,-1.12454 0.19466,-2.54903 -0.93786,-3.15952 -0.83168,-0.45124 -1.8129,-0.33622 -2.51275,0.19465 0.68127,-1.12366 0.7609,-2.28272 0.71666,-3.00735 0,-0.12475 -0.0796,-0.68216 -0.0885,-0.68216 0.009,-0.009 0.009,-0.009 0.009,-0.009 -0.45123,-0.11502 -0.87592,-0.27428 -1.28292,-0.46893 -0.45123,-0.22119 -0.87592,-0.50432 -1.30061,-0.82284 -0.56626,-0.41584 -2.2199,-1.98189 -2.6269,-2.38889 -0.54059,-0.54856 -1.098,-1.08827 -1.64656,-1.63683 -0.66358,-0.65473 -2.12346,-1.99959 -2.79589,-2.51275 -0.13271,-0.10529 -1.62798,-1.29177 -1.88456,-1.49527 0.38045,0.3893 3.01708,3.22942 3.61872,4.83086 0.3893,0.95556 0.61049,2.15 0.54856,3.18519 -0.0177,0.29197 -0.0619,0.54856 -0.11502,0.78745 0,0 0.009,0.0177 0.0177,0.0177 -0.009,0 -0.0177,-0.009 -0.0265,-0.009 -0.0885,0.4247 -0.22119,0.7963 -0.39815,1.02634 -0.32736,0.39903 -0.84053,0.62023 -1.22983,0.73436 0.009,0 0.0177,0.009 0.0265,0.0177 0.5928,0.46893 1.20329,0.89362 1.70761,1.46872 -5.08744,4.84856 -11.89135,4.85741 -15.81975,2.9286 -3.83107,-1.87483 -4.96358,-4.19382 -4.47695,-7.38786 -1.03519,-0.22119 -2.03498,-0.86707 -2.41544,-2.45967 0.0354,0.0266 0.0805,0.0442 0.11591,0.0796 0.88477,0.71667 2.32607,0.97325 3.21969,0.12387 0.80515,-0.7609 1.43334,-2.01728 1.99959,-3.37099 0.51317,-1.23868 0.95556,-2.51275 1.53066,-3.72489 0.23004,-0.49548 0.3893,-1.03519 0.47778,-1.56605 0.25747,-1.51297 -0.0619,-3.12325 -0.80515,-4.45926 -0.80514,-1.44218 -1.22983,-3.42408 -0.53971,-5.47675 0.69897,-2.04383 1.86687,-2.82243 2.20309,-3.14095 0.34506,-0.30967 0.32736,-0.62819 0.14156,-0.86708 z m -0.53086,10.5642 c 0.7786,1.13251 1.71646,3.00027 1.53065,5.26441 0,0 -0.17695,1.1679 -0.41495,1.85802 -0.38134,1.07058 -0.70871,1.93765 -0.98299,2.63663 4.52208,2.03497 8.8035,4.57428 11.62593,6.50308 0.39815,-0.13271 0.85911,-0.35391 1.17675,-0.75206 0.20349,-0.26543 0.34594,-0.70781 0.44238,-1.22098 0.2035,-1.02634 0.16015,-2.42428 -0.3893,-3.9284 -0.46008,-1.30946 -1.46872,-2.7251 -2.45967,-3.82134 -0.12298,-0.0982 -0.25658,-0.18668 -0.38045,-0.28401 -1.00864,-0.72551 -2.04383,-1.41564 -3.09671,-2.08806 -1.45987,-0.93786 -2.94629,-1.84033 -4.45926,-2.70741 -0.71666,-0.41585 -1.43333,-0.81399 -2.15884,-1.22099 -0.15042,-0.0885 -0.29198,-0.15926 -0.43354,-0.23889 z m -38.08951,-31.37407 c -17.53621,-5.88375 -36.55885,2.81358 -40.73498,8.09568 -0.17695,0.21234 -0.33621,0.43354 -0.46893,0.67242 -0.0177,0.0266 -0.0265,0.0796 -0.0531,0.0973 0,0 -0.10617,0.15926 -0.22119,0.48663 -1.66337,4.97242 8.4142,26.10082 27.43683,32.48888 19.04033,6.38807 39.62017,-3.82222 41.47819,-9.3609 0.13272,-0.39815 0.15926,-0.72552 0.15926,-0.72552 0.1858,-1.30946 -0.10617,-3.17633 -0.83169,-5.36172 -2.83127,-8.40535 -12.24526,-21.5177 -26.7644,-26.3928 z m 11.10568,17.54329 c 6.68181,3.91689 11.65424,8.13372 14.18911,11.15346 -3.71516,-2.74015 -8.54514,-5.78288 -14.21831,-8.67255 0.0372,-0.83169 0.0478,-1.65896 0.0292,-2.48091 z m -54.32603,-24.24819 -0.10702,0.016 c -0.28312,0.0796 -0.48662,0.31852 -0.40699,0.7786 0.0796,0.45123 0.54856,1.78724 -0.14157,3.83107 -0.68127,2.06152 -2.21193,3.37984 -3.72489,4.04342 -1.51297,0.66358 -3.37099,2.15884 -3.89301,4.60967 -0.51317,2.44197 -1.84033,5.66255 -1.46872,7.786 0.13271,0.814 0.93786,1.92881 2.78704,1.85803 -1.26523,1.04403 -2.45083,0.9644 -3.42408,0.52202 -1.53066,2.82242 -3.83107,3.98148 -8.0249,3.16749 -4.2823,-0.82284 -9.71481,-4.93704 -10.83847,-11.88251 0,-0.11797 1.43775,-0.13149 2.02453,-0.13272 h 0.25818 c -0.24773,-0.32737 -0.52201,-0.81399 -0.53971,-1.32716 -0.009,-0.29198 0.11502,-0.66358 0.30083,-1.06173 0.0442,-0.0619 0.23004,-0.407 0.26543,-0.46893 0.51316,-0.9644 1.50411,-1.87572 2.44197,-2.42428 0.009,-0.009 0.0177,-0.0177 0.0265,-0.0177 1.63684,-0.98209 4.20268,-1.57489 5.83066,-1.66337 0.0442,-0.009 -0.5751,-0.0265 -0.88477,-0.0177 -2.01728,0.009 -4.02572,0.2035 -6.02531,0.48663 -1.76955,0.24774 -3.46831,0.54856 -5.0963,0.53971 -0.52201,-0.009 -1.02633,-0.0442 -1.51296,-0.13271 -0.45123,-0.0885 -0.90247,-0.2212 -1.34485,-0.407 0,0 -1.68992,1.3537 -1.7607,3.67181 -0.17696,-0.95555 -0.94671,-1.73416 -1.95535,-1.88457 -1.28293,-0.19465 -2.48622,0.68128 -2.68087,1.97305 -0.19465,1.28292 0.69897,2.48621 1.98189,2.68086 1.27408,0.19465 2.47737,-0.69012 2.67202,-1.97304 0.009,-0.0354 0.009,-0.0619 0.009,-0.0973 0.0354,0.27428 0.0885,0.56626 0.16811,0.85823 0.22119,0.82284 0.52201,1.39795 0.84053,1.84033 0.74321,1.06173 1.56605,1.22099 1.56605,1.22099 0.009,0 0.11502,-0.15041 0.12387,-0.16811 0.0531,-0.0619 0.49547,-0.52201 0.58395,-0.52201 -0.54856,-0.36276 -2.81358,-2.10577 -1.43333,-5.88375 0,0 -0.0796,3.43292 2.76049,5.25556 0.30967,1.41563 2.5393,9.90946 10.86502,12.54609 9.08663,2.89321 12.58148,-1.44218 13.40432,-3.07901 0.36276,-0.74321 1.29177,-3.06132 1.29177,-3.06132 0.78745,-2.25617 2.78704,-11.03313 3.5391,-12.05947 0.74321,-1.02633 2.99938,-5.13168 2.08806,-8.90967 0,0 -0.1858,-0.61934 -0.67243,-0.49547 z m 160.84216,-21.84675 c -0.0354,0.0708 -1.12366,0.97325 -2.88436,2.39774 -0.75206,0.61934 -1.58375,1.29177 -2.52161,2.03498 -10.24568,8.09568 -31.63065,22.6502 -66.4465,28.9144 -8.44074,1.51296 -17.04074,2.34465 -25.41955,2.71626 1.38114,1.42448 2.64548,2.87551 3.79568,4.35308 0,0 3.66297,-0.27339 4.16729,-0.31852 6.31728,-0.53086 12.63456,-1.29177 18.88107,-2.42428 15.44815,-2.78703 27.12716,-6.73312 32.66584,-8.82119 1.30062,-0.51317 2.5393,-1.03518 3.75144,-1.56605 v 0 l -0.16722,0.14157 c 0,0 -22.68648,13.50164 -57.13072,15.97016 1.09712,1.63683 2.07037,3.25597 2.89321,4.84856 10.71461,-0.60165 21.56193,-2.09691 31.81646,-4.93704 6.55617,-1.82263 13.00617,-4.12304 19.1642,-7.03395 6.19341,-2.91975 12.27181,-6.42345 17.61584,-10.7323 3.47716,-2.81358 6.74198,-5.83951 9.74136,-9.17511 4.12304,-4.57428 7.88333,-10.02448 9.91831,-15.88168 v 0 l 0.15041,-0.46008 z M 165.7358,182.22975 c -1.44218,0.28313 -3.10555,0.7963 -4.26461,1.56605 -1.3537,0.87593 -2.22078,1.9642 -2.68086,2.89321 -0.23004,0.47778 -0.3893,0.92017 -0.38045,1.24753 0.0177,0.51317 0.25658,0.96441 0.48662,1.30947 0,0 8.09568,0.43354 13.19198,1.83148 0.19465,-0.72552 0.46008,-1.61914 0.80514,-2.69856 0.22119,-0.69012 0.52202,-1.26523 0.84938,-1.78724 1.22099,-1.92881 3.02593,-2.78704 4.34424,-3.22058 -2.19424,-0.35391 -4.76008,-0.64588 -6.96317,-0.84053 -1.09712,-0.0973 -2.19424,-0.17696 -3.3002,-0.23005 -0.69013,-0.0354 -1.3891,-0.0531 -2.08807,-0.0708 z m 23.54206,6.63227 c 3.92928,-0.87239 10.64825,-1.28293 18.56344,-0.34064 -0.5176,0.64854 -1.01484,1.32008 -1.4935,2.01286 -6.46062,-1.15286 -12.32755,-1.63064 -17.06994,-1.67222 z m -38.48589,-101.267658 -0.17695,0.504321 c -1.14136,3.370988 -1.5749,7.051646 -1.7607,10.590741 -0.31852,5.989916 0.24774,12.015226 1.51296,17.863576 1.34486,6.22881 3.49486,12.21873 6.14033,18.00515 2.69856,5.92798 6.03416,11.54629 9.75906,16.88148 4.57428,6.57387 9.80329,12.6965 15.46584,18.35905 2.42428,2.43313 4.93704,4.78663 7.51173,7.06934 0.31852,0.27428 2.89321,2.84013 3.14979,2.72511 1.61029,-0.76976 3.36214,-1.47757 5.22901,-2.13231 -25.72037,-22.42901 -35.74485,-46.60103 -36.05452,-47.35308 v 0 l 0.0708,0.12386 c 0.31852,0.58396 0.63704,1.16791 0.9821,1.7607 0.63704,1.04404 1.43333,2.43313 2.46852,4.12305 4.95473,7.92757 11.5286,16.45679 20.34979,25.33107 0.0265,0.0265 10.98004,10.82963 15.65165,14.94383 1.81378,-0.49548 3.7072,-0.90247 5.6714,-1.22099 -6.50309,-5.37943 -12.9177,-11.27202 -18.78375,-17.61584 -29.62222,-32.09959 -35.28477,-61.943009 -37.18704,-69.959058 z m 61.49177,43.424688 c 0,0 -0.009,0.0266 -0.0177,0.0708 -0.1858,0.75206 -1.64568,6.81276 -1.98189,9.75906 -0.0442,0.3893 -0.0708,0.75206 -0.0885,1.09712 -0.14157,2.41543 0.28313,3.78683 0.80514,5.38827 0.58395,1.82263 3.3356,9.62634 4.00803,11.74979 0.0885,0.26544 0.1858,0.60165 0.29197,0.9821 0.72552,2.69856 1.99959,7.93642 4.55659,10.69692 2.90294,3.12325 5.70679,4.53004 9.16625,5.69794 0,0 0.0177,0 0.0265,0.009 0.0177,0 0.0265,0.009 0.0354,0.009 1.7253,0.58396 3.36214,1.00865 5.09629,1.2033 1.72531,0.19465 3.54794,0.15041 5.64574,-0.2212 4.23718,-0.75206 9.08574,-5.09629 10.90838,-6.38806 1.82263,-1.29177 8.73271,-5.84836 10.2908,-6.95432 1.56516,-1.10597 2.87552,-2.02614 4.48492,-4.74239 1.61029,-2.7251 4.32654,-9.05124 4.32654,-9.05124 0,0 -2.61008,-0.51316 -3.47716,-0.61934 0,0 -0.009,0.0266 -0.0354,0.0708 -0.3893,0.68128 -3.5037,6.17572 -4.63533,7.32593 0,0 -0.0363,0 -0.0894,0.0177 -0.407,0.0708 -2.02613,0.3893 -2.83128,0.99094 -0.92901,0.68128 -4.29115,5.68025 -8.68847,7.56482 0.41584,-2.47737 -1.18472,-3.76029 -1.60145,-3.71605 -0.40699,0.0442 -0.72462,1.01749 -0.81399,1.26522 -0.0885,0.24774 -0.93786,1.91996 -1.22098,2.70741 -0.29198,0.78745 -0.20262,0.84939 -0.20262,0.84939 -0.7087,-0.0266 -1.41652,-0.0619 -2.11549,-0.11503 0.67243,-1.27407 1.27407,-2.5393 1.84033,-3.79568 0.36823,-0.9526 -0.50928,-1.23164 -0.67976,-1.27615 l -0.0281,-0.007 -0.009,-0.009 c -0.62819,-0.0973 -1.25549,-0.19465 -1.88368,-0.31852 v 0 h -0.0628 c -0.78745,-0.14157 -1.26434,0.35391 -1.36255,0.65473 -0.0796,0.19465 -0.15838,0.39815 -0.23889,0.5928 -0.29198,0.69012 -0.60165,1.38909 -0.90247,2.07922 -0.009,0.0442 -0.0177,0.0885 -0.0442,0.12386 -0.35391,0.87593 -0.0531,1.61029 -0.0531,1.61029 -0.23888,-0.0177 -0.82283,0 -1.81378,-0.19465 -0.46008,-0.0973 -1.07943,-0.3716 -1.07943,-0.3716 0.34507,-0.28313 0.55741,-0.82284 0.55741,-0.82284 0.62819,-1.53066 1.59259,-3.90185 1.59259,-3.90185 0,0 0.38046,-1.02634 -0.28312,-1.22099 -0.90247,-0.2212 -1.79609,-0.46893 -2.68971,-0.73436 -0.68128,-0.15042 -0.97326,0.40699 -1.04404,0.59279 -0.14156,0.35391 -0.38045,0.91132 -0.46893,1.15906 -0.34506,0.9821 -0.68127,1.95535 -1.01749,2.91975 0,0.0177 0,0.0265 -0.009,0.0442 -0.21234,0.61934 -0.0442,1.21214 -0.0442,1.21214 0,0 -0.86708,-0.17696 -1.31832,-0.30082 -0.46008,-0.11502 -1.1502,-0.60165 -1.1502,-0.60165 0.1159,-0.10617 0.24774,-0.42469 0.34506,-0.64588 0.407,-1.45103 0.80514,-3.26482 1.1502,-4.78663 0.0265,-0.21235 0.0354,-0.84054 -0.61049,-1.10597 -0.7609,-0.28312 -1.52181,-0.5751 -2.26502,-0.88477 -0.66358,-0.2035 -0.95556,0.34506 -1.06173,0.66358 -0.30082,1.3714 -0.64588,3.01708 -0.87592,4.21152 -0.0973,0.83169 0.28312,1.41564 0.28312,1.41564 -0.35302,-0.0796 -1.06172,-0.3893 -1.62798,-0.62819 -0.38045,-0.15926 -1.20329,-0.70782 -1.20329,-0.70782 0.42469,-0.0354 0.66358,-0.93786 0.66358,-0.93786 0.46893,-0.9821 0.78745,-1.83148 1.15905,-2.76049 0.009,-0.0442 0.0354,-0.0796 0.0442,-0.12387 0.009,-0.0265 0.0177,-0.0442 0.0354,-0.0885 0.36276,-0.9821 -0.31852,-1.50411 -0.43354,-1.58374 -0.99094,-0.49548 -2.10576,-1.07943 -2.11461,-1.07943 -0.56625,-0.30082 -0.93786,0.0973 -1.06173,0.48663 -0.3893,1.10597 -0.99979,2.11461 -1.21214,3.3356 -0.0973,0.69012 -0.0442,1.1679 -0.0442,1.1679 -1.34486,-0.63704 -1.84033,-1.65453 -1.84033,-1.65453 0.31852,-0.38045 0.75205,-1.743 0.7609,-3.00823 0.009,-1.27407 0.0885,-2.45967 -0.50432,-2.88436 -0.5928,-0.41585 -1.58374,0.64588 -2.09691,1.40679 -0.50432,0.75206 -0.61934,1.19444 -0.61934,1.19444 v 0 0.0973 c -2.38889,-4.15844 -2.05268,-10.1926 -2.38004,-11.29856 -0.32737,-1.10597 -1.72531,-2.57469 -1.72531,-2.57469 -0.0266,-0.21235 -0.0354,-0.50432 -0.0354,-0.85823 0.0354,-2.30926 0.67242,-7.09589 0.7609,-7.76832 0.009,-0.0531 0.009,-0.0796 0.009,-0.0796 -0.74321,-0.44238 -3.1498,-1.60144 -3.1498,-1.60144 z m 31.91379,-60.023042 c -20.40288,0.08848 -26.207,15.271194 -27.06523,18.748354 -0.91131,3.698354 -0.90247,8.387655 -1.11481,10.511108 0,0 3.91955,-0.557404 7.58251,-2.088063 1.98189,-0.813991 3.893,-1.866872 5.35376,-3.273662 -0.33709,0.3893 -5.84039,6.653495 -11.72413,7.317075 0,0 -1.29177,5.6714 -2.86667,8.53807 -1.5572,2.87551 -4.60967,4.83971 -4.60967,4.83971 0,0 -0.23004,2.25617 -0.23004,4.53004 0,0.91132 0.0265,1.83148 0.12387,2.60124 0.0531,0.3893 0.12387,0.74321 0.2035,1.04403 0.69897,2.40658 0.7786,3.9284 5.98991,6.21996 1.7784,0.7786 3.5391,1.61029 5.22902,2.56584 2.53045,1.43333 5.25555,3.12325 6.30843,5.99877 0.009,0.0265 0.009,0.0531 0.0274,0.0796 0.28224,0.72551 0.30879,1.62798 0.11414,2.37119 0,-0.0973 -0.0442,-0.22119 -0.10618,-0.35391 -0.22915,-0.45123 -0.62818,-0.7786 -0.88477,-1.20329 0,-0.009 -0.008,-0.0177 -0.0265,-0.0354 -0.56626,-0.64589 -1.17675,-1.23869 -1.89342,-1.72531 v 0 0.0265 l -0.0177,-0.0354 c 0,0 -0.54856,1.91996 -1.40679,3.3356 -0.48663,0.81399 -1.00865,1.71646 -1.55721,2.95514 0,0.0177 -0.009,0.0354 -0.0177,0.0531 -1.07058,2.77819 0.17695,5.71564 0.46893,5.73333 0.34506,0.0265 1.07942,-0.30967 2.46852,-4.21152 0.0354,-0.0885 0.10617,-0.27428 0.15041,-0.47778 0.0354,-0.1858 -0.0265,-0.52202 -0.10617,-0.7963 0,0 0.009,-0.0177 0.0177,-0.0442 0.16811,-0.63704 0.9821,-0.58395 1.49527,-0.52202 0.17695,0.0177 0.35391,0.0442 0.52202,0.0885 0.0796,0.0177 0.15129,0.0354 0.21234,0.0531 0.53087,0.18581 0.82373,0.54856 0.81399,0.74321 0,0 -0.28312,0.17696 -0.49547,0.50432 -0.2035,0.32737 -0.55741,1.16791 -0.65473,1.39795 -0.35391,0.87592 -0.60961,1.58374 -0.91132,2.45967 -0.0177,0.0265 -0.0177,0.0531 -0.0177,0.0796 -0.24981,0.74165 0.38208,1.05621 0.53422,1.11997 l 0.032,0.0125 c 0,0.009 0.0885,0.0354 0.0973,0.0354 0.68127,0.12387 1.41563,0.27428 2.17654,0.43354 0,0 1.01837,0.1858 1.36255,-0.72552 0.32737,-0.9644 0.61049,-1.7607 0.97325,-2.7251 0.0177,-0.0531 0.0442,-0.11502 0.0708,-0.16811 v 0 -0.009 l 0.0266,-0.0619 c 0,0 0.22119,-0.66358 0.3194,-1.06173 0.0876,-0.3716 0.47778,-1.00864 0.8308,-1.00864 0.37161,0 0.87593,0.17696 0.82284,0.92901 -0.0531,0.75206 -0.2035,1.24753 -0.23004,1.33601 -0.009,0.0354 -0.0177,0.0796 -0.0177,0.10617 -0.33621,1.1856 -1.01749,3.68066 -1.01749,3.68066 -0.32736,0.95556 0.71756,1.25638 0.71756,1.25638 0.63615,0.17696 1.5917,0.32737 2.26413,0.53087 0.0442,0.009 0.0796,0.0177 0.13272,0.0265 0,0 0.79629,0.25658 1.07942,0.15041 0.29198,-0.10617 0.47778,-0.54856 0.53087,-0.69012 0.0442,-0.14157 1.10596,-3.84877 1.22098,-4.24692 0.0805,-0.30082 0.0442,-0.90247 -0.11502,-1.24753 0.0531,0.009 1.01749,0.17696 1.55809,0.35391 0.45035,0.15926 1.052,0.39815 1.35282,0.62819 -0.46008,0.23004 -0.76091,0.99095 -0.78745,1.09712 -0.009,0.0177 -0.0177,0.0265 -0.0177,0.0354 -0.0708,0.24774 -0.15925,0.48663 -0.23004,0.72552 -0.33621,1.01749 -0.7786,2.3181 -1.12366,3.34444 -0.0531,0.27428 -0.10617,0.95556 0.69012,1.25638 v 0 l 0.12387,0.0442 c 0.66358,0.24773 1.505,0.54856 2.12346,0.79629 0,0 0.2035,0.0796 0.46008,0.0796 0.30967,0 0.69101,-0.11502 0.86708,-0.64588 0.15926,-0.48663 0.5229,-1.56605 0.84053,-2.54815 0.31056,-0.97325 0.5928,-1.85802 0.60165,-1.9642 0.009,-0.1858 0.23004,-0.53086 0.36276,-0.64588 0.36276,-0.0266 0.62819,0.0265 0.87592,0.15041 0.29198,0.14156 0.62819,0.50432 0.76091,0.63704 -0.19465,0.33621 -0.50432,1.19444 -0.58395,1.66337 -0.0619,0.39815 -0.53087,2.10576 -0.75206,2.90206 -0.0265,0.0619 -0.0442,0.15041 -0.0699,0.22119 -0.0186,0.0266 -0.01,0.0531 -0.0186,0.0885 -0.009,0.0265 -0.0177,0.0442 -0.009,0.0619 -0.12387,0.82284 0.67242,1.23869 0.67242,1.23869 0.70782,0.33621 1.3891,0.66358 2.00933,0.97325 0,0 0.0876,0.0354 0.0964,0.0354 0,0 0.84938,0.27428 1.13251,-0.56626 0.009,-0.0265 0.0265,-0.0531 0.0354,-0.0619 0.28401,-0.88477 0.5052,-1.61914 0.75205,-2.52161 0.0619,-0.24773 0.13272,-0.49547 0.19554,-0.74321 0.0168,-0.0265 0.0257,-0.0973 0.0354,-0.19465 0.0168,-0.0619 0.14068,-0.50432 0.17607,-0.7786 0.0265,-0.14156 0.0265,-0.27428 0.0177,-0.3716 0,0 0.46981,0.1858 1.01749,0.42469 0,0.009 1.07942,0.48663 1.29176,0.60165 0.18581,0.10617 0.48663,0.22119 0.60165,0.41584 0.26543,0.3716 0.33621,0.52202 0.33621,0.52202 v 0 l -0.76975,0.12386 c -0.14156,-0.009 -0.7786,0.2212 -0.7786,0.41585 -1.23868,3.96378 -0.85823,4.66276 -0.56537,4.84856 0.24685,0.15926 3.00735,-1.41564 3.83019,-4.28231 0,-0.0265 0.46008,-2.41543 0.55829,-3.36214 0.16722,-1.53065 0.80426,-3.27366 0.88477,-3.486 v 0 l -0.0186,0.009 c 0,-0.009 0.0186,-0.0265 0.0186,-0.0265 -2.80562,-0.13272 -4.37167,0.97325 -4.37167,0.97325 0.17696,-0.42469 0.43354,-0.78745 0.70782,-1.11481 0.0177,-0.0177 0.0266,-0.0177 0.0354,-0.0354 2.07038,-2.38889 5.83066,-2.29157 8.67079,-1.92881 2.22078,0.27428 4.42387,0.74321 6.60041,1.26522 5.55638,1.30947 6.53051,0.15042 8.52922,-1.3537 1.72619,-1.29177 3.1321,-3.28251 4.17613,-5.14053 0.0186,-0.0354 0.0442,-0.0619 0.0619,-0.0973 0.46008,-0.70782 0.7786,-1.22099 0.7786,-1.22099 0,0 -1.25638,-3.40638 -0.76975,-6.64465 0.49547,-3.22942 2.87551,-8.54691 2.87551,-8.54691 -4.42386,-4.19383 -4.93703,-12.91769 -4.93703,-12.91769 0.27428,1.76954 0.99094,3.53909 1.91996,5.20246 1.41652,2.557 3.3002,4.83972 4.69903,6.37037 1.19356,-1.93765 3.91866,-5.33518 5.29006,-8.77695 1.51296,-3.83107 7.32593,-23.871194 -19.04918,-36.558848 v 0 l -1.02545,-0.433539 c -0.56714,-0.27428 -1.1157,-0.522017 -1.63771,-0.760906 -0.53087,-0.238889 -1.03519,-0.451234 -1.51297,-0.637037 -0.36275,-0.150411 -0.70782,-0.283127 -1.03518,-0.406996 -0.25659,-0.09732 -0.49459,-0.185802 -0.71578,-0.27428 -0.78834,-0.291975 -1.44307,-0.50432 -1.92085,-0.654732 -0.0973,-0.03539 -0.1858,-0.06193 -0.28313,-0.09732 -0.97325,-0.309671 -4.69814,-1.433334 -9.3432,-2.397737 v 0 l -0.12387,-0.02654 c -0.82284,-0.168107 -1.67223,-0.336214 -2.54815,-0.486625 -2.43313,-0.345062 -4.69815,-0.495474 -6.81276,-0.495474 z m -1.59879,56.787432 c 0.3893,-1.16791 1.70762,-1.81467 3.00912,-1.48642 0.0796,0.0177 0.15837,0.0345 0.23004,0.0619 0.0858,0.0283 0.16722,0.0628 0.25039,0.0964 1.2201,0.53706 1.87307,1.83148 1.48288,3.00027 -0.48574,1.44129 -0.39815,2.65432 -0.30967,3.90185 0.0619,2.41543 1.1679,3.08874 0.67243,4.58401 v 0 l -0.49636,1.45988 c -0.28136,0.84938 -1.06084,1.37936 -1.95446,1.51296 -0.41673,0.0531 -0.85912,0.0531 -1.30151,-0.0885 -1.36963,-0.46008 -2.14026,-1.85891 -1.71557,-3.10555 0.0708,-0.21235 -0.054,-0.44239 -0.27517,-0.5229 -0.22119,-0.0699 -0.45035,0.0442 -0.52113,0.24862 -0.41496,1.25638 -1.87572,1.90226 -3.25597,1.44218 -0.44238,-0.15041 -0.79629,-0.41584 -1.09711,-0.72551 -0.62023,-0.64589 -0.92105,-1.53066 -0.63704,-2.37208 v 0 l 0.49547,-1.45899 c 0.49459,-1.49616 1.78724,-1.36344 3.30021,-3.25686 0.81399,-0.93786 1.63683,-1.84033 2.12345,-3.29135 z m 11.18443,-7.54801 c 0,0 0.0345,0.0442 0.0531,0.0708 0.13272,0.19465 0.75118,1.05377 1.69877,1.9642 v 0 c 0.16811,0.16811 0.34418,0.32737 0.53086,0.48751 0.009,0.008 0.0257,0.0168 0.0345,0.0345 0.69101,0.5751 1.505,1.10596 2.44375,1.41652 2.85605,0.9644 7.02421,0.28224 11.49232,-0.53175 0.39019,-0.061 0.76975,-0.11413 1.15109,-0.15926 4.00803,-0.45919 7.53031,0.42558 7.53031,0.42558 v 0 l 0.008,0.0257 -0.0787,-0.008 c -0.11591,0.0168 -0.23004,0.0354 -0.3548,0.0531 -1.13162,0.39726 -1.71557,3.07901 -1.71557,3.07901 -0.2212,0.80515 -0.49636,1.59171 -0.82461,2.36235 -0.75206,1.73327 -1.79521,3.42407 -3.11352,4.79636 -0.99095,1.03518 -2.07922,1.54835 -3.29136,2.22963 -0.01,-0.009 -0.01,-0.009 -0.01,-0.009 -0.0168,0 -0.69897,0.21234 -1.06084,0.2557 -2.74457,0.3371 -8.51241,-0.54768 -11.28087,-2.44198 -0.0274,-0.009 -0.0451,-0.0177 -0.0619,-0.0257 v 0 c -2.77908,-1.65541 -3.33737,-7.98154 -3.34622,-9.61925 -0.008,-1.62799 0.18581,-4.36194 0.19554,-4.40618 z m -32.76494,-15.64368 c 0.20261,0.0796 3.41434,1.48642 6.24562,4.18498 0.28401,0.26632 0.55829,0.54059 0.82461,0.82284 3.07724,3.34533 5.98991,6.40664 8.84773,7.3622 0.92902,0.30967 1.91023,0.38045 2.80474,0.3371 0.009,0 0.0257,0 0.0451,-0.01 0.24685,-0.009 0.48574,-0.0266 0.7149,-0.0531 v 0 c 1.46872,-0.1858 2.63751,-0.5751 2.63751,-0.5751 0,0 -1.52093,2.32784 -2.51276,3.62757 -0.99891,1.30946 -5.24848,6.01734 -8.45047,5.66343 -0.0257,0 -0.0531,-0.0177 -0.0796,-0.0177 -3.35418,-0.16811 -8.49383,-2.93833 -10.47661,-4.85829 -0.26455,-0.26543 -0.67154,-0.84054 -0.68039,-0.84054 -0.0619,0.0531 -0.12475,0.0973 -0.19553,0.14157 0.0708,-0.0442 0.1336,-0.0973 0.19553,-0.15042 0.0354,-0.0354 -0.63792,-1.20329 -0.68216,-1.29176 -1.06173,-2.56585 -0.81399,-5.75988 -0.15041,-8.33457 0.19465,-0.75206 0.42558,-1.49527 0.71755,-2.22079 0,0 1.15021,-2.48709 0.48663,-3.48689 -0.0796,-0.0885 -0.169,-0.17695 -0.24774,-0.25658 v 0 l -0.0177,-0.009 c 0,-0.008 -0.01,-0.0168 -0.0265,-0.0354 z"
       id="path14"
       inkscape:connector-curvature="0"
       style="fill:#0a0b09" />
    <path
       d="m 252.84,214.91064 c -7.04811,4.44245 -22.7785,8.55222 -37.92759,3.47096 -14.86862,-4.99277 -24.74801,-17.70255 -27.91196,-25.44078 -0.37072,-0.80337 -0.46716,-2.97195 1.70496,-3.97706 0,0 -1.37228,0.19554 -2.60831,1.20949 0,0 -0.10883,0.16014 -0.22031,0.49193 -1.66426,4.96447 8.41154,26.09729 27.43595,32.48358 19.03502,6.38896 39.62193,-3.82133 41.47995,-9.35559 0.12741,-0.40257 0.15307,-0.7264 0.15307,-0.7264 -0.43177,-1.35459 -1.25815,-2.19866 -1.25815,-2.19866 1.05819,1.99693 -0.0274,3.46123 -0.84761,4.04253"
       id="path16"
       inkscape:connector-curvature="0"
       style="fill:#c2242b" />
    <path
       d="m 238.42792,201.33379 c -0.0106,0.23888 -0.023,0.47954 -0.0363,0.71932 -0.62642,-0.31764 -1.25992,-0.63439 -1.90492,-0.9476 -0.23801,1.4413 -0.58926,2.86402 -1.06969,4.2593 -0.95202,-0.55298 -1.92527,-1.08384 -2.90472,-1.59347 0.43089,-1.3369 0.76887,-2.68971 1.02634,-4.05138 -1.04845,-0.47601 -2.11992,-0.94317 -3.21261,-1.39971 -0.28844,1.29265 -0.63438,2.58442 -1.03873,3.87088 -1.00333,-0.46362 -2.01728,-0.90866 -3.03654,-1.32627 0.39815,-1.25107 0.75914,-2.50126 1.08739,-3.74525 -1.06969,-0.41231 -2.15708,-0.81311 -3.26216,-1.20064 -0.37692,1.20772 -0.7671,2.42782 -1.17144,3.655 -1.03961,-0.37337 -2.08011,-0.72463 -3.13299,-1.05111 0.41673,-1.22276 0.84054,-2.43047 1.26877,-3.62049 -1.11482,-0.3548 -2.22432,-0.68836 -3.32763,-1.00245 -0.48751,1.18825 -0.95379,2.3995 -1.3891,3.63553 -1.06261,-0.28401 -2.14115,-0.54059 -3.21881,-0.77771 0.44858,-1.26258 0.95114,-2.4933 1.49616,-3.69393 -1.14932,-0.29109 -2.28891,-0.56184 -3.41434,-0.81046 -0.6105,1.23338 -1.1511,2.50745 -1.60941,3.824 -1.08827,-0.18846 -2.18539,-0.34772 -3.28162,-0.48398 0.453,-1.38644 1.02633,-2.71979 1.69611,-3.99917 -0.70782,-0.13537 -1.40945,-0.26278 -2.10222,-0.38311 0.15041,-0.22739 0.30347,-0.453 0.45831,-0.67685 -6.46062,-1.15286 -12.32755,-1.63064 -17.06994,-1.67222 3.92928,-0.87239 10.64825,-1.28293 18.56344,-0.34064 0.0602,-0.0761 0.11856,-0.15395 0.18049,-0.22827 0.60076,0.0708 1.2086,0.15041 1.82263,0.238 0.54325,-0.78745 1.1219,-1.55189 1.73327,-2.29156 1.02369,0.13183 2.02348,0.28224 3.00204,0.44681 -0.55652,0.76267 -1.08827,1.54835 -1.59348,2.35438 1.08474,0.1973 2.18363,0.42204 3.2949,0.67243 0.45301,-0.82903 0.92459,-1.64214 1.41122,-2.43401 0.93343,0.20084 1.85271,0.41672 2.75607,0.64765 -0.41496,0.82019 -0.82107,1.65984 -1.21834,2.51276 1.0343,0.27605 2.0748,0.57687 3.12148,0.90335 0.32914,-0.87681 0.66005,-1.74212 0.99007,-2.5915 0.87769,0.27251 1.74831,0.5636 2.61273,0.87504 -0.25039,0.87681 -0.50786,1.76512 -0.77417,2.66317 1.03164,0.36718 2.04205,0.75294 3.03477,1.15197 0.19642,-0.91574 0.3778,-1.82528 0.5406,-2.7251 0.8653,0.35922 1.72442,0.73967 2.59238,1.14578 -0.0894,0.91663 -0.20261,1.84033 -0.33887,2.76581 1.03519,0.46273 2.0456,0.93963 3.02947,1.42802 0.0787,-0.93167 0.12741,-1.86333 0.14333,-2.79058 0.88301,0.45832 1.76955,0.94317 2.66583,1.45457 0.0416,0.93521 0.0442,1.86953 0.005,2.8012 0.54149,0.29551 1.07147,0.59279 1.59348,0.89273 0.005,0.14599 0.007,0.29198 0.0106,0.43885 6.68181,3.91689 11.65424,8.13372 14.18911,11.15346 -3.71516,-2.74015 -8.54514,-5.78288 -14.21831,-8.67255 z m -11.07471,-20.02332 c -17.53356,-5.88197 -36.55796,2.80916 -40.74029,8.09126 -0.16988,0.215 -0.33002,0.44062 -0.4645,0.67862 -0.0142,0.0248 -0.031,0.0743 -0.0513,0.0929 1.23603,-1.01395 2.60831,-1.20949 2.60831,-1.20949 -2.17212,1.00511 -2.07568,3.17369 -1.70496,3.97706 3.16395,7.73823 13.04334,20.44801 27.91196,25.44078 15.14909,5.08126 30.87948,0.97149 37.92759,-3.47096 0.82019,-0.5813 1.9058,-2.0456 0.84761,-4.04253 0,0 0.82638,0.84407 1.25815,2.19866 0.18315,-1.31566 -0.10352,-3.17899 -0.83434,-5.35996 -2.82508,-8.40623 -12.23996,-21.52477 -26.75821,-26.39634 z"
       id="path18"
       inkscape:connector-curvature="0"
       style="fill:#dc4405" />
  </g>
</svg>
