<?xml version="1.0" encoding="UTF-8" standalone="no"?>
<svg
   xmlns:dc="http://purl.org/dc/elements/1.1/"
   xmlns:cc="http://creativecommons.org/ns#"
   xmlns:rdf="http://www.w3.org/1999/02/22-rdf-syntax-ns#"
   xmlns:svg="http://www.w3.org/2000/svg"
   xmlns="http://www.w3.org/2000/svg"
   xmlns:sodipodi="http://sodipodi.sourceforge.net/DTD/sodipodi-0.dtd"
   xmlns:inkscape="http://www.inkscape.org/namespaces/inkscape"
   viewBox="0 0 500 500"
   version="1.1"
   id="svg24"
   sodipodi:docname="tampa-bay-buccaneers-logo.svg"
   inkscape:export-filename="C:\Users\suitedoalex\sites\tampa-bay-buccaneers-logo-0.png"
   inkscape:export-xdpi="786.43201"
   inkscape:export-ydpi="786.43201"
   inkscape:version="0.92.4 (5da689c313, 2019-01-14)">
  <metadata
     id="metadata30">
    <rdf:RDF>
      <cc:Work
         rdf:about="">
        <dc:format>image/svg+xml</dc:format>
        <dc:type
           rdf:resource="http://purl.org/dc/dcmitype/StillImage" />
        <dc:title></dc:title>
      </cc:Work>
    </rdf:RDF>
  </metadata>
  <defs
     id="defs28" />
  <sodipodi:namedview
     pagecolor="#ffffff"
     bordercolor="#666666"
     borderopacity="1"
     objecttolerance="10"
     gridtolerance="10"
     guidetolerance="10"
     inkscape:pageopacity="0"
     inkscape:pageshadow="2"
     inkscape:window-width="1600"
     inkscape:window-height="837"
     id="namedview26"
     showgrid="false"
     inkscape:zoom="0.472"
     inkscape:cx="-35.046393"
     inkscape:cy="381.10422"
     inkscape:window-x="-8"
     inkscape:window-y="-8"
     inkscape:window-maximized="1"
     inkscape:current-layer="svg24" />
  <g
     id="g22"
     transform="translate(-57.20339,-67.79661)"
     style="fill:none;fill-rule:evenodd"
     inkscape:export-filename="C:\Users\suitedoalex\sites\tampa-bay-buccaneers-logo-4.png"
     inkscape:export-xdpi="114.09315"
     inkscape:export-ydpi="114.09315" />
  <g
     style="fill:none;fill-rule:evenodd"
     transform="matrix(0.78310128,0,0,0.78310128,81.716469,100.33987)"
     id="g20"
     inkscape:export-filename="C:\Users\suitedoalex\sites\tampa-bay-buccaneers-logo-4.png"
     inkscape:export-xdpi="114.09315"
     inkscape:export-ydpi="114.09315">
    <path
       d="m 262.4858,339.88757 c -0.009,0.0177 -0.0177,0.0442 -0.0265,0.0619 -0.009,0.009 -0.009,0.0177 -0.009,0.0265 0.009,-0.0177 0.0177,-0.0354 0.0265,-0.0531 0,-0.0177 0.009,-0.0265 0.009,-0.0354 z m 90.99013,-104.70411 c -20.04897,9.34321 -66.31291,24.83559 -112.38396,16.23559 -16.03209,-2.99053 -37.13395,-7.99835 -65.03971,-24.91522 C 157.7463,215.41761 137.98045,204.81802 91.90144,205.02152 53.732304,205.20732 29.215226,222.50465 21.411523,228.93695 42.124074,161.35794 103.35041,171.24086 103.35041,171.24086 92.17572,165.87914 78.762551,167.93181 78.762551,167.93181 97.944444,137.75218 67.0393,123.62235 67.0393,123.62235 c 2.601235,0 14.333334,-3.38869 20.323251,-5.47675 5.998766,-2.07922 17.005349,-3.5214 17.005349,-3.5214 -3.83992,-3.53025 -15.704731,-6.37922 -15.704731,-6.37922 11.210082,0 21.358431,-5.43251 28.418931,-12.78498 2.45967,-2.556996 9.1928,-15.359671 1.5572,-20.323251 -7.0251,-4.565432 -20.960288,0.504321 -20.969135,0.513169 0.0177,-0.0177 41.717075,-44.946502 127.770165,-25.746914 40.82346,9.113169 86.84053,33.019753 129.32736,33.276338 14.28025,0.08848 45.78704,-4.547737 64.58848,-23.473046 -0.99094,35.957202 -7.68868,86.318514 -65.88024,175.477164 z m -54.16585,79.11646 c -0.0531,-0.0442 -0.13271,-0.0973 -0.17695,-0.13272 -1.08827,-0.99094 -2.49418,-2.18539 -4.05227,-3.48601 2.5393,-3.61872 31.63066,-46.87531 40.15988,-60.28847 2.98257,-1.05289 5.88375,-2.20309 8.75041,-3.40638 -5.76784,9.12201 -37.24012,56.54588 -44.68107,67.31358 z m -1.52181,37.86831 c -3.94609,3.44177 -10.65267,5.63601 -17.66008,5.50329 -6.2465,-0.12387 -10.63498,-1.13251 -14.60761,-3.29136 -0.0177,0.0442 -0.0265,0.0796 -0.0345,0.13272 -0.31056,0.26543 -0.93875,1.70761 -5.52984,2.38889 -3.07989,0.50432 -4.86625,-0.11502 -5.05294,-0.17696 5.41482,5.47675 10.31646,2.02614 10.31646,2.02614 0.23093,0.95555 0.56626,1.63683 0.56626,1.63683 0,0 -1.6271,2.38977 -6.58272,1.56605 -0.60164,-0.0973 -1.11481,-0.26543 -1.61913,-0.45124 0.0973,0.0531 0.1858,0.0885 0.28312,0.15041 1.90227,1.24753 2.41544,3.80453 1.16879,5.69795 -1.26611,1.90226 -3.81426,2.41543 -5.71564,1.1679 -1.8943,-1.25638 -2.41632,-3.81338 -1.15994,-5.70679 1.02634,-1.5572 2.90206,-2.1677 4.59198,-1.66338 -3.71605,-1.78724 -4.67161,-5.52098 -4.67161,-5.52098 4.75124,-4.21153 4.60083,-11.83828 9.44939,-22.43786 0.22119,-0.48663 0.46893,-0.9821 0.70782,-1.47758 0,0.0177 -0.009,0.0354 -0.0177,0.0531 -1.05288,2.63662 -2.06152,7.16667 -1.64568,10.46687 0.0885,0.71667 0.23093,1.3714 0.39815,2.00844 v 0.009 c 0.0708,0.29197 1.69876,6.88353 6.14918,5.81296 -0.0442,0.0973 -0.69013,1.54835 -0.69898,1.56605 1.94651,1.21214 6.40577,3.32675 13.99712,3.42407 10.66153,0.14157 16.49219,-6.8738 18.09363,-12.09485 1.25726,-4.06111 -0.69013,-8.57346 -4.707,-12.5284 1.17675,-1.36255 1.89342,-3.26393 1.10597,-5.88374 0.36275,1.21214 -1.91111,3.37098 -4.30885,3.15864 -0.22119,-0.0177 -0.43354,-0.0531 -0.65473,-0.11502 -3.61873,-1.00864 -7.74177,-5.41482 -11.23663,-8.0249 -3.47716,-2.61008 -4.49465,-6.6535 -4.42387,-9.52016 0.0531,-2.86667 -0.92016,-6.2642 -3.65411,-8.83889 -2.73395,-2.57381 -5.18389,-2.82243 -5.96338,-3.02593 -0.78745,-0.21146 -1.00864,-0.69897 -0.92901,-1.22099 0.16015,-0.85823 1.26611,-0.69897 1.26611,-0.69897 6.6358,1.32716 11.48348,7.90192 12.55406,9.82984 0.99094,1.76954 11.46666,9.9537 15.51893,13.53704 1.89341,1.38024 10.09526,7.67098 11.56399,14.12098 1.743,7.69753 -2.91887,14.98807 -6.857,18.42099 z m -11.82058,-17.50082 c 1.30062,0.64588 3.16749,1.91111 4.04342,3.74259 0.23004,0.48663 0.33621,0.95556 0.33621,1.47757 0.13361,2.14115 -2.37119,5.27325 -4.59197,6.09609 -1.61029,0.66358 -3.74259,0.99095 -5.80412,0.9821 -0.65473,0 -1.30061,-0.0265 -1.9288,-0.0885 0.58395,-0.98209 1.29177,-2.17654 2.07922,-3.45946 1.76954,-2.89321 3.96467,-6.2642 5.86604,-8.75041 z m -18.47407,-12.7319 c 1.75274,-2.97284 3.59218,-5.89259 5.45905,-8.79465 0.0885,-0.13183 0.17696,-0.26543 0.26544,-0.39814 -0.0796,0.61049 -0.29198,3.92839 0.82284,7.21975 0.64588,1.5749 1.67222,3.16749 3.29136,4.65391 1.45102,1.33601 2.66316,2.40658 3.67181,3.24712 -4.90077,6.33498 -11.84712,18.1821 -11.84712,18.1821 -2.97284,0.17695 -4.45926,-0.80515 -6.13945,-4.38848 -0.23977,-0.51317 -0.42558,-1.07943 -0.56714,-1.67222 v -0.009 c -0.88477,-3.68951 -0.0796,-8.44074 -0.061,-8.57346 0.12299,-0.24773 3.42319,-6.6181 5.10426,-9.46708 z m 48.97222,-66.01296 c 4.06996,-0.99095 8.09568,-2.07037 12.05062,-3.30905 0.11502,-0.0354 0.23093,-0.0708 0.34506,-0.11502 -4.04341,6.13148 -35.87757,51.67963 -38.07181,54.63477 -0.17695,-0.14156 -5.64485,-4.82202 -5.83862,-4.99012 8.11249,-11.27202 31.05467,-45.52161 31.51475,-46.22058 z M 416.33998,19.997654 c -0.50521,24.225103 -7.14101,41.097737 -7.14101,41.097737 -9.48389,5.680247 -22.42901,11.740946 -37.21358,13.935185 C 341.09883,79.596008 325.92407,74.97749 297.31934,65.82893 268.7323,56.68037 225.82963,36.94107 181.79444,37.233045 137.75041,37.516173 106.3144,56.636132 78.152058,78.383868 c 0.433539,-0.132716 7.343621,-2.291564 9.838683,-3.114403 0,0 -6.573869,7.715226 -8.573457,12.006379 0,0 13.103498,-9.794445 31.090946,-8.750412 0,0 -6.25535,1.566049 -8.86543,5.476749 0,0 7.29938,-1.574897 8.6,1.300617 1.30946,2.866667 -3.12325,9.387449 -11.201236,13.032716 -8.077984,3.654116 -21.119548,6.520786 -29.462963,7.042796 0,0 8.352263,2.61008 13.820164,7.8214 0,0 -6.37037,0.91132 -13.298148,3.64527 -5.768724,2.28272 -16.164815,3.65411 -20.597531,3.1321 0,0 6.069548,5.68025 13.298149,10.16605 21.163786,13.13004 12.227572,32.59506 5.414814,38.97428 -4.485802,1.27407 -51.24609,13.99712 -61.9606992,89.48601 0,0 23.6942382,-33.05515 59.5718112,-42.18601 35.886419,-9.13087 70.675719,0 88.937449,8.90967 18.26173,8.91852 46.53025,28.48086 83.2749,34.57695 20.20823,3.35329 44.5395,2.7428 68.09218,-1.7607 -0.38046,0.58395 -18.35021,27.31297 -26.07428,38.08951 0,0 -5.73334,-7.20206 -13.4928,-7.91872 0,0 -3.25597,-0.65474 -5.89259,0.71666 v 0.009 c -2.32696,1.07058 -4.3177,3.36214 -4.96358,6.53848 -0.65385,3.22057 0.51316,5.71563 2.03586,7.48518 1.45014,1.68992 3.27278,2.54815 4.75035,2.9463 1.31831,0.31852 3.14979,1.12366 3.49486,2.86667 -3.5391,5.4502 -8.38766,13.32469 -11.88251,20.93374 -2.7428,5.98992 -4.05227,11.13045 -5.14939,14.58992 -1.03518,3.54794 -1.95535,4.93703 -2.25617,5.11399 l -3.7249,3.28251 c 0,0 1.42449,5.75988 1.83148,6.72428 -0.90246,1.71646 -1.3537,3.60988 -1.36255,5.47675 v 0.10617 c 0,3.9107 1.92881,7.75062 5.43251,10.06076 2.73395,1.88369 6.68889,1.99871 6.68889,1.99871 3.90185,0 7.73292,-1.92881 10.04218,-5.39712 0.55741,-0.84054 0.98299,-1.72531 1.29177,-2.61009 2.80474,-1.14135 4.53004,-2.73395 5.42367,-4.04341 2.07921,0.47778 8.13107,0.66358 8.3788,0.66358 8.45844,-0.0619 16.47449,-2.48622 22.34054,-7.48519 4.71584,-4.22037 9.86522,-11.43923 10.03333,-21.1107 0,-1.7253 0.52202,-10.82078 -8.2107,-18.04053 7.54712,-10.90926 16.81955,-24.50823 26.56975,-39.25741 18.12902,-27.47222 32.95782,-51.34341 44.23869,-71.27648 11.80288,-20.2622 48.73333,-75.92331 48.6537,-152.137715 -0.0354,-22.207819 -7.98862,-36.470371 -7.98862,-36.470371 z M 262.45926,339.94951 c -0.009,0.009 -0.009,0.0177 -0.009,0.0265 0.009,-0.0177 0.0177,-0.0354 0.0265,-0.0531 0,-0.0177 0.009,-0.0265 0.009,-0.0354 -0.009,0.0177 -0.0177,0.0442 -0.0265,0.0619 z"
       id="path6"
       inkscape:connector-curvature="0"
       style="fill:#000000" />
  </g>
</svg>
