<?xml version="1.0" encoding="UTF-8" standalone="no"?>
<svg
   xmlns:dc="http://purl.org/dc/elements/1.1/"
   xmlns:cc="http://creativecommons.org/ns#"
   xmlns:rdf="http://www.w3.org/1999/02/22-rdf-syntax-ns#"
   xmlns:svg="http://www.w3.org/2000/svg"
   xmlns="http://www.w3.org/2000/svg"
   xmlns:sodipodi="http://sodipodi.sourceforge.net/DTD/sodipodi-0.dtd"
   xmlns:inkscape="http://www.inkscape.org/namespaces/inkscape"
   viewBox="0 0 500 500"
   version="1.1"
   id="svg24"
   sodipodi:docname="tampa-bay-buccaneers-logo.svg"
   inkscape:export-filename="C:\Users\suitedoalex\sites\tampa-bay-buccaneers-logo-0.png"
   inkscape:export-xdpi="786.43201"
   inkscape:export-ydpi="786.43201"
   inkscape:version="0.92.4 (5da689c313, 2019-01-14)">
  <metadata
     id="metadata30">
    <rdf:RDF>
      <cc:Work
         rdf:about="">
        <dc:format>image/svg+xml</dc:format>
        <dc:type
           rdf:resource="http://purl.org/dc/dcmitype/StillImage" />
        <dc:title></dc:title>
      </cc:Work>
    </rdf:RDF>
  </metadata>
  <defs
     id="defs28" />
  <sodipodi:namedview
     pagecolor="#ffffff"
     bordercolor="#666666"
     borderopacity="1"
     objecttolerance="10"
     gridtolerance="10"
     guidetolerance="10"
     inkscape:pageopacity="0"
     inkscape:pageshadow="2"
     inkscape:window-width="1600"
     inkscape:window-height="837"
     id="namedview26"
     showgrid="false"
     inkscape:zoom="0.472"
     inkscape:cx="-35.046393"
     inkscape:cy="381.10422"
     inkscape:window-x="-8"
     inkscape:window-y="-8"
     inkscape:window-maximized="1"
     inkscape:current-layer="svg24" />
  <g
     id="g22"
     transform="translate(-57.20339,-67.79661)"
     style="fill:none;fill-rule:evenodd"
     inkscape:export-filename="C:\Users\suitedoalex\sites\tampa-bay-buccaneers-logo-4.png"
     inkscape:export-xdpi="114.09315"
     inkscape:export-ydpi="114.09315" />
  <g
     style="fill:none;fill-rule:evenodd"
     transform="matrix(0.78310128,0,0,0.78310128,81.716469,100.33987)"
     id="g20"
     inkscape:export-filename="C:\Users\suitedoalex\sites\tampa-bay-buccaneers-logo-4.png"
     inkscape:export-xdpi="114.09315"
     inkscape:export-ydpi="114.09315">
    <path
       d="m 263.74041,296.9557 c 0.16103,-0.85823 1.267,-0.69897 1.267,-0.69897 6.6358,1.32716 11.48436,7.90103 12.55405,9.82983 0.99183,1.77044 11.46755,9.95459 15.51982,13.53793 1.8943,1.38024 10.09615,7.67187 11.56399,14.12187 1.74389,7.69753 -2.91887,14.98806 -6.857,18.42187 -3.94609,3.44177 -10.65356,5.63512 -17.66097,5.50329 -6.2465,-0.12475 -10.63498,-1.13251 -14.60672,-3.29136 -0.0195,0.0442 -0.0283,0.0796 -0.0363,0.13272 -0.30967,0.26455 -0.93874,1.70673 -5.52983,2.38889 -3.0799,0.50432 -4.86626,-0.11502 -5.05295,-0.17696 5.4157,5.47764 10.31646,2.02614 10.31646,2.02614 0.23181,0.95644 0.56626,1.63683 0.56626,1.63683 0,0 -1.6271,2.38977 -6.58183,1.56693 -0.60253,-0.0982 -1.1157,-0.26543 -1.61914,-0.45123 0.0964,0.0531 0.18492,0.0885 0.28224,0.15041 1.90315,1.24753 2.41544,3.80453 1.16879,5.69706 -1.26611,1.90314 -3.81337,2.41631 -5.71564,1.16878 -1.8943,-1.25638 -2.41631,-3.81337 -1.15994,-5.70679 1.02634,-1.5572 2.90118,-2.16858 4.59198,-1.66337 -3.71605,-1.78725 -4.67161,-5.52276 -4.67161,-5.52276 0,0 0.11502,0.0354 0.31852,0.0628 1.27408,0.16811 6.08725,-0.0177 8.57434,-11.44012 0.0708,0.29197 1.69877,6.88265 6.14918,5.81207 -0.0442,0.0982 -0.69012,1.54836 -0.69897,1.56694 1.94562,1.21214 6.40576,3.32675 13.99712,3.42407 10.66241,0.14157 16.49307,-6.87469 18.09539,-12.09485 1.25638,-4.062 -0.69012,-8.57435 -4.70788,-12.52928 1.17675,-1.36256 1.8943,-3.26482 1.10597,-5.88463 0.36275,1.21302 -1.91111,3.37187 -4.30974,3.15952 -0.22119,-0.0186 -0.43177,-0.054 -0.65296,-0.11502 -3.61961,-1.00952 -7.74354,-5.4157 -11.23751,-8.02578 -3.47716,-2.61008 -4.49465,-6.6535 -4.42387,-9.52016 0.0513,-2.86756 -0.92105,-6.26509 -3.655,-8.83978 -2.73395,-2.57469 -5.18389,-2.82243 -5.96337,-3.02592 -0.78834,-0.21235 -1.00953,-0.69897 -0.9299,-1.22099 z m 22.22463,37.71082 c 1.30062,0.64589 3.16749,1.91111 4.04342,3.74259 0.23004,0.48663 0.3371,0.95556 0.3371,1.47669 0.1336,2.14204 -2.3712,5.27414 -4.59286,6.09786 -1.61029,0.66358 -3.74348,0.99095 -5.80501,0.98122 -0.65473,0 -1.29884,-0.0257 -1.92792,-0.0876 0.58395,-0.98298 1.29266,-2.17654 2.07834,-3.45946 1.76954,-2.8941 3.96555,-6.26508 5.86693,-8.7513 z M 274.04006,319.9607 c 0.64589,1.5749 1.67222,3.16749 3.29136,4.65391 1.45191,1.33601 2.66317,2.40658 3.6727,3.248 -4.90165,6.33498 -11.84801,18.1821 -11.84801,18.1821 -2.97195,0.17784 -4.46014,-0.80426 -6.14033,-4.38848 -0.23977,-0.51405 -0.42469,-1.07942 -0.56625,-1.67222 5.44843,-11.99664 11.58168,-20.01535 11.59053,-20.02331 z m 69.95198,-72.97082 c -5.76873,9.12201 -37.2419,56.53969 -44.68461,67.30827 -0.0513,-0.0442 -0.13272,-0.0973 -0.17607,-0.13272 -1.08916,-0.99094 -2.49506,-2.18627 -4.05227,-3.48601 2.53842,-3.6196 31.63243,-46.87796 40.16165,-60.28317 2.98257,-1.05376 5.88463,-2.20308 8.7513,-3.40637 z M 265.1472,202.1115 c 0,0 0.51671,-0.38222 0.82549,0.008 0.18138,0.24066 0.20262,0.55299 -0.13979,0.86797 -0.33533,0.31763 -1.50854,1.10066 -2.20309,3.14006 -0.69631,2.05267 -0.26454,4.03634 0.53706,5.47498 0.74498,1.33512 1.06173,2.94453 0.80515,4.4566 -0.0876,0.53706 -0.25216,1.075 -0.48132,1.56782 -0.56891,1.21568 -1.01484,2.48622 -1.52977,3.72578 -0.5636,1.35105 -1.18914,2.6092 -1.99428,3.37453 -0.89363,0.8485 -2.33581,0.58661 -3.21969,-0.12741 -0.0363,-0.0301 -0.0805,-0.0487 -0.11503,-0.0796 0.37249,1.59702 1.37317,2.23583 2.41013,2.46587 -0.48574,3.18607 0.645,5.50506 4.48138,7.38697 3.92485,1.92262 10.73319,1.91642 15.81709,-2.93656 -0.50874,-0.57245 -1.11835,-0.99183 -1.71115,-1.46695 -0.009,-0.007 -0.0177,-0.0159 -0.0257,-0.0186 0.3955,-0.11413 0.90513,-0.3309 1.22984,-0.73524 0.18138,-0.22562 0.30967,-0.59722 0.40257,-1.02457 v 0 l 0.0212,0.0159 c 0.18668,0.14067 0.36983,0.27251 0.55121,0.39372 0.29551,0.19819 0.60342,0.37337 0.91751,0.53706 0.49813,0.25658 1.01926,0.45477 1.5634,0.58749 0.38841,0.0938 0.82283,0.15306 1.22364,0.15306 1.16701,0 2.25175,-0.45389 3.17457,-1.14578 0.0106,-0.008 0.023,-0.0133 0.0319,-0.0212 0.01,0.004 0.0876,0.56537 0.0929,0.68924 0.038,0.72639 -0.0416,1.88191 -0.72375,3.00911 0.70251,-0.53617 1.68461,-0.65031 2.51718,-0.19553 1.13075,0.61049 1.5519,2.02701 0.93698,3.15421 -0.61049,1.12986 -2.02525,1.55278 -3.15599,0.93786 -1.09181,-0.59279 -1.49615,-1.92349 -0.97236,-3.02946 -0.18138,0.18669 -0.3548,0.37691 -0.58218,0.55475 -1.33955,1.02811 -2.38536,1.18737 -3.03655,1.14755 -0.46273,-0.0292 -0.73082,-0.15749 -0.73082,-0.15749 0,0 0.0274,-0.29374 -0.10352,-0.78214 -0.0177,-0.0663 -0.0283,-0.12475 -0.0522,-0.19907 0.15926,0.0142 0.45477,0.0186 0.82284,-0.0327 1.13339,-0.16103 2.98611,-0.87946 3.87442,-3.79656 0,0 -0.21765,0.28313 -0.59103,0.64942 -0.81576,0.80515 -2.49594,2.01021 -4.80786,1.83856 -1.1095,0.95113 -7.978,6.41019 -16.20728,3.49751 -8.98665,-3.18253 -9.05566,-8.73006 -8.83093,-10.54207 0.14688,-1.18383 0.77949,-3.13299 0.81046,-3.22766 0.73082,-2.2721 4.43802,-10.47572 4.4566,-11.74625 0.0212,-1.27054 0.70163,-5.90852 3.71074,-8.36908 z m 1.82706,15.8348 c 1.89784,0.98298 8.64158,5.93948 11.84889,9.02557 -0.10087,0.51406 -0.24243,0.95998 -0.44593,1.22099 -0.31852,0.39903 -0.78125,0.61846 -1.17852,0.75206 -2.82066,-1.93146 -7.1065,-4.46457 -11.62504,-6.49867 0.27871,-0.69808 0.59988,-1.56516 0.98122,-2.63839 0.24154,-0.69012 0.41938,-1.86156 0.41938,-1.86156 z m -82.94665,-43.32295 c 0.48397,-0.1274 0.66889,0.49194 0.66889,0.49194 0.9122,3.77621 -1.34132,7.88599 -2.08806,8.91232 -0.75029,1.0228 -2.74723,9.80418 -3.53556,12.06124 0,0 -0.9299,2.31545 -1.29973,3.0622 -0.81576,1.63152 -4.31681,5.96337 -13.40344,3.07636 -8.32306,-2.64105 -10.54915,-11.12869 -10.8606,-12.54875 -2.83746,-1.82617 -2.75783,-5.25732 -2.75783,-5.25732 -1.39618,3.80098 0.89893,5.54133 1.43775,5.88994 -0.0619,-0.0407 -0.53882,0.45742 -0.59456,0.5229 -0.009,0.01 -0.11503,0.16191 -0.12387,0.16014 0,0 -0.81577,-0.15395 -1.56605,-1.21391 -0.31233,-0.44239 -0.61669,-1.02457 -0.83965,-1.84387 -0.0814,-0.29551 -0.1336,-0.58129 -0.16369,-0.85557 -0.004,0.0318 -0.004,0.0619 -0.009,0.0929 -0.19377,1.28469 -1.39618,2.16592 -2.6791,1.97393 -1.28204,-0.19377 -2.17035,-1.39706 -1.97658,-2.68175 0.19288,-1.28646 1.39617,-2.16947 2.67821,-1.97216 1.01218,0.15129 1.77662,0.93167 1.95977,1.88722 0.0717,-2.31545 1.7607,-3.67181 1.7607,-3.67181 0.0195,0.0725 0.97148,4.1027 6.29428,4.1027 -0.18492,0.39903 -0.30613,0.77152 -0.29905,1.06084 0.0177,0.51936 0.2902,0.99802 0.54325,1.32804 v 0 l -0.26143,-1e-4 c -0.58815,9.6e-4 -2.02247,0.0141 -2.02394,0.13724 1.12631,6.94105 6.55529,11.05171 10.8429,11.8834 4.18852,0.81399 6.4907,-0.34949 8.02047,-3.1728 0.96971,0.44239 2.1615,0.52025 3.42408,-0.52555 -1.8483,0.0787 -2.6499,-1.04138 -2.7897,-1.85095 -0.36718,-2.12611 0.95733,-5.34669 1.47227,-7.7922 0.52201,-2.4464 2.38004,-3.94432 3.88858,-4.60525 1.51385,-0.66181 3.04804,-1.98632 3.73286,-4.04076 0.68216,-2.0456 0.21411,-3.37895 0.13802,-3.83638 -0.0796,-0.45831 0.12033,-0.69366 0.40965,-0.77418 z m 160.94564,-21.86452 c 0.004,-0.002 -0.16191,0.4822 -0.16191,0.4822 -2.03233,5.85985 -5.79616,11.31094 -9.91655,15.88876 -2.99496,3.32852 -6.25977,6.35976 -9.74401,9.17157 -5.34315,4.3115 -11.41889,7.80813 -17.61407,10.73319 -6.15449,2.90559 -12.60626,5.21308 -19.16066,7.03129 -10.25276,2.84278 -21.10097,4.33362 -31.82089,4.93527 -0.81753,-1.58817 -1.79255,-3.21084 -2.89497,-4.84767 34.45308,-2.46675 57.13071,-15.96663 57.13071,-15.96663 v 0 l 0.17254,-0.13802 c 27.28465,-11.83651 33.84436,-26.9042 34.00981,-27.28996 z m -186.18204,33.93284 c 4.41679,-0.52202 12.78498,-0.41231 14.90048,-0.0469 0.0133,-0.0159 0.031,-0.0336 0.0478,-0.0495 -0.32825,0.52024 -0.62376,1.098 -0.84142,1.78547 -0.3486,1.08031 -0.61137,1.96862 -0.81399,2.69325 -5.09098,-1.39706 -13.18932,-1.82883 -13.18932,-1.82883 -0.23181,-0.34063 -0.46981,-0.79895 -0.48397,-1.30769 -0.007,-0.33268 0.15041,-0.77418 0.38045,-1.24576 z m -8.00189,-99.099077 c 0,0 -2.81889,17.608767 10.84733,42.639897 l -0.0415,-0.0755 -0.0364,-0.0652 c 0,0 9.74001,24.09249 35.28531,46.68831 l 0.77894,0.68424 c -1.86687,0.65031 -3.62226,1.35813 -5.22901,2.12434 -0.25658,0.1221 -2.83304,-2.44374 -3.14891,-2.72421 -2.57469,-2.27918 -5.08391,-4.63091 -7.51526,-7.06227 -5.66433,-5.6652 -10.88803,-11.7843 -15.46673,-18.35994 -3.71871,-5.33784 -7.05784,-10.95969 -9.75817,-16.88148 -2.63928,-5.78553 -4.79105,-11.78076 -6.13679,-18.00337 -1.267,-5.8572 -1.82883,-11.88074 -1.51208,-17.868891 0.18669,-3.539095 0.61757,-7.218868 1.76247,-10.590741 0,-0.0018 0.17076,-0.505205 0.17076,-0.505205 z m 61.49531,43.423807 c 0,0 2.40216,1.16525 3.15068,1.60232 0,0 -0.005,0.0257 -0.0124,0.0779 -0.0902,0.67243 -0.72374,5.46437 -0.75648,7.77009 -0.004,0.35391 0.003,0.64942 0.0327,0.86177 0,0 -3.11972,-0.5406 -4.50527,0.61934 0,0 0.80514,4.43448 2.97903,8.33457 2.17035,3.89742 4.75743,10.74026 5.71652,13.5043 0.39373,1.13516 1.16171,2.42251 2.41986,3.71162 1.72619,-0.95909 5.95807,-0.66004 10.56685,0.88831 4.40883,1.48111 7.84883,3.65854 8.83801,5.42278 1.58551,-0.29197 2.84012,-0.82195 3.76294,-1.43599 2.43667,-1.62444 8.62035,-5.52275 12.70889,-7.32238 4.08323,-1.79875 7.39936,-4.85033 7.39936,-4.85033 -0.33533,-1.45722 -2.30837,-2.69414 -2.98788,-3.08521 0.0602,-0.0106 0.0947,-0.015 0.0947,-0.015 1.13428,-1.14755 4.2478,-6.64023 4.63267,-7.32062 0.0274,-0.0469 0.0398,-0.0708 0.0398,-0.0708 0.86354,0.10529 3.47451,0.62023 3.47451,0.62023 0,0 -2.7198,6.32525 -4.33097,9.04858 -1.60586,2.71271 -2.91356,3.63642 -4.47961,4.74239 -1.56339,1.10242 -8.46728,5.66432 -10.29523,6.95255 -1.82175,1.28911 -6.67031,5.63866 -10.90395,6.38983 -2.09957,0.37161 -3.92131,0.41673 -5.64928,0.22297 -1.72796,-0.19466 -3.36656,-0.62731 -5.09452,-1.20595 -0.0106,-0.002 -0.0212,-0.007 -0.031,-0.0124 -0.0142,-0.004 -0.0274,-0.005 -0.0345,-0.008 -3.45681,-1.16348 -6.25977,-2.57204 -9.16271,-5.69971 -2.55965,-2.75696 -3.8293,-7.99747 -4.56101,-10.69072 -0.10529,-0.38488 -0.19819,-0.71844 -0.2849,-0.98476 -0.67685,-2.12699 -3.4285,-9.92981 -4.01245,-11.75333 -0.58749,-1.82617 -1.07146,-3.34975 -0.71224,-6.48539 0.33533,-2.94541 1.79786,-9.00611 1.98101,-9.75286 0.01,-0.0504 0.0168,-0.0761 0.0168,-0.0761 z m 39.2866,18.1529 c 0,0 1.56605,-1.10597 4.3699,-0.97237 0,0 -0.0168,0.0168 -0.0168,0.0257 v 0 l 0.0168,-0.009 c -0.0787,0.21235 -0.7149,1.95535 -0.88477,3.48601 -0.0964,0.94671 -0.55653,3.33648 -0.55653,3.35418 -0.82283,2.86667 -3.58333,4.44953 -3.83195,4.29115 -0.29198,-0.1858 -0.67154,-0.88477 0.56626,-4.84944 0,-0.19377 0.63792,-0.42381 0.77948,-0.41496 0.2557,-0.0442 0.51228,-0.0796 0.76887,-0.12387 0,0 -0.0708,-0.15041 -0.33621,-0.53086 -0.11503,-0.18669 -0.41496,-0.30171 -0.60077,-0.40788 -0.21323,-0.11503 -1.29177,-0.5928 -1.29177,-0.60165 0.20276,-1.70238 0.88877,-3.01221 1.0017,-3.2187 z m -41.81705,-33.57893 c -0.29198,4.05226 1.89341,9.9192 4.32654,11.14019 2.42428,1.2201 8.90967,3.36125 11.43304,6.23765 2.51276,2.87551 2.58354,5.92887 1.99959,8.09656 -0.18668,0.89274 -0.57598,1.95535 -0.88477,2.72511 -0.16988,-0.0442 -0.34595,-0.0708 -0.52202,-0.0885 -0.51317,-0.0619 -1.32804,-0.11591 -1.49703,0.52202 -0.008,0.0256 -0.0168,0.0442 -0.0168,0.0442 0.0796,0.2734 0.14156,0.6105 0.10617,0.7963 -0.0451,0.2035 -0.11502,0.3893 -0.15041,0.47866 -1.3891,3.90185 -2.12346,4.23718 -2.46852,4.21064 -0.29198,-0.0168 -1.53951,-2.95426 -0.46893,-5.73422 0.008,-0.0168 0.0168,-0.0345 0.0168,-0.0522 0.54856,-1.23957 1.07058,-2.14204 1.55809,-2.95603 0.85823,-1.41564 1.40679,-3.33471 1.40679,-3.33471 v 0 l 0.0168,0.0354 v -0.0274 c 0.71755,0.48751 1.32716,1.08031 1.8943,1.72531 0.0168,0.0186 0.0257,0.0274 0.0257,0.0363 0.25746,0.42469 0.65473,0.75117 0.88477,1.20329 0.0628,0.13183 0.10706,0.25658 0.10706,0.35302 0.19376,-0.74321 0.1681,-1.64479 -0.11591,-2.3703 -0.0168,-0.0266 -0.0168,-0.054 -0.0257,-0.0796 -1.05199,-2.8764 -3.77798,-4.56632 -6.30932,-5.99965 -1.68992,-0.95556 -3.45062,-1.78813 -5.22901,-2.56585 -5.21132,-2.29156 -5.29095,-3.81337 -5.98992,-6.21996 -0.0796,-0.3017 -0.15041,-0.65561 -0.2035,-1.04491 -0.0973,-0.76887 -0.12386,-1.68992 -0.12386,-2.60124 0,-2.27387 0.23004,-4.53004 0.23004,-4.53004 z m 70.59078,25.17358 c -0.0168,0.0354 -0.0363,0.0619 -0.0619,0.0964 -1.04403,1.85891 -2.44993,3.84965 -4.16816,5.14142 -1.99959,1.50412 -2.98081,2.66317 -8.52834,1.35282 -2.17654,-0.52113 -4.38051,-0.99006 -6.60041,-1.26434 -2.84101,-0.36276 -6.6013,-0.46008 -8.67167,1.92792 -0.01,0.0186 -0.0186,0.0186 -0.0354,0.0363 -0.0186,0 -0.0265,0.0177 -0.0354,0.0265 1.02634,-1.7607 2.87552,-3.50371 5.95453,-4.14074 3.74348,-0.77064 10.20144,1.4236 12.88319,1.91996 2.36234,0.43354 6.75171,-2.13319 9.26358,-5.0963 z m -34.25667,-14.30856 c 2.00047,0.80072 3.11175,2.80916 2.50922,4.61056 -0.38045,1.1502 -0.29198,2.07037 -0.20438,3.29135 v 0 l 0.0106,0.0354 v 0.0186 c 0.0434,0.98121 0.26455,1.50323 0.50256,2.17565 0.24065,0.62908 0.53263,1.62887 0.16102,2.65432 v 0 l -0.46981,1.39795 c -0.6273,1.88545 -2.89321,2.81446 -5.05117,2.0978 v 0 c 0,-0.01 1.44926,-0.38046 1.91996,-1.76955 0.008,-0.0177 0.0168,-0.0363 0.0168,-0.0531 0.89362,-0.1336 1.6731,-0.66358 1.95446,-1.51296 v 0 l 0.49636,-1.45988 c 0.49547,-1.49527 -0.61049,-2.16858 -0.67243,-4.58401 -0.0885,-1.24753 -0.17607,-2.46056 0.30967,-3.90185 0.39019,-1.16879 -0.26278,-2.46321 -1.48288,-3.00027 z m -5.29537,1.98278 c 0.61226,-1.78724 2.70829,-2.73395 4.81494,-2.14115 -1.3015,-0.32825 -2.61982,0.31851 -3.00912,1.48642 -0.48662,1.45102 -1.30946,2.35349 -2.12345,3.29135 -1.51297,1.89342 -2.80562,1.7607 -3.30021,3.25686 v 0 l -0.49547,1.45899 c -0.28401,0.84142 0.0168,1.72619 0.63704,2.37208 -0.009,0.0177 -0.0186,0.0434 -0.0186,0.0619 -0.46805,1.39794 0.46893,2.56496 0.46893,2.56496 -2.14912,-0.72463 -3.38869,-2.83039 -2.76138,-4.707 v 0 l 0.4707,-1.39794 c 0.32648,-1.04492 1.14843,-1.67222 1.73415,-2.02613 0.60076,-0.3893 1.08827,-0.67243 1.71646,-1.42449 v 0 l 0.0257,-0.0363 c 0.82461,-0.91928 1.46076,-1.60941 1.84033,-2.75961 z m 37.85416,-4.47696 0.0787,0.008 c 0,0 -1.10596,7.46837 -2.9286,10.39697 -1.82352,2.93834 -3.56475,5.64574 -8.09656,5.39801 0,0 2.62778,-0.76091 1.78813,-2.82332 -0.0619,-0.14952 -0.10618,-0.29994 -0.14157,-0.45919 1.21214,-0.68128 2.30041,-1.19445 3.29136,-2.22963 1.31831,-1.37229 2.36146,-3.06309 3.11352,-4.79636 0.32825,-0.77064 0.60341,-1.5572 0.82461,-2.36235 0,0 0.58395,-2.68175 1.71557,-3.07901 0.12476,-0.0177 0.23889,-0.0363 0.3548,-0.0531 z m -35.50862,-7.30026 c 0.9644,2.09691 8.56461,4.64506 10.64471,3.57448 -0.01,0.0442 -0.2035,2.77819 -0.19554,4.40618 0.009,1.63771 0.56714,7.96384 3.33737,9.61925 v 0 c 0.009,0 -0.68304,0.82196 0.20173,3.39754 -0.21235,-0.0708 -3.68066,-1.35371 -4.92731,-4.15933 -1.29177,-2.88524 -0.0354,-10.63586 -4.6716,-12.255 -4.67338,-1.51207 -8.3443,5.4334 -11.12426,6.95521 -2.76757,1.52093 -6.44912,0.34418 -6.44912,0.34418 2.13545,-1.4228 2.21902,-2.45149 2.22091,-2.5783 l -1.2e-4,-0.0132 c 3.20199,0.35391 7.45156,-4.35397 8.45047,-5.66343 0.99183,-1.29973 2.51276,-3.62757 2.51276,-3.62757 z m -22.14766,-12.0692 0.054,0.0354 0.0177,0.009 c 0.0787,0.0796 0.16811,0.16811 0.24774,0.25658 0.66358,0.9998 -0.48663,3.48689 -0.48663,3.48689 -0.29197,0.72552 -0.5229,1.46873 -0.71755,2.22079 -0.66358,2.57469 -0.91132,5.76872 0.15041,8.33457 0.0442,0.0885 0.71755,1.25637 0.68216,1.29176 -0.0619,0.0531 -0.12475,0.10618 -0.19553,0.15042 -0.0708,0.0531 -0.14068,0.0982 -0.21146,0.14156 -1.84122,1.07942 -0.39815,3.14979 -0.28313,3.30905 -3.75233,-2.5216 -3.52229,-5.73333 -3.19492,-9.1751 0.31852,-3.43381 3.93724,-10.06076 3.93724,-10.06076 z m 49.14033,-27.358087 1.02545,0.433539 c 26.37511,12.687654 20.56214,32.727778 19.04918,36.558848 -1.3714,3.44177 -4.0965,6.8393 -5.29006,8.77695 -1.39883,-1.53065 -3.28251,-3.81337 -4.69903,-6.37037 0.7786,-1.17675 2.29156,-2.77819 3.97263,-5.11399 1.19444,-1.67222 3.37099,-6.20226 3.37099,-11.740945 0,-6.299588 -2.81358,-13.917489 -13.06811,-20.155144 -0.0354,-0.02654 -0.0708,-0.05309 -0.11502,-0.07078 -0.12387,-0.07963 -0.25658,-0.15926 -0.3893,-0.230042 -1.31831,-0.796296 -2.62778,-1.495267 -3.85673,-2.088066 z m -40.91105,22.713024 c 4.40706,-1.097119 11.56488,5.574073 15.77552,9.087513 3.58421,3.16749 5.15115,3.46831 5.46967,3.55679 0.32648,0.12387 1.75096,0.8308 6.50308,0.4592 5.48648,-0.2557 15.219,-1.26435 18.07681,2.27475 0,0.0973 -6.91893,-0.68128 -11.58345,0.0708 -4.63622,0.9821 -11.21805,1.61117 -14.13869,0.5928 -2.93744,-0.94759 -7.81255,-5.42366 -10.90926,-8.99815 -3.24711,-3.38957 -9.19368,-6.92866 -9.19368,-7.043683 z m 14.97745,-28.950679 c 2.11461,0 4.37963,0.150412 6.81276,0.495474 0.87592,0.150411 1.72531,0.318518 2.54815,0.486625 l 0.12387,0.02654 v 0 c -25.18951,-4.291152 -30.04692,14.607613 -30.1354,19.199589 -0.0619,3.353292 0.15926,5.618312 0.0531,6.963168 -3.66296,1.530659 -7.58251,2.088066 -7.58251,2.088066 0.21234,-2.123456 0.2035,-6.812757 1.11481,-10.511111 0.85823,-3.47716 6.66235,-18.659876 27.06523,-18.748354 z"
       id="path12"
       inkscape:connector-curvature="0"
       style="fill:#b1babf" />
  </g>
</svg>
