<?xml version="1.0" encoding="UTF-8" standalone="no"?>
<svg
   xmlns:dc="http://purl.org/dc/elements/1.1/"
   xmlns:cc="http://creativecommons.org/ns#"
   xmlns:rdf="http://www.w3.org/1999/02/22-rdf-syntax-ns#"
   xmlns:svg="http://www.w3.org/2000/svg"
   xmlns="http://www.w3.org/2000/svg"
   xmlns:sodipodi="http://sodipodi.sourceforge.net/DTD/sodipodi-0.dtd"
   xmlns:inkscape="http://www.inkscape.org/namespaces/inkscape"
   viewBox="0 0 500 500"
   version="1.1"
   id="svg24"
   sodipodi:docname="tampa-bay-buccaneers-logo.svg"
   inkscape:export-filename="C:\Users\suitedoalex\sites\tampa-bay-buccaneers-logo-0.png"
   inkscape:export-xdpi="786.43201"
   inkscape:export-ydpi="786.43201"
   inkscape:version="0.92.4 (5da689c313, 2019-01-14)">
  <metadata
     id="metadata30">
    <rdf:RDF>
      <cc:Work
         rdf:about="">
        <dc:format>image/svg+xml</dc:format>
        <dc:type
           rdf:resource="http://purl.org/dc/dcmitype/StillImage" />
        <dc:title></dc:title>
      </cc:Work>
    </rdf:RDF>
  </metadata>
  <defs
     id="defs28" />
  <sodipodi:namedview
     pagecolor="#ffffff"
     bordercolor="#666666"
     borderopacity="1"
     objecttolerance="10"
     gridtolerance="10"
     guidetolerance="10"
     inkscape:pageopacity="0"
     inkscape:pageshadow="2"
     inkscape:window-width="1600"
     inkscape:window-height="837"
     id="namedview26"
     showgrid="false"
     inkscape:zoom="0.472"
     inkscape:cx="-35.046393"
     inkscape:cy="381.10422"
     inkscape:window-x="-8"
     inkscape:window-y="-8"
     inkscape:window-maximized="1"
     inkscape:current-layer="svg24" />
  <g
     id="g22"
     transform="translate(-57.20339,-67.79661)"
     style="fill:none;fill-rule:evenodd"
     inkscape:export-filename="C:\Users\suitedoalex\sites\tampa-bay-buccaneers-logo-4.png"
     inkscape:export-xdpi="114.09315"
     inkscape:export-ydpi="114.09315" />
  <g
     style="fill:none;fill-rule:evenodd"
     transform="matrix(0.78310128,0,0,0.78310128,81.716469,100.33987)"
     id="g20"
     inkscape:export-filename="C:\Users\suitedoalex\sites\tampa-bay-buccaneers-logo-4.png"
     inkscape:export-xdpi="114.09315"
     inkscape:export-ydpi="114.09315">
    <path
       d="m 238.42792,201.33379 c -0.0106,0.23888 -0.023,0.47954 -0.0363,0.71932 -0.62642,-0.31764 -1.25992,-0.63439 -1.90492,-0.9476 -0.23801,1.4413 -0.58926,2.86402 -1.06969,4.2593 -0.95202,-0.55298 -1.92527,-1.08384 -2.90472,-1.59347 0.43089,-1.3369 0.76887,-2.68971 1.02634,-4.05138 -1.04845,-0.47601 -2.11992,-0.94317 -3.21261,-1.39971 -0.28844,1.29265 -0.63438,2.58442 -1.03873,3.87088 -1.00333,-0.46362 -2.01728,-0.90866 -3.03654,-1.32627 0.39815,-1.25107 0.75914,-2.50126 1.08739,-3.74525 -1.06969,-0.41231 -2.15708,-0.81311 -3.26216,-1.20064 -0.37692,1.20772 -0.7671,2.42782 -1.17144,3.655 -1.03961,-0.37337 -2.08011,-0.72463 -3.13299,-1.05111 0.41673,-1.22276 0.84054,-2.43047 1.26877,-3.62049 -1.11482,-0.3548 -2.22432,-0.68836 -3.32763,-1.00245 -0.48751,1.18825 -0.95379,2.3995 -1.3891,3.63553 -1.06261,-0.28401 -2.14115,-0.54059 -3.21881,-0.77771 0.44858,-1.26258 0.95114,-2.4933 1.49616,-3.69393 -1.14932,-0.29109 -2.28891,-0.56184 -3.41434,-0.81046 -0.6105,1.23338 -1.1511,2.50745 -1.60941,3.824 -1.08827,-0.18846 -2.18539,-0.34772 -3.28162,-0.48398 0.453,-1.38644 1.02633,-2.71979 1.69611,-3.99917 -0.70782,-0.13537 -1.40945,-0.26278 -2.10222,-0.38311 0.15041,-0.22739 0.30347,-0.453 0.45831,-0.67685 -6.46062,-1.15286 -12.32755,-1.63064 -17.06994,-1.67222 3.92928,-0.87239 10.64825,-1.28293 18.56344,-0.34064 0.0602,-0.0761 0.11856,-0.15395 0.18049,-0.22827 0.60076,0.0708 1.2086,0.15041 1.82263,0.238 0.54325,-0.78745 1.1219,-1.55189 1.73327,-2.29156 1.02369,0.13183 2.02348,0.28224 3.00204,0.44681 -0.55652,0.76267 -1.08827,1.54835 -1.59348,2.35438 1.08474,0.1973 2.18363,0.42204 3.2949,0.67243 0.45301,-0.82903 0.92459,-1.64214 1.41122,-2.43401 0.93343,0.20084 1.85271,0.41672 2.75607,0.64765 -0.41496,0.82019 -0.82107,1.65984 -1.21834,2.51276 1.0343,0.27605 2.0748,0.57687 3.12148,0.90335 0.32914,-0.87681 0.66005,-1.74212 0.99007,-2.5915 0.87769,0.27251 1.74831,0.5636 2.61273,0.87504 -0.25039,0.87681 -0.50786,1.76512 -0.77417,2.66317 1.03164,0.36718 2.04205,0.75294 3.03477,1.15197 0.19642,-0.91574 0.3778,-1.82528 0.5406,-2.7251 0.8653,0.35922 1.72442,0.73967 2.59238,1.14578 -0.0894,0.91663 -0.20261,1.84033 -0.33887,2.76581 1.03519,0.46273 2.0456,0.93963 3.02947,1.42802 0.0787,-0.93167 0.12741,-1.86333 0.14333,-2.79058 0.88301,0.45832 1.76955,0.94317 2.66583,1.45457 0.0416,0.93521 0.0442,1.86953 0.005,2.8012 0.54149,0.29551 1.07147,0.59279 1.59348,0.89273 0.005,0.14599 0.007,0.29198 0.0106,0.43885 6.68181,3.91689 11.65424,8.13372 14.18911,11.15346 -3.71516,-2.74015 -8.54514,-5.78288 -14.21831,-8.67255 z m -11.07471,-20.02332 c -17.53356,-5.88197 -36.55796,2.80916 -40.74029,8.09126 -0.16988,0.215 -0.33002,0.44062 -0.4645,0.67862 -0.0142,0.0248 -0.031,0.0743 -0.0513,0.0929 1.23603,-1.01395 2.60831,-1.20949 2.60831,-1.20949 -2.17212,1.00511 -2.07568,3.17369 -1.70496,3.97706 3.16395,7.73823 13.04334,20.44801 27.91196,25.44078 15.14909,5.08126 30.87948,0.97149 37.92759,-3.47096 0.82019,-0.5813 1.9058,-2.0456 0.84761,-4.04253 0,0 0.82638,0.84407 1.25815,2.19866 0.18315,-1.31566 -0.10352,-3.17899 -0.83434,-5.35996 -2.82508,-8.40623 -12.23996,-21.52477 -26.75821,-26.39634 z"
       id="path18"
       inkscape:connector-curvature="0"
       style="fill:#dc4405" />
  </g>
</svg>
