<?xml version="1.0" encoding="UTF-8" standalone="no"?>
<svg
   xmlns:dc="http://purl.org/dc/elements/1.1/"
   xmlns:cc="http://creativecommons.org/ns#"
   xmlns:rdf="http://www.w3.org/1999/02/22-rdf-syntax-ns#"
   xmlns:svg="http://www.w3.org/2000/svg"
   xmlns="http://www.w3.org/2000/svg"
   xmlns:sodipodi="http://sodipodi.sourceforge.net/DTD/sodipodi-0.dtd"
   xmlns:inkscape="http://www.inkscape.org/namespaces/inkscape"
   viewBox="0 0 500 500"
   version="1.1"
   id="svg24"
   sodipodi:docname="tampa-bay-buccaneers-logo.svg"
   inkscape:export-filename="C:\Users\suitedoalex\sites\tampa-bay-buccaneers-logo-0.png"
   inkscape:export-xdpi="786.43201"
   inkscape:export-ydpi="786.43201"
   inkscape:version="0.92.4 (5da689c313, 2019-01-14)">
  <metadata
     id="metadata30">
    <rdf:RDF>
      <cc:Work
         rdf:about="">
        <dc:format>image/svg+xml</dc:format>
        <dc:type
           rdf:resource="http://purl.org/dc/dcmitype/StillImage" />
        <dc:title></dc:title>
      </cc:Work>
    </rdf:RDF>
  </metadata>
  <defs
     id="defs28" />
  <sodipodi:namedview
     pagecolor="#ffffff"
     bordercolor="#666666"
     borderopacity="1"
     objecttolerance="10"
     gridtolerance="10"
     guidetolerance="10"
     inkscape:pageopacity="0"
     inkscape:pageshadow="2"
     inkscape:window-width="1600"
     inkscape:window-height="837"
     id="namedview26"
     showgrid="false"
     inkscape:zoom="0.472"
     inkscape:cx="-35.046393"
     inkscape:cy="381.10422"
     inkscape:window-x="-8"
     inkscape:window-y="-8"
     inkscape:window-maximized="1"
     inkscape:current-layer="svg24" />
  <g
     id="g22"
     transform="translate(-57.20339,-67.79661)"
     style="fill:none;fill-rule:evenodd"
     inkscape:export-filename="C:\Users\suitedoalex\sites\tampa-bay-buccaneers-logo-4.png"
     inkscape:export-xdpi="114.09315"
     inkscape:export-ydpi="114.09315" />
  <g
     style="fill:none;fill-rule:evenodd"
     transform="matrix(0.78310128,0,0,0.78310128,81.716469,100.33987)"
     id="g20"
     inkscape:export-filename="C:\Users\suitedoalex\sites\tampa-bay-buccaneers-logo-4.png"
     inkscape:export-xdpi="114.09315"
     inkscape:export-ydpi="114.09315">
    <path
       d="m 331.43621,279.88222 c -9.7502,14.74918 -19.02263,28.34815 -26.56975,39.25741 8.73272,7.21975 8.2107,16.31523 8.2107,18.04053 -0.16811,9.67147 -5.31749,16.89033 -10.03333,21.1107 -5.86605,4.99897 -13.8821,7.42325 -22.34054,7.48519 -0.24773,0 -6.29959,-0.1858 -8.3788,-0.66358 -0.89363,1.30946 -2.61893,2.90206 -5.42367,4.04341 -0.30878,0.88478 -0.73436,1.76955 -1.29177,2.61009 -2.30926,3.46831 -6.14033,5.39712 -10.04218,5.39712 0,0 -3.95494,-0.11502 -6.68889,-1.99871 -3.5037,-2.31014 -5.43251,-6.15006 -5.43251,-10.06076 v -0.10617 c 0.009,-1.86687 0.46009,-3.76029 1.36255,-5.47675 -0.40699,-0.9644 -1.83148,-6.72428 -1.83148,-6.72428 l 3.7249,-3.28251 c 0.30082,-0.17696 1.22099,-1.56605 2.25617,-5.11399 1.09712,-3.45947 2.40659,-8.6 5.14939,-14.58992 3.49485,-7.60905 8.34341,-15.48354 11.88251,-20.93374 -0.34507,-1.74301 -2.17655,-2.54815 -3.49486,-2.86667 -1.47757,-0.39815 -3.30021,-1.25638 -4.75035,-2.9463 -1.5227,-1.76955 -2.68971,-4.26461 -2.03586,-7.48518 0.64588,-3.17634 2.63662,-5.4679 4.96358,-6.53848 v -0.009 c 2.63662,-1.3714 5.89259,-0.71666 5.89259,-0.71666 7.75946,0.71666 13.4928,7.91872 13.4928,7.91872 7.72407,-10.77654 25.69382,-37.50556 26.07428,-38.08951 -23.55268,4.5035 -47.88395,5.11399 -68.09218,1.7607 -36.74465,-6.09609 -65.01317,-25.65843 -83.2749,-34.57695 -18.26173,-8.90967 -53.05103,-18.04054 -88.937449,-8.90967 -35.877573,9.13086 -59.5718112,42.18601 -59.5718112,42.18601 10.7146092,-75.48889 57.4748972,-88.21194 61.9606992,-89.48601 6.812758,-6.37922 15.748972,-25.84424 -5.414814,-38.97428 -7.228601,-4.4858 -13.298149,-10.16605 -13.298149,-10.16605 4.432716,0.52201 14.828807,-0.84938 20.597531,-3.1321 6.927778,-2.73395 13.298148,-3.64527 13.298148,-3.64527 -5.467901,-5.21132 -13.820164,-7.8214 -13.820164,-7.8214 8.343415,-0.52201 21.384979,-3.38868 29.462963,-7.042796 8.077986,-3.645267 12.510696,-10.166049 11.201236,-13.032716 -1.30062,-2.875514 -8.6,-1.300617 -8.6,-1.300617 2.61008,-3.9107 8.86543,-5.476749 8.86543,-5.476749 -17.987448,-1.044033 -31.090946,8.750412 -31.090946,8.750412 1.999588,-4.291153 8.573457,-12.006379 8.573457,-12.006379 -2.495062,0.822839 -9.405144,2.981687 -9.838683,3.114403 C 106.3144,56.636132 137.75041,37.516173 181.79444,37.233045 225.82963,36.94107 268.7323,56.68037 297.31934,65.82893 c 28.60473,9.14856 43.77949,13.767078 74.66605,9.201646 14.78457,-2.194239 27.72969,-8.254938 37.21358,-13.935185 0,0 6.6358,-16.872634 7.14101,-41.097737 0,0 7.95323,14.262552 7.98862,36.470371 0.0796,76.214405 -36.85082,131.875515 -48.6537,152.137715 -11.28087,19.93307 -26.10967,43.80426 -44.23869,71.27648 z M 412.64959,0.00176955 c 0,0 1.00068,18.32366245 -2.45967,35.09897145 -3.34445,16.209053 -5.18478,22.384773 -5.18478,22.384773 -7.07818,4.149589 -18.536,9.254733 -35.28477,12.04177 -31.25905,5.211317 -59.6249,-3.185185 -90.59198,-15.341975 C 248.15247,42.028518 206.70967,28.933868 168.25741,33.348889 130.97305,37.631193 104.29712,52.73428 90.114198,62.581811 75.931276,72.420494 73.321193,75.021728 61.164403,78.498889 c 0,0 9.555556,3.760288 14.474897,3.760288 0,0 -2.318107,9.564403 -1.451028,12.740741 0,0 20.261317,-9.263581 22.579424,-4.919342 2.318106,4.344239 -7.237449,7.246296 -13.890947,8.971605 -6.653498,1.743009 -24.030453,1.442179 -24.030453,1.442179 0,0 8.148766,6.30844 11.02428,10.68807 0,0 -15.359671,6.68889 -32.44465,4.37078 0,0 -0.566255,6.32613 13.475103,16.68683 -2.990535,1.07058 -6.777366,2.80473 -9.122017,5.30864 0,0 14.713786,-3.03477 23.959671,7.264 2.433128,3.05246 3.229424,5.78641 2.955144,9.23703 -0.504321,6.25535 -2.902058,8.64424 -8.79465,12.53724 -3.370988,1.3714 -6.954321,3.08786 -10.413786,5.20247 -16.270988,9.99795 -28.171194,25.21605 -36.523457,42.60186 C 9.3432099,221.9207 6.45,230.67111 4.4061728,238.60753 2.3623457,246.58819 1.6102881,253.67523 1.1325103,258.09909 0.65473251,262.51411 0,276.4316 0,276.4316 c 0,0 7.2993827,-10.22798 10.723457,-15.12962 3.406378,-4.88396 24.994856,-32.02881 56.439712,-39.89445 10.059876,-2.557 20.075514,-3.62757 29.648765,-3.62757 23.012966,-0.0177 43.566256,6.2288 55.731896,12.18333 17.66008,8.54692 46.67181,28.71975 84.70823,35.02819 8.95479,1.47757 18.60679,2.21194 28.61358,2.21194 9.59979,0 19.5358,-0.69898 29.46296,-2.05268 -5.60946,8.36996 -10.98889,16.19136 -16.10288,23.43765 -5.18477,-4.93703 -12.21872,-5.4502 -12.21872,-5.4502 -8.52922,-0.80514 -12.80179,4.38848 -12.80179,4.38848 -1.7262,1.86687 -3.01797,4.29115 -3.52229,7.14897 -0.60164,2.64547 0.11502,5.72537 0.61138,7.29053 1.6271,5.16708 6.04212,7.52058 7.75858,8.27264 -12.46646,16.6072 -16.08519,35.72804 -16.08519,35.736 l -5.68909,5.01667 2.05268,8.31687 c -3.16749,10.20144 1.80493,17.85474 8.25493,21.02223 6.54733,3.22057 12.66111,1.3537 12.66111,1.3537 3.84877,-1.07942 7.33478,-3.5037 9.70597,-7.06049 0.36364,-0.53972 0.68128,-1.08828 0.9644,-1.63683 1.32717,-0.71667 2.46852,-1.52182 3.44177,-2.38889 1.7961,0.20349 6.39692,0.34506 6.39692,0.34506 9.43169,-0.0796 18.65103,-2.75165 25.68498,-8.72387 5.53868,-4.95473 11.63477,-13.40432 11.84712,-24.95062 0,-2.16769 0.39815,-10.90926 -6.82161,-18.52716 45.55788,-66.88889 75.13498,-109.95082 94.01605,-153.76481 50.0251,-116.135394 7.35247,-164.55905683 7.16667,-164.97490045 z"
       id="path4"
       inkscape:connector-curvature="0"
       style="fill:#b1babf" />
  </g>
</svg>
